/* XPM */
static char *result[] = {
/* columns rows colors chars-per-pixel */
"30 50 2 1 ",
"  c white",
". c None",
/* pixels */
".......             ..........",
".......             ..........",
".......             ..........",
".......             ..........",
".......             ..........",
".......             ..........",
".......             ..........",
".       ............       ...",
".       ............       ...",
".       ............       ...",
".       ............       ...",
".       ............       ...",
".       ............       ...",
".       ............       ...",
".       ............       ...",
".       ............       ...",
".       ............       ...",
".       ............       ...",
".       ............       ...",
".       ............       ...",
".       ............       ...",
".       ............       ...",
".       ............       ...",
".       ............       ...",
".       ............       ...",
".       ............       ...",
".       ............       ...",
".       ............       ...",
".       ............       ...",
".       ............       ...",
".       ............       ...",
".       ............       ...",
".       ............       ...",
".       ............       ...",
".       ............       ...",
".       ............       ...",
".       ............       ...",
".       ............       ...",
".       ............       ...",
".       ............       ...",
".       ............       ...",
".       ............       ...",
".       ............       ...",
".......             ..........",
".......             ..........",
".......             ..........",
".......             ..........",
".......             ..........",
".......             ..........",
".......             .........."
};
