/* XPM */
static char *result[] = {
/* columns rows colors chars-per-pixel */
"27 50 2 1 ",
"  c white",
". c None",
/* pixels */
"...                        ",
"...                        ",
"...                        ",
"...                        ",
"...                        ",
"...                        ",
"...                        ",
"...        ................",
"...       .................",
"...       .................",
"...       .................",
"...       .................",
"...       .................",
"...       .................",
"...       .................",
"...       .................",
"...         ...............",
"...                 .......",
"...                 .......",
"...                 .......",
"...                 .......",
"...                 .......",
"....                .......",
"....................       ",
"....................       ",
"....................       ",
"....................       ",
"....................       ",
"....................       ",
"....................       ",
"....................       ",
"....................       ",
"....................       ",
"....................       ",
"....................       ",
"....................       ",
"....................       ",
"....................       ",
"....................       ",
"....................       ",
"....................       ",
"....................       ",
"....................       ",
"........            .......",
".......             .......",
".......             .......",
".......             .......",
".......             .......",
".......             .......",
".......             ......."
};
