/* XPM */
static char *result[] = {
/* columns rows colors chars-per-pixel */
"50 50 223 2 ",
"   c #160D0B",
".  c #0E1314",
"X  c #171917",
"o  c #2D1C17",
"O  c #341E19",
"+  c #17241C",
"@  c #142C18",
"#  c #2C2319",
"$  c #302116",
"%  c #33241A",
"&  c #3D2919",
"*  c #38281C",
"=  c #161722",
"-  c #231827",
";  c #271836",
":  c #1D3728",
">  c #2A2824",
",  c #3B2D24",
"<  c #332928",
"1  c #2C3927",
"2  c #35372A",
"3  c #2A2138",
"4  c #3C2636",
"5  c #3D3B31",
"6  c #432C26",
"7  c #413629",
"8  c #483529",
"9  c #573A21",
"0  c #573D2A",
"q  c #452F37",
"w  c #573C35",
"e  c #653A2E",
"r  c #683E36",
"t  c #134E32",
"y  c #2F432A",
"u  c #4C4332",
"i  c #554232",
"p  c #5B4536",
"a  c #554A32",
"s  c #594739",
"d  c #654326",
"f  c #65482C",
"g  c #694937",
"h  c #754E38",
"j  c #6B513E",
"k  c #79563A",
"l  c #78633D",
"z  c #2E1B43",
"x  c #341F42",
"c  c #1B2149",
"v  c #18374A",
"b  c #2C2441",
"n  c #342647",
"m  c #202A5B",
"M  c #333253",
"N  c #2A2E65",
"B  c #2C2F68",
"V  c #352D67",
"C  c #483345",
"Z  c #4E306E",
"A  c #4D3678",
"S  c #165843",
"D  c #15564C",
"F  c #0F614A",
"G  c #156648",
"H  c #156C53",
"J  c #117357",
"K  c #2C6753",
"L  c #1C5661",
"P  c #275268",
"I  c #1A7A6B",
"U  c #276E6B",
"Y  c #564459",
"T  c #665149",
"R  c #775845",
"E  c #4A6449",
"W  c #76644C",
"Q  c #796C4E",
"!  c #52416E",
"~  c #524378",
"^  c #744E6A",
"/  c #845837",
"(  c #8F653A",
")  c #966439",
"_  c #976539",
"`  c #A36D3E",
"'  c #A86F3F",
"]  c #A6703F",
"[  c #875C46",
"{  c #896448",
"}  c #96654B",
"|  c #8B6C52",
" . c #946A53",
".. c #9D6F57",
"X. c #937551",
"o. c #9B7459",
"O. c #AA714C",
"+. c #A66E53",
"@. c #A8785A",
"#. c #B77758",
"$. c #BE7A5B",
"%. c #977661",
"&. c #B77E62",
"*. c #C37C57",
"=. c #C27D5C",
"-. c #389A46",
";. c #2B9051",
":. c #3EA24A",
">. c #34AF5D",
",. c #38B55D",
"<. c #158567",
"1. c #198F66",
"2. c #168669",
"3. c #148968",
"4. c #1B9167",
"5. c #28886A",
"6. c #26956A",
"7. c #3C9369",
"8. c #33A264",
"9. c #4DB759",
"0. c #5C9A63",
"q. c #46C657",
"w. c #47C958",
"e. c #5DC15B",
"r. c #6AC865",
"t. c #938C55",
"y. c #B8855E",
"u. c #B18D5B",
"i. c #9D9164",
"p. c #B78A66",
"a. c #BA8968",
"s. c #AC926F",
"d. c #B68E74",
"f. c #B89877",
"g. c #ABA86D",
"h. c #C6825E",
"j. c #C9855E",
"k. c #CD895F",
"l. c #C29C5D",
"z. c #C68464",
"x. c #C98664",
"c. c #CB8A63",
"v. c #C48669",
"b. c #C88768",
"n. c #C38B6A",
"m. c #CB8B6B",
"M. c #D28F63",
"N. c #CC936C",
"B. c #D69567",
"V. c #D4946A",
"C. c #D6986A",
"Z. c #DC9C6E",
"A. c #C58F70",
"S. c #CF9171",
"D. c #CA9977",
"F. c #D09473",
"G. c #D49976",
"H. c #DA9D74",
"J. c #D49A79",
"K. c #D99F7C",
"L. c #CCAA66",
"P. c #DFA06E",
"I. c #D6A17C",
"U. c #DBA27D",
"Y. c #E3A673",
"T. c #E4A978",
"R. c #E5AC7C",
"E. c #98C475",
"W. c #4F3783",
"Q. c #5C3585",
"!. c #613986",
"~. c #61388C",
"^. c #663B93",
"/. c #683C96",
"(. c #693E99",
"). c #58488A",
"_. c #5C4E9E",
"`. c #6A4F88",
"'. c #704DA9",
"]. c #6A57A9",
"[. c #6458AE",
"{. c #6C5AB1",
"}. c #755BB8",
"|. c #7862BD",
" X c #7C66C6",
".X c #8163AF",
"XX c #846ACB",
"oX c #866DD6",
"OX c #8A70D7",
"+X c #8B72DE",
"@X c #8D74E2",
"#X c #9076E5",
"$X c #90B689",
"%X c #B9B98C",
"&X c #C99E81",
"*X c #CDA183",
"=X c #C6AD82",
"-X c #D1A686",
";X c #DDA683",
":X c #DEA885",
">X c #DEA989",
",X c #CAB283",
"<X c #D6BB8D",
"1X c #DFB191",
"2X c #E5AE84",
"3X c #E8AF81",
"4X c #E2AD8C",
"5X c #E7B086",
"6X c #E8B083",
"7X c #E5B18C",
"8X c #E9B48D",
"9X c #E5B392",
"0X c #E8B796",
"qX c #E9B896",
"wX c #EABA99",
"eX c #A8D084",
"rX c #D5C68B",
"tX c #D9D698",
"yX c #EFD5A1",
"uX c #F9DBA5",
"iX c #FEDBA5",
"pX c #FFE1AA",
"aX c #FDE4AB",
/* pixels */
"qX0X0X0X0X0X9Xz.0X0X0X0X0X0XwXwX0X0XwXS.*XqX0XqXqX0XqXqXqX0X0X9Xb.wXwX0X0X0XqXqXqX0X0XwXF.;X0X0X0X0X",
"5X5X9X0XwX9X4Xx.qXwXqX0X9X5X5XwXwX0X9XF.K.wXqXqX0X7X2X9XqXqX9X4X=.0XqXwXwX9X5X8XwX0X0X8XF.;XwX0XwX0X",
"x.j.x.b.b.x.x.$.c.b.b.m.c.j.x.b.b.b.c.=.=.m.b.c.b.=.x.x.m.m.x.x.=.b.b.b.b.=.j.=.m.m.b.x.=.=.S.=.m.b.",
";X:X4X;Xz.;X;X4X:X:X:X;X:X:X:X>Xb.G.:X2X2X;X4X4X2X;X2X4X;X=.;X2X;X;X4X2X4X;X2X4X4X=.J.2X;X;X2X2X>X;X",
"3X5X0X4Xx.3X3XT.R.6X6X6X3X6X0X0Xb.H.R.T.T.R.R.3X2X3X7XwX4X=.5X3XT.R.3X3X3X3X3X0XwXm.H.3X3XT.3X3X3X4X",
"S.S.S.x.=.S.S.k.c.S.S.S.S.S.a.} h R [ [ / { &.S.S.S.F.S.=.=.F.F.k.M.S.S.S.S.S.F.m.*.b.S.M.j.S.S.S.S.",
"B.B.H.;X;XK.K.K.C.B.B.*.B.c. .2 + + + + X 1 { #.k.B.M.H.K.;X;XK.U.B.B.M.=.B.B.V.;X;XK.K.;XV.B.B.=.k.",
"R.R.R.3X3X3X3XR.R.R.P.j.T.o.u S G D D D v M 5 k m.T.T.3X3X3X3X3X3XR.R.T.=.R.T.3X3X3X3X3X3X3X3XR.c.Z.",
"G.J.G.G.G.G.J.G.G.G.S.=.S.R X F 2.2.U U P L X $ g R @.J.J.G.G.J.G.G.J.S.=.G.G.G.G.G.G.J.G.G.G.G.=.m.",
"J.x.j.G.J.J.V.J.J.J.V.V.D.R . L I 2.U U U K : # @ > a O.D.G.J.V.G.J.J.V.V.J.J.=.S.J.J.G.V.K.J.F.V.G.",
"3XV.J.wXqX5X7XwXqX0X9X0X7XR = K 5.5.5.7.9.9.:.-.;.G y a *X0X5X8XqXqX0X0XqX8X2X=.9X0XqX3XwX0XqX0X8XwX",
"K.b.m.Z.B.F.;XK.B.B.V.K.J.R > 0.$X$X$XeXeXE.-.t t t . * y.B.G.;XK.B.B.F.;XJ.J.=.H.B.B.K.K.G.B.V.H.;X",
"F.F.F.F.F.F.S.=.F.F.F.F.m.R 7 =XaXuXuXuXpX<Xu X , , , g a.F.S.S.=.F.F.F.S.F.F.F.S.F.F.G.=.v.F.F.S.F.",
"wXqXwXwXwXwX0Xb.qXwX0X0X9XW 8 =XaXiXiXiXpX<Xu s f.&X&X-X9XwXwX9X=.wXwXwXwXwXqXqXqXqXwXqXF.;XwXwXwXwX",
"Z.Z.T.>X>XK.K.=.4X4X;X4XJ.R 6 =XpXiXiXiXpX<Xw j J.H.H.K.>X4XK.K.=.4X;X4X4XK.Z.H.;X4X4XH.m.F.4X:X4X;X",
"m.m.m.v.=.m.m.m.m.m.m.m.v.h , =XiXiXiXiXiX<Xu w a.m.m.m.b.=.m.c.m.m.m.m.m.m.m.m.m.=.b.m.m.m.m.m.b.S.",
"5X8XwX>Xz.6X3X6X6X6X2X2XT.W y ,XaXiXiXiXpXrXu g I.R.8XwX4Xz.6X6X2X3X3X2X2X3X2XqXqXm.H.3X2X2X3X2X3X6X",
">X>X7XH.z.2X:XP.U.;X;X;XI.W 8 I.pXiXiXiXpXrXa g D.5X>X7XH.z.2X:XP.Y.4X2X4X4X2X4X2Xx.J.4XT.P.2X:X2X4X",
"j.j.z.b.z.b.A.z.$.( g e f & & g.iXiXiXiXuX,XE 1 k #.j.z.z.z.b.b.x.=.j.=.*.*.j.x.b.b.b.b.b.h.j.j.$.=.",
"Y.Y.R.2X6X2XJ.a.@.u @ + + + y t.rXtXtXtXrXg.7.F 1 X.C.R.5X5X5X5X3XY.Y.Z.=.Y.Y.Y.2X3X5X3X3XT.Y.T.c.B.",
"5X2X2X2X>XD.Q < 1 S H H J ;.-.9.e.r.r.r.r.e.q.;.G 2 X.:X2X2X2X4X2X4X2X2Xx.4X2X4X4X2X4X2X2X4X4X3Xc.G.",
"z.z.=.v.#.j y t t J 3.3.8.,.q.q.w.w.q.q.q.q.w.,.;.+ g $.v.z.z.z.z.z.b.=.=.v.z.=.x.z.b.z.x.z.z.x.=.z.",
"2XS.N.*X%.T K <.3.3.3.4.,.w.q.q.q.q.q.q.q.q.q.w.-.@ h N.9X9X7X2X7X0X0X3X2X4X2X=.2X9X9X2X2X0X0X4XR.8X",
"5XN.J.| s f.0.6.3.3.3.4.,.w.q.q.q.q.q.q.q.q.q.w.-.1 g A.2X2X3X9X9X2X2X2XqX5X2Xz.4X3X2X5X0X4X2XR.7X0X",
"b.=.&.r 8 =XtX$X4.3.3.1.,.w.w.q.q.q.q.q.q.w.w.,.:.Q f f y.h.j.z.z.=.x.z.b.b.b.=.z.j.=.v.z.h.h.h.x.z.",
"9X>Xi.R | <XaX%XK t D F ;.>.>.>.>.>.>.>.>.>.>.4.7.i.a u D.1X7X>X=.4X4X4X9X4X4X9X4X4X9X9XS.F.9X9X4X4X",
"5XD.s W 1XuXyXs.5 > X @ H 1.1.1.1.1.1.1.1.1.3.3.7.i.l u d.9X8X7Xz.wXwX0XwX9X3X5XwXwXwX8XF.;XwXwXwXwX",
"z.O.6 Q yXyXi.i [ } 0 + F 3.3.3.3.3.3.3.3.3.3.3.7.g.u.l 8 { z.v.=.m.b.b.m.x.j.x.m.b.m.x.=.=.m.c.m.m.",
"d.| W f.uXyXW q d.U.| + F 3.1.<.3.3.3.3.3.3.3.<.6.g.L.] # & %.I.2X;X;X;X;X:X;X4X4Xb.G.:X;X:X;X;X:X:X",
"| 7 s.uXyX,XW j N.2XX.+ F 3.1.<.3.3.3.3.3.3.3.3.7.t.L.t.& o g u.p.p.p.p.p.a.a.f.d.+.@.p.p.y.p.p.p.a.",
"R , g.aX<Xj j O.x.N.[ + F 3.<.<.<.<.<.<.<.<.<.U D 2 ( u.( / d * $ % * % $ * % % * $ * * % % % % % * ",
"k , f.aX=X5 R H.C.B./ X v L L L L L L L L L L P v X l l.O.' / 0 9 9 9 9 9 9 9 9 9 9 9 9 9 9 9 9 9 9 ",
"{ < Q f.i.g o.;XT.a.T = c m m m m m m m m m m m c . 8 { k ) ' ` ` ` ` ` ' ' ` ` _ ] _ ] ` ` ` _ _ ` ",
"{ # % , w ..A.G.a.g - m N N N N B B B B N N N N c .   $ & f ) ) ) ) _ _ _ _ ` ] ] ] ] ] ] ] ] ] ' ' ",
"p.[ k { ..A.V.G.A.8 b _.[.[.[.[.[.[.[.[._.W.A W.V = 8 / { w & & & & & & & 9 ) ' ] ` ' ` ] ] ] ] ' ` ",
"R.N.J.0XqX5X8XqX-Xs M XX#X+X@X#X@X#X@XoX'.(.^./.Q.n w @.-X| p i p p p p p i d d d d d d d d d d d d ",
";Xz.m.C.V.H.U.G.@.u Z XX#X@XoX X X X}.'.(.^.^.^.^.Q.x 8 $.c.v.A.A.y.y.z.A.o.8 o $ $ $ % $ $ $ $ O # ",
"S.S.F.F.S.F.m.} w ! {.OX+X@X|.V 3 b n Z ^.^.^.^./.~.z 6 &.F.F.V.$.F.F.F.F.a...}  . . . .[ }  . . . .",
"wX0XqXwXwX0X9X} < ).#X+XOX#X{.; < T T C Z ~.^.^./.~.z q &XwXwX9Xx.wXwXwXwXwXqXqXwXwXwXwXS.;XwXwXwXwX",
"H.Z.U.4X4XK.K.[ 3 ).+X#XOX#X].3 R D.v.8 ; Q./.^./.~.z 6 d.>XK.K.=.:X>X:X4XK.Z.H.>X:X:XU.m.S.>X:X>X4X",
"m.m.m.b.$.n.b.[ 3 ).+X+X+X#X{.3 g =.&.8 ; Q./.^.(.Q.z , @.=.m.b.m.m.m.m.m.S.m.b.m.=.x.m.m.m.m.m.m.m.",
"5X8XwX4Xz.;Xu.T ~ |.+X+X+X#X{.3 h H.J.i ; Q./.^.(.^.z 8 A.x.3X2X5X2X2X2X2X3X3X0XwXS.H.5X5X6X5X5X2X3X",
"2X4X4XH.z.K.j n |.+XOX+XOX X`.Y [ F.D.0 ; Q.(./.~.Z n R n.z.4X2XP.T.2X2X4X2X2X4X2Xh.J.4XT.Z.2X2X2X2X",
"h.h.x.z.z.&.w b |.#X+X#XOX).4 / &.m.#.8 ; Q.(./.A ; r @.z.z.b.m.z.h.j.=.=.=.h.x.b.z.z.b.b.h.h.h.=.=.",
"Y.Y.R.2X2XI.j b |.@X+X+X+XA < p.7X3XJ.p ; Q././.Z - / U.2X5X4X3X2XY.Y.P.h.Y.Y.Y.5X2X5X2X2XT.Y.Y.k.B.",
"4X2X4X2X;Xo.Y ~  X@X+XoX].Y T D.4X4XD.w ; !.(.(.Z ; R 2X2X2X2X2X2X4X3XU.z.2X2X4X2X4X2X2X2X4X2X5Xm.J.",
"v.=.=.x.+., Z |.XXOX@X XM w +.x.=.b.#.6 ; Z ~.!.Z - w O.x.z.z.z.z.z.x.=.=.b.z.=.z.z.z.z.z.b.z.z.=.=.",
"7XV.C.9Xd., 5 ^ ^ .X+X|.n j #.6X9X9XF.e - 4 4 4 4 o O g *X0X4X2X9X0X0X2X2X4X2Xh.2X0X9X2X4X0X0X7XR.7X",
"5XF.J.5Xa.* O e r ^ `.~ T @.&.9X3X2XJ.s   o O O O O   6 A.2X3X0X0X2X3X3X0X9X2Xz.8X3X2X4X9X5X3X3X8X0X",
"z.=.=.=.} o O e r r q O [ =.$.=.*.=.#.6   o O O O o   & +.*.=.=.=.*.=.=.z.=.=.#.=.*.=.x.z.*.*.=.=.z."
};
