/* XPM */
static char *result[] = {
/* columns rows colors chars-per-pixel */
"50 50 218 2 ",
"   c #0E0F0D",
".  c #1B110C",
"X  c #171812",
"o  c #241512",
"O  c #271B17",
"+  c #341E19",
"@  c #172B1C",
"#  c #282619",
"$  c #2D241B",
"%  c #362719",
"&  c #32251C",
"*  c #35291E",
"=  c #111529",
"-  c #251925",
";  c #331E26",
":  c #2B1A39",
">  c #0C2A27",
",  c #16272A",
"<  c #0E322D",
"1  c #123933",
"2  c #2D2326",
"3  c #372A25",
"4  c #3B372B",
"5  c #302C32",
"6  c #402B27",
"7  c #45362A",
"8  c #4C352A",
"9  c #563922",
"0  c #583A2B",
"q  c #42263C",
"w  c #473631",
"e  c #583E31",
"r  c #6A3D33",
"t  c #144D38",
"y  c #324C33",
"u  c #19633D",
"i  c #23632E",
"p  c #297837",
"a  c #4D4128",
"s  c #55422A",
"d  c #494937",
"f  c #564233",
"g  c #5B4536",
"h  c #644326",
"j  c #65462C",
"k  c #744E2C",
"l  c #78502E",
"z  c #674B39",
"x  c #6A4D3B",
"c  c #764E39",
"v  c #6B523A",
"b  c #745338",
"n  c #7C683F",
"m  c #2E1B43",
"M  c #1E3A4F",
"N  c #1E2557",
"B  c #2E2542",
"V  c #2A214D",
"C  c #392843",
"Z  c #242F5B",
"A  c #33366F",
"S  c #432B52",
"D  c #492A68",
"F  c #502E74",
"G  c #4A3D75",
"H  c #56327A",
"J  c #15514D",
"K  c #32535D",
"L  c #15755D",
"P  c #275866",
"I  c #365B6D",
"U  c #1A6C62",
"Y  c #1A7867",
"T  c #2B6E6A",
"R  c #594B48",
"E  c #674C4A",
"W  c #7C5846",
"Q  c #4D6D52",
"!  c #776748",
"~  c #746C4E",
"^  c #494869",
"/  c #52427C",
"(  c #744D66",
")  c #4A6B69",
"_  c #89593A",
"`  c #926339",
"'  c #A46D3E",
"]  c #A96F3F",
"[  c #A6703F",
"{  c #895C46",
"}  c #886548",
"|  c #986948",
" . c #967649",
".. c #946A52",
"X. c #976C55",
"o. c #987258",
"O. c #AB6F4D",
"+. c #AA7342",
"@. c #A26E54",
"#. c #A67558",
"$. c #B67758",
"%. c #BD7A5A",
"&. c #A87C61",
"*. c #BA7E61",
"=. c #C27C57",
"-. c #C27D5B",
";. c #C37F60",
":. c #388F4B",
">. c #3EBC5B",
",. c #158768",
"<. c #158968",
"1. c #269F62",
"2. c #359069",
"3. c #27A062",
"4. c #2AA261",
"5. c #31A362",
"6. c #56B05C",
"7. c #488A67",
"8. c #439975",
"9. c #6B8D71",
"0. c #56A063",
"q. c #67AF78",
"w. c #3FC15A",
"e. c #46C657",
"r. c #48C857",
"t. c #42C159",
"y. c #4EC65A",
"u. c #6BC668",
"i. c #9D8D5F",
"p. c #AE8951",
"a. c #BB985B",
"s. c #908E66",
"d. c #A9876A",
"f. c #B78768",
"g. c #AE9D6B",
"h. c #BD9F60",
"j. c #BC9479",
"k. c #97B06A",
"l. c #C6825E",
"z. c #C9855E",
"x. c #C68464",
"c. c #C98664",
"v. c #CC8A64",
"b. c #C78769",
"n. c #CB8B6B",
"m. c #D28F63",
"M. c #C9966D",
"N. c #D69466",
"B. c #D4946A",
"V. c #D7976B",
"C. c #DB9C6E",
"Z. c #CF9171",
"A. c #C89876",
"S. c #D19474",
"D. c #D49976",
"F. c #DB9E75",
"G. c #D59A79",
"H. c #D99F7C",
"J. c #CCAB67",
"K. c #D7A46D",
"L. c #D0AE72",
"P. c #D6A27C",
"I. c #DAA17D",
"U. c #E3A673",
"Y. c #E6A976",
"T. c #E4AA7B",
"R. c #E6AC7C",
"E. c #99C16C",
"W. c #A7CE7C",
"Q. c #3E3D81",
"!. c #5D3687",
"~. c #613885",
"^. c #62398D",
"/. c #663B93",
"(. c #683C96",
"). c #693D98",
"_. c #56478A",
"`. c #615594",
"'. c #7057AC",
"]. c #7761BE",
"[. c #7B66C7",
"{. c #8972A5",
"}. c #856BCD",
"|. c #8B72DD",
" X c #8D74E2",
".X c #9A8A83",
"XX c #97B78A",
"oX c #A1A78B",
"OX c #D3A585",
"+X c #DCA582",
"@X c #DFA885",
"#X c #DFA989",
"$X c #C4A397",
"%X c #E5AD84",
"&X c #E8AF81",
"*X c #E2AD8C",
"=X c #E7B086",
"-X c #E8B083",
";X c #E5B18C",
":X c #E9B48D",
">X c #E5B392",
",X c #E8B795",
"<X c #EAB896",
"1X c #EABA99",
"2X c #ABD282",
"3X c #D2CE9A",
"4X c #D1D096",
"5X c #E6C689",
"6X c #E7CB9D",
"7X c #EBD19E",
"8X c #F4D39D",
"9X c #E9CDA8",
"0X c #E7D6A1",
"qX c #F9D9A7",
"wX c #FEDCA6",
"eX c #FFE0A7",
"rX c #AF92CE",
"tX c #CDAEC0",
/* pixels */
"<X,X,X,X,X,X>Xb.,X,X,X,X,X1X,X,X,X,X1XS.H.,X,X,X,X1X,X,X,X,X,X>Xb.1X1X,X,X1X1X1X,X,X,X1XS.+X,X,X,X,X",
"=X=X>X,X1X>X*Xx.,X<X1X,X>X%X:X,X1X,X,XS.H.1X,X,X,X:X-X>X1X,X:X>X;.1X1X1X1X;X-X:X1X,X,X:XZ.+X1X,X1X1X",
"z.z.b.n.b.x.b.=.n.n.n.n.v.l.c.n.b.b.b.-.x.n.n.b.b.z.z.n.n.n.x.x.-.;.n.b.b.;.;.;.n.n.n.;.;.;.n.n.;.n.",
"@X@X*XH.;.%X+X*X+X+X@X@X@XH.A.A.$.b.A.A.G.+X+X%X@X@X@X#XH.x.@X@X%X+X+X%X+X#X%X*X*X;.G.%X+X%X+X+X*X#X",
"%X=X,X*Xc.&X%XY.Y.&X&X%XT.i.z g 8 e e e } OX%X%X&XR.:X1X@Xc.-X%XY.R.%X&X&X%X&X1X1Xm.I.-X&XY.%X&X-X%X",
"S.Z.Z.z.=.Z.Z.v.n.S.S.b...d < < < > > , 4 W f.B.Z.S.S.n.z.%.Z.B.v.m.Z.Z.Z.Z.Z.Z.n.=.;.n.m.v.Z.B.Z.n.",
"N.N.F.+X+XI.H.H.N.N.N.O.8 1 U L L U P P M $ } O.$.N.N.F.H.+XH.+XF.N.N.m.=.N.N.B.+X+XH.+X+XV.N.N.-.m.",
"R.R.R.&X&X&X%XR.R.R.K.O.7 < U ,.,.T P I M   % * g f.T.%X&X&X&X&X&XR.&XU.;.R.R.&X&X&X&X&X&XT.&XR.v.V.",
"D.G.G.D.G.D.G.S.G.G.Z.@.6 < U ,.,.Y 2.5.:.i i t y z #.G.G.D.D.G.D.D.G.S.-.G.G.G.G.S.D.G.G.G.D.D.;.n.",
"F.x.z.D.G.G.B.D.G.G.B.$.7 t 8.8.8.0.u.u.6.:.p :.t @ x l.D.G.G.B.D.D.G.m.B.G.S.=.B.G.G.D.B.G.D.D.N.D.",
"%XB.G.,X,X=X:X,X,X,X:XA.w R 4X3X3X3X4X4Xs.@ @ @ > X b D.<X,X=X:X1X<X1X:X,X*XT.;.>X,X>X=X,X,X,X<X:X1X",
"H.c.Z.V.N.D.+XH.N.N.D.f.6 ! 6XeXwXwXeXeXi.# 0 W W W o.n.V.N.D.+XH.N.B.B.+X+XG.-.D.N.B.H.+XC.N.N.D.+X",
"S.n.#.X......._ ....X.{ $ ! 7XwXwXwXwXwXi.$ z ................X.#.Z.S.S.Z.S.Z.Z.S.S.S.S.;.b.S.S.S.S.",
">XA.g & $ 3 % $ % % % $ o ~ 8XeXwXwXwXwXd.# # 3 * * * * 3 * & 8 { >X1X1X1X1X1X1X1X1X1X1XS.+X1X1X1X1X",
"#.j 9 h h h h h h h h 9 j d.8XeXwXwXwXwXL.b h h h h l n n b h h 9 X.OX*X*XF.C.F.*X*X*XF.n.A.#X#X#X%X",
"W O k +.' ' ' ' +.' +.' ] V.8XeXwXwXwXwXR.+.[ [ [ ] a.J.a.+.] ` % e ;.n.n.n.n.n.c.-.c.n.n.n.n.n.n.n.",
"} % l [ [ [ [ ] [ [ ' |  .J.8XeXwXwXwXwXL.#.` ` ` ` p.h.p.` ` l $ v P.-X&X&X%X<X1Xn.I.-X-X&X%X&X&X&X",
"} * k ] ` ' ' ' ' [ ~ :.:.9.5X8XqXqX8X5Xk.7.) y O % ` J.a.j + # . x G.%X*X@X%X*X%Xl.G.%XY.C.%X@X*X%X",
"| j 9 9 s 9 9 9 s v 7.4.3.6.k.W.2X2XW.E.6.5.Y J =   b J.h.a o 9 r _ -.;.%.l.z.z.n.x.b.b.c.x.l.l.=.-.",
"K.b.v % % 6 3 O X u 4.w.w.6.r.y.y.y.y.y.e.6.5.L J , ! J.a.a s j.I.U.C.C.l.U.U.U.%X%X-X%X%XT.U.Y.c.N.",
"%X%XA.d.d.f.f.} @ p e.e.r.r.e.t.e.e.e.e.e.e.>.2.P K s.J.h.a f A.*X%X=X%X;.*X%X*X%X%X*X%X%X*X%X=Xv.F.",
"b.x.-.x.x.b.c.} # p e.e.w.r.r.r.e.e.e.e.e.e.e.2.) 9.g.L.h.a 8 $.c.;.c.;.-.n.;.-.x.b.x.b.x.x.x.x.-.;.",
"&XZ.B.>X>X;X=Xd.# p r.r.y.r.r.y.r.e.r.e.e.e.>.2.) g.J.L.h.a f A.>X>X>X%X&X:X%X;.%X>X>X%X%X,X,X*X%X;X",
"=XZ.H.=X%X-X,Xi.# p e.w.w.w.w.w.t.t.6.w.w.w.1.Y ) i.h.h.p.s v OX:X%X%X%X1X:X%X;.*X&X&X=X1X%X%X%X:X,X",
"b.-.;.x.-.;.b.{ # u 3.3.1.1.4.4.1.1.1.1.1.1.<.J @ 7 a a a v | x.;.;.;.;.c.b.c.%.c.;.;.b.c.;.-.;.;.b.",
">X>X*X>X:X>X%X{ @ J 2.q.q.2.<.<.<.<.<.<.<.<.<.t X 7 f f z d.*X#X;.>X:X;X*X>X;X*X;X>X;X;XZ.D.>X*X*X>X",
"&X&X>X1X1X:X;X..4 J 9.3X9XXX2.<.<.<.<.<.<.<.<.t 2 d.G.OXOX;X>X>X;.1X1X1X1X,X%X:X1X1X,X:XS.+X1X1X1X1X",
"x.z.b.n.b.v.;.$.} a Q 9XeX0XXX2.<.<.<.<.<.<.Y t #  .z.c.n.n.b.x.-.n.c.;.n.c.z.c.n.c.b.c.;.;.n.c.n.b.",
"+X%X%X+X;.%X+X*XA.f y k.0XeX7XXX2.<.<.<.<.<.Y 1 2 f.@X*XOX;.@X@X%X+X*X*X+X+X*X%X*Xc.D.*X%X*X+X%X+X%X",
"%X;X1X%Xv.&X%XU.M.s > T oX6XwX0XXX2.Y Y Y U P M * f.:X,X%Xx.%X&XY.R.T.&X%X%X%X,X1Xb.C.%XR.Y.T.%X%X%X",
"Z.Z.n.;.=.Z.n.v.f.8 = Z I .X9XwX0XoXI Z Z P Z = $ #.S.Z.x.=.S.n.v.v.Z.Z.Z.Z.S.Z.n.=.n.Z.v.v.S.B.Z.Z.",
"N.N.D.+X+XH.+XH.l.8   N N ^ .X3XeX0X.X^ N Z Z = O #.N.F.H.+XH.+XF.N.N.m.=.N.N.N.H.+XH.+XH.C.N.N.-.z.",
"&XR.&X&X&X&X&XH.#.R Z G !.Q.`.$XqXwX9X{.A A A m : ..B.&X&X&X&X%X&XR.R.U.;.R.R.&X&X&X&X&X&X%XT.R.v.F.",
"S.G.D.D.D.D.D.#.4 !.[.[.[.[.[.rXtXqX9XrX'.!.!.!.F ; { Z.D.D.D.G.D.D.G.Z.;.D.D.G.D.D.D.D.D.D.D.D.;.n.",
"H.;.-.G.D.G.S.o.- _. X X X X[.[.rXrXrX}.'.(.(.(.F - z -.D.G.D.Z.D.D.G.B.B.D.D.=.B.D.H.D.V.G.G.D.m.D.",
"-XB.H.<X<X:X>X&.5 _. X X X X[.]./ _._.(.^.^./.(.F - c A.<X,X=X:X1X,X,X:X,X:XT.;.>X,X,X&X<X<X<X>X:X1X",
"+Xc.n.C.B.D.+XX.2 _. X|.[.[.].Z 2 - = D /.(./.(.F - x b.V.N.C.+XH.N.N.B.+X+XD.;.G.m.B.+X+XD.N.N.G.+X",
"Z.S.Z.Z.Z.S.n.{ 2 _.|. X X'.S W X.z O V /././.(.F - E n.S.S.S.S.-.S.Z.Z.Z.Z.S.S.S.Z.Z.S.;.c.S.S.Z.Z.",
"1X1X1X1X1X>Xf.g G '. X X|.G 4 j.1XOXW S D ^.(.(.F - ~ >X1X,X,X>Xb.>X1X1X1X1X,X,X1X1X1X1XS.+X1X<X>X1X",
"C.C.I.%X*XS.E C ]. X|. X|.G 3 d.@X%Xf.8 : !.(.(.H : E *.+X*XH.H.;.*X*X+X#XH.C.F.#X%X%XH.b.Z.*X%X*X*X",
"n.n.n.b.-.f.g B ]. X|. X|.G 2 @.-.b.*.8 : !.(./.^.H C e $.-.n.n.n.n.Z.n.n.n.n.n.b.;.;.Z.n.n.n.n.n.n.",
"%X:X1X*Xc.I.x B ]. X|. X|.G 3 j.n.F.G.f : !.(./.).^.m w j.c.-X%X&X%X%X&X&X&X%X1X1Xn.F.=X=X&X=X=X%X%X",
"%X*X*XF.z.H.z B ]. X|. X XG 5 f.c.G.A.8 : !.(./.(.^.m 7 f.x.%X@XC.Y.%X*X%X*X%X*X*Xv.H.%XU.U.%X%X%X%X",
"l.l.b.x.x.*.e B ]. X|.|.}.^ 6 @.x.b.*.0 : F /./.(.^.m % #.x.x.n.c.-.-.;.=.;.c.;.;.;.b.b.c.;.;.;.-.-.",
"U.U.%X%X%XI.x B ]. X X}.G R o.I.*X%X%Xf.E C H (.(.^.m 6 n.*X%X%X&XY.U.C.;.Y.U.Y.%X%X&X:X%XY.U.Y.v.N.",
"%X%X%X%X%XOXv B [. X X[.V x I.%X%X%X%X@X..- D ).(.^.m 8 A.%X%X*X%X%X%X%X;.%X=X%X%X%X%X*X%X*X%X%Xv.F.",
"b.-.;.b.x.*.e : '.}.}.'.: e $.x.b.b.b.;.c O S ~.~.H : & ..*.c.;.c.;.;.;.-.b.;.-.;.b.;.c.c.;.c.;.-.;.",
"=XZ.B.>X,X+Xx - E ( ( E - x $.%X>X>X*X#Xo.o ; q S q ; O e d.*X%X>X>X1X%X%X;X%X;.%X1X,X=X*X>X1X>XR.>X",
"=XB.H.%X%XI.E o 0 r r 0 o z %.*X%X%X=X>XX.o o + + + + o o ..%X>X1X%X%X%X>X:X%X;.:X%X%X=X1X%X%X%X:X,X",
";.-.-.-.=.$.s o 0 r r 0 o 0 $.-.=.=.;.;.c . o + + + + o . c ;.;.;.=.-.-.;.c.;.=.-.=.=.;.;.-.=.-.-.;."
};
