/* XPM */
static char *result[] = {
/* columns rows colors chars-per-pixel */
"50 50 218 2 ",
"   c #060505",
".  c #160D0B",
"X  c #181613",
"o  c #281B0F",
"O  c #291B16",
"+  c #341E19",
"@  c #162A1C",
"#  c #2E2219",
"$  c #352519",
"%  c #3D2A1A",
"&  c #151427",
"*  c #221625",
"=  c #251B22",
"-  c #271736",
";  c #102D2B",
":  c #093428",
">  c #133934",
",  c #2B2526",
"<  c #362A26",
"1  c #3C2E23",
"2  c #2F3929",
"3  c #3A3426",
"4  c #3C2637",
"5  c #422B1C",
"6  c #49321D",
"7  c #412C22",
"8  c #443325",
"9  c #483529",
"0  c #4B3A2E",
"q  c #533924",
"w  c #593C27",
"e  c #523B2C",
"r  c #493236",
"t  c #683C32",
"y  c #1B4836",
"u  c #135235",
"i  c #2B4B2F",
"p  c #296B33",
"a  c #58412F",
"s  c #4D4534",
"d  c #564233",
"f  c #594636",
"g  c #674629",
"h  c #744E2D",
"j  c #654836",
"k  c #6D4C3A",
"l  c #714D3A",
"z  c #695339",
"x  c #78543C",
"c  c #7D683F",
"v  c #1D3348",
"b  c #1C3755",
"n  c #1F3D5E",
"m  c #2D2443",
"M  c #332E4C",
"N  c #202759",
"B  c #21285B",
"V  c #3C265A",
"C  c #31376D",
"Z  c #453245",
"A  c #4B305A",
"S  c #472A65",
"D  c #4C386E",
"F  c #502E74",
"G  c #4B3D77",
"H  c #126952",
"J  c #13795D",
"K  c #287049",
"L  c #285968",
"P  c #1A6C62",
"I  c #187665",
"U  c #187A66",
"Y  c #266B6B",
"T  c #5A4C49",
"R  c #685441",
"E  c #795A47",
"W  c #7A6645",
"Q  c #73634B",
"!  c #7F6451",
"~  c #724B64",
"^  c #835832",
"/  c #8C5E35",
"(  c #956438",
")  c #976539",
"_  c #9E6A3C",
"`  c #A46E3E",
"'  c #A6703F",
"]  c #875B46",
"[  c #945F46",
"{  c #886449",
"}  c #96644C",
"|  c #8D7446",
" . c #886854",
".. c #996A53",
"X. c #8A7158",
"o. c #9B745B",
"O. c #A76C4D",
"+. c #A77040",
"@. c #A97140",
"#. c #A76E53",
"$. c #A7785A",
"%. c #B67858",
"&. c #BE7A5A",
"*. c #9A7761",
"=. c #A97D63",
"-. c #B57E62",
";. c #C27C57",
":. c #C27D5B",
">. c #34974A",
",. c #25975D",
"<. c #3CB95A",
"1. c #158A68",
"2. c #188868",
"3. c #2B9466",
"4. c #27A062",
"5. c #28A163",
"6. c #519559",
"7. c #4BB95A",
"8. c #4A946F",
"9. c #6E996A",
"0. c #68BA66",
"q. c #46C657",
"w. c #43C259",
"e. c #4EC65A",
"r. c #6BC668",
"t. c #909C5A",
"y. c #B68855",
"u. c #B09056",
"i. c #9D8967",
"p. c #8E9A67",
"a. c #A88468",
"s. c #B98667",
"d. c #B68A6A",
"f. c #B88F74",
"g. c #AD9772",
"h. c #B79976",
"j. c #B3A273",
"k. c #C6825E",
"l. c #C9845E",
"z. c #CB895F",
"x. c #C68464",
"c. c #C58766",
"v. c #C98664",
"b. c #CC8A64",
"n. c #C88768",
"m. c #C48A6B",
"M. c #CB8B6B",
"N. c #CC8F6A",
"B. c #C9926C",
"V. c #D69466",
"C. c #D4946B",
"Z. c #D7986B",
"A. c #DB9C6E",
"S. c #C69574",
"D. c #CE9272",
"F. c #CA9B7A",
"G. c #D19473",
"H. c #D49976",
"J. c #DB9D74",
"K. c #D49A7A",
"L. c #D99F7C",
"P. c #CAAA67",
"I. c #D7A277",
"U. c #D6AE70",
"Y. c #D6A27D",
"T. c #DBA27D",
"R. c #E3A673",
"E. c #E5A978",
"W. c #E6AC7D",
"Q. c #99C16C",
"!. c #A7CF7D",
"~. c #3F3E80",
"^. c #403F82",
"/. c #5C3687",
"(. c #5F3C91",
"). c #613888",
"_. c #663B93",
"`. c #683C96",
"'. c #693D99",
"]. c #57478A",
"[. c #5E4D96",
"{. c #6D52A8",
"}. c #7762BE",
"|. c #7F5EC4",
" X c #7B65C6",
".X c #7E69CD",
"XX c #856AC8",
"oX c #846CD2",
"OX c #8B72DE",
"+X c #8D74E2",
"@X c #9076E7",
"#X c #82B488",
"$X c #C79E82",
"%X c #CDAF85",
"&X c #D3A687",
"*X c #DDA583",
"=X c #DEA885",
"-X c #DEA989",
";X c #E5AD84",
":X c #E8AF81",
">X c #E2AD8C",
",X c #E7B086",
"<X c #E8B084",
"1X c #E6B18C",
"2X c #E9B48D",
"3X c #E5B393",
"4X c #E8B795",
"5X c #E9B896",
"6X c #EABA99",
"7X c #ABD282",
"8X c #D2D098",
"9X c #ECCD97",
"0X c #EED19E",
"qX c #EFD5A1",
"wX c #F4D6A1",
"eX c #FEDCA5",
"rX c #FFDFA8",
"tX c #FFE5AC",
/* pixels */
"5X4X4X4X4X4X3Xx.4X4X4X4X6X4X4X4X4X4X6XD.L.6X4X4X4X4X4X4X4X4X6X3Xn.4X4X4X4X4X6X6X4X4X4X6XG.*X4X4X4X4X",
",X,X3X6X6X2X>Xn.4X5X6X6X3X,X1X4X6X4X4XG.Y.5X6X4X6X,X:X4X6X6X1X>Xc.6X4X6X6X3X,X;X4X6X4X2XG.*X4X4X6X4X",
"l.l.n.n.n.n.n.&.b.n.n.M.v.k.l.M.n.n.n.:.c.M.M.n.m.l.l.n.M.n.n.n.&.n.n.M.n.n.l.x.n.n.n.n.:.:.M.n.M.n.",
"=X=X-X*Xx.*X=X=X=X=X=X*X*XY.F.F.%.m.S.F.K.T.=X=X=X=X=X-X*Xx.T.S.F.S.S.S.Y.*X;X=X>Xn.G.;X-X*X;X*X-X*X",
":X>X4X;Xv.:X:XE.W.W.<X<X=X=.T f 9 e t d { I.<X<X:XW.2X6X=Xx.s.f w e a j $.;X;X5X5XM.J.,XW.E.:X:X:X>X",
"D.D.D.l.;.D.C.v.M.C.G.M...s : : : ; ; & 2 ] s.D.G.D.D.C.:.[ j 6 % 5 % 5 a ..M.D.M.;.n.G.V.z.C.D.D.D.",
"V.V.J.*X*XL.L.L.V.V.V.O.9 y P U U P L L v , { @.%.V.V.I.S.j 5 / ) ( ( / 6 e y.C.T.T.*XL.L.A.V.Z.;.b.",
"W.W.W.:X:X:X:X:XW.E.I.#.8 ; Y 2.U Y L Y v X $ 1 f s.E.W.F.a % ) @.' ' ` 6 8 B.W.W.<X:X:X:XW.W.W.b.A.",
"H.H.H.K.K.K.K.K.G.K.G.O.8 > P 2.Y 3.3.>.p p u u i z =.K.s.e % ( ' ` ` _ 6 7 -.K.K.K.H.H.G.K.H.J.:.M.",
"K.n.:.H.K.K.C.G.K.K.C.%.3 y 3.8.8.8.0.r.7.>.>.>.u @ l :.m.e % ( ' ` ` ^ q j s.;.C.K.H.H.G.K.K.G.C.H.",
":XV.L.5X4X,X2X6X5X5X2X$Xs T %X8X8X8X8X8Xt.2 @ @ @ X E G.&Xd % ( ' ` ^ 6 R S.T.x.2X3X5X;X5X5X5X4X3X4X",
"*Xn.M.A.V.G.*XL.V.V.C.s.3 Q qXrXrXrXeXeXi.# q E R E ..n.c.q % ( ' ' ^ o E F.L.:.H.V.V.L.L.J.C.C.J.*X",
"G.G.G.G.G.G.G.:.G.G.G.-.7 Q 0XrXrXeXeXeXi.< } S.D.M.D.s.} e w ) +.+.^ + R M.G.G.G.G.G.G.:.n.D.G.G.G.",
"5X4X6X6X6X4X3Xn.5X5X6X$Xr Q 0XrXeXeXeXrXi.3 a.6X6X6X4Xf.0 a ( ` +._ h 1  .3X4X6X6X6X6X6XG.*X6X6X5X5X",
"J.A.E.-X>XL.L.:.-X>X-Xf.9 Q 0XrXeXeXeXeXi.1 *.-X=XJ.A.$.# g ' ' _ h e ] S.L.J.J.;X>X>XL.M.G.>X=X>X>X",
"n.M.M.n.&.M.M.M.M.M.n.%.8 Q 0XrXeXeXeXrXi.1 } M.M.n.M.} o g ` ' ` w + ..M.M.M.n.n.:.v.M.M.M.M.M.M.M.",
"<X2X6X-Xv.<X<X<X;XI.B.o.3 Q 9XeXeXeXeXwXi.3 X.*X;X;X1Xa.$ g ` ` ` q % d.W.<X;X4X6XM.T.:X:X:X:X;X;X:X",
"=X>X1XJ.k.=XT.A.B.W 3 # X z U.0XeXeXwX9Xp.K 2 X.K.;X>X*.$ g ` ` ` q % d.;X;X;X>X;Xk.K.;XE.A.;X=X>X;X",
"k.k.v.c.c.c.} k f i : u u 6.Q.!.7X7X!.Q.0.,.u 2 x %.} g w ^ ` ) g w h %.&.k.k.x.n.n.n.n.n.x.k.l.;.:.",
"R.R.W.<X=Xd.T @ @ H 1.>.<.7.e.e.e.e.e.7.q.w.4.u 1 $.x % ^ ` ' / % j M.A.k.R.R.R.;X;X,X;X;XE.R.E.l.V.",
",X;X;X=Xd.s y H H J 4.<.q.q.q.q.q.q.q.q.q.q.w.p $ s.l $ / ' ' / $ k *X;X:.>X,X>X;X;X;X;X>X;X;X;XM.J.",
"c.x.&.} 0 y J 1.1.1.5.w.q.q.q.q.q.q.q.q.q.q.q.p $ } a + / ' ' ( + e -.:.:.M.:.:.x.c.n.n.x.x.c.x.:.:.",
",XN.N. .; 6.3.1.1.1.5.w.q.q.q.w.q.q.q.q.q.q.<.p s  .8 $ / @.( h e X.-X;X<X3X;X:.;X4X3X;X;X4X4X>XW.3X",
"1XC.f.E s $X#X2.2.U ,.<.w.w.w.w.w.7.w.w.w.<.5.9.t.a X % ( @.g % o.L.;X:X4X3X;Xn.>X:X;X;X6X;X;X;X1X6X",
"n.%.k R h.9X8X9.y : u ,.4.4.4.4.4.4.4.,.4.4.2.9.u.| c ( _ ` g o ] :.:.:.M.n.:.:.v.:.:.:.n.:.:.:.:.M.",
"3XS.0 Q 0XtX%Xo.f O : U 1.1.1.1.1.1.1.1.1.1.2.9.P.U.P.P.u.u.z $ [ >X3X3X3X>X2X3X1X3X6X3XG.K.3X>X3X1X",
">XS.0 Q 0XwXX.0 a.s : J 1.1.1.1.1.2.1.1.2.1.1.8.u.u.P.P.P.P.c % [ 3X6X4X6X2X,X1X6X6X5X2XG.*X6X6X6X6X",
"k.O.8 Q wX0XQ 7 ..e : J 1.1.1.1.1.1.1.1.1.1.U K 2 6 | P.P.P.c $ ] M.n.n.M.v.:.v.M.M.M.n.:.:.M.n.n.M.",
"d.! Q h.wXqXQ 0 a.a : U 1.1.1.1.1.1.1.1.1.1.I >     h u.u.) z Q M.;X*X;X*X*X*X>X>X:.L.;X;X;X*X*X;X*X",
"X.0 g.wXwX%XQ z s.f ; H U I U I I I I I I P L v     w ' ' 6 a j.E.W.;X;X:X:X;X6X3XM.J.:XW.E.:X:X;X;X",
"E % j.tX%XR l %.-.e & b n n n n n n n n n n n ;     q _ / 5 a s.b.b.G.M.G.M.M.G.M.;.M.G.n.l.C.G.M.G.",
"x 1 h.tX%X3 E H.y.8 X N B N N N N N N N B B B &     o 6 6 j o.J.L.V.V.V.;.V.V.V.*XK.*X*X*XA.V.V.:.l.",
"{ 3 j.tX%X3 ! H.$.T V C ^.^.^.^.~.~.^.~.C C S N &   O 7 e =.W.:X:XW.W.R.:.:XW.:X:X:X:X:X:X:XW.W.M.A.",
"E 1 i.0Xh.0 E $.r G  X.X.X.X.X.X.X.X.X.X{.'././.S * t -.s.D.H.K.H.G.K.G.:.K.H.K.G.K.H.K.G.H.H.H.:.M.",
"E O 0 R R  .y..., ].@X+X+X+X@X@X+X+XOX|.{.'.`.'.F * j :.H.K.G.C.K.H.K.C.V.H.G.;.C.H.K.H.C.K.K.H.b.J.",
"a.a 0 s E F.3Xa., ].+X+XOX@X.X[.].].].(.'.`._.`.F * x F.5X4X1X2X5X5X3X2X4X2X;Xx.4X4X5X:X5X5X5X4X3X6X",
"H.&.s.y.v.G.S. .4 [.+X+XOXoX{.M - O * S _._._.`.F * k m.Z.C.H.*XL.V.C.C.*XK.H.:.K.V.C.K.*XA.C.C.K.*X",
"D.D.G.G.G.M.E Z [. XOXOXOX[.Z E ..R X S _._._._.F * l m.G.G.G.C.:.G.G.G.G.G.G.G.G.G.G.G.:.n.G.G.D.D.",
"6X5X5X5X6X>XR m  X@XOX+XOXG 3 h.4X=.+ V _._._.`.F * ! 3X5X4X6X3Xx.6X6X4X6X5X5X5X6X6X6X6XG.*X6X6X4X6X",
"J.A.T.>X-XG.j m  X+XOXOXOXG < d.>X=.= V `.`._.`.F * E K.>X-XL.L.:.>X-X-X-XL.A.J.*X>X;XL.n.G.*X>X;X>X",
"M.M.M.c.;.s.w m }.+XOXOXoXG 4 #.:.} , V _._._.`.F * k m.n.;.M.M.M.M.M.M.M.M.M.M.M.:.n.M.M.M.M.M.M.M.",
",X2X6X-Xn.*Xl m }.+X+X.X].T *.&XD.c. .Z S ).`.`.F * ! 3X>Xn.;X:X:X,X,X:X<X:X:X6X6XM.J.:X:X:X<X<X;X:X",
"=X>X1XJ.&.=.T D  X+X+X}.m R $X>Xv.K.F.e - /._.`.F * E -XJ.:.>X;XJ.R.,X,X>X>X>X1X>X:.L.>XE.R.;X>X,X>X",
"k.k.x.c.#.r D  XOXOX+X}.m w &.c.:.x.-.9 - /.`.`.F * k :.n.c.n.n.n.:.:.:.;.:.:.:.:.M.n.M.n.:.:.:.;.:.",
"R.R.W.,Xd.< G +X+XOXOX}.m j A.,X;X;XK.a - /.`.`.F * x T.;X;X;X1X:XR.R.A.v.E.R.E.:X:X<X<X<XE.R.R.l.V.",
",X;X>X;Xs.< G +X+XOX@XXXm k Y.,X>X>XF.d - /.`.`.F * ! ;X;X>X;X;X,X>X>XE.:.1X<X<X,X>X>X<X>X;X,X<XM.J.",
"c.x.k.c..., D XXXXXXXX{.M j %.x.:.M.-.9 - F _.).S * w #.:.n.x.x.n.:.:.:.:.:.:.:.:.n.:.n.n.:.:.n.:.:.",
";XN.C.3Xf.1 8 ~ ~ ~ A M  .S.&.;X4X3XG.t . 4 4 4 r O + j &X4X>X:X4X6X6X<X>X2X,X:.>X6X3X>X1X4X4X3X;X1X",
"1XC.*X>Xs.$ $ t t t 5 O =.;X:.3X;X;XK.e . O + + + + . 7 S.;X;X5X3X;X:X:X6X4X;X:.3X:X;X1X6X1X:X:X3X5X",
":.:.:.:.[ + + t t t 7 O ] :.&.:.;.:.%.9 . + + + + + . < O.;.:.:.:.:.;.:.:.:.:.:.:.:.:.:.:.:.;.:.v.:."
};
