/* XPM */
static char *result[] = {
/* columns rows colors chars-per-pixel */
"50 50 219 2 ",
"   c #160D0A",
".  c #0E100A",
"X  c #1B1717",
"o  c #22180E",
"O  c #281B16",
"+  c #311C17",
"@  c #341E19",
"#  c #18251B",
"$  c #112919",
"%  c #2C2417",
"&  c #32241B",
"*  c #372719",
"=  c #3C331F",
"-  c #171B3F",
";  c #271A23",
":  c #2C1B34",
">  c #162226",
",  c #122E2E",
"<  c #0A3327",
"1  c #282724",
"2  c #382926",
"3  c #3C3425",
"4  c #2A2236",
"5  c #3B2636",
"6  c #273C35",
"7  c #40291D",
"8  c #4D331D",
"9  c #422C21",
"0  c #473427",
"q  c #583A25",
"w  c #533C2D",
"e  c #442B3B",
"r  c #4F3B31",
"t  c #683C32",
"y  c #19502E",
"u  c #246531",
"i  c #5A452D",
"p  c #464333",
"a  c #584433",
"s  c #495E38",
"d  c #654527",
"f  c #744E2C",
"g  c #79522F",
"h  c #694837",
"j  c #744D39",
"k  c #695438",
"l  c #7B5438",
"z  c #716F3D",
"x  c #2E1B43",
"c  c #1B3057",
"v  c #362746",
"b  c #21275A",
"n  c #362A55",
"m  c #33376C",
"M  c #473054",
"N  c #452862",
"B  c #492A69",
"V  c #4C3973",
"C  c #165850",
"Z  c #2D4F51",
"A  c #0E614A",
"S  c #116C52",
"D  c #167252",
"F  c #37775C",
"G  c #294161",
"H  c #265863",
"J  c #1B6260",
"K  c #197A67",
"L  c #2D6E6C",
"P  c #595154",
"I  c #684F44",
"U  c #795946",
"Y  c #43745F",
"T  c #7F6647",
"R  c #766C54",
"E  c #4A476D",
"W  c #724C64",
"Q  c #736A6D",
"!  c #815631",
"~  c #87593B",
"^  c #966539",
"/  c #A46E3E",
"(  c #A6703F",
")  c #8B5C46",
"_  c #876648",
"`  c #966949",
"'  c #99774C",
"]  c #896956",
"[  c #926751",
"{  c #926C53",
"}  c #8F7450",
"|  c #A66A4A",
" . c #A97344",
".. c #A9795C",
"X. c #B7775A",
"o. c #BF795A",
"O. c #9D7763",
"+. c #897D7E",
"@. c #A47D61",
"#. c #B17D62",
"$. c #C27C57",
"%. c #C27D5B",
"&. c #C37F60",
"*. c #2E883E",
"=. c #338D3E",
"-. c #31914E",
";. c #35AB5F",
":. c #148C67",
">. c #1C856C",
",. c #138B6A",
"<. c #268A68",
"1. c #269F61",
"2. c #2F936F",
"3. c #36936E",
"4. c #27A162",
"5. c #31AE60",
"6. c #5A955A",
"7. c #41A957",
"8. c #548B76",
"9. c #459A75",
"0. c #678D66",
"q. c #6EBA62",
"w. c #6AA77E",
"e. c #46C657",
"r. c #42C159",
"t. c #4DC65A",
"y. c #47CA58",
"u. c #A98B57",
"i. c #B98557",
"p. c #B39359",
"a. c #B98868",
"s. c #B28B70",
"d. c #85A168",
"f. c #AEA877",
"g. c #C6825E",
"h. c #C9855E",
"j. c #C68464",
"k. c #C98664",
"l. c #CC8A64",
"z. c #C78868",
"x. c #CA8B6B",
"c. c #D28F63",
"v. c #CB916D",
"b. c #D69466",
"n. c #D4946A",
"m. c #D8976A",
"M. c #DB9C6E",
"N. c #CB8F70",
"B. c #CE9172",
"V. c #C49778",
"C. c #D19473",
"Z. c #D49976",
"A. c #DB9E75",
"S. c #D49A79",
"D. c #D99F7C",
"F. c #C8A765",
"G. c #D2B16B",
"H. c #D2AC70",
"J. c #D4A27D",
"K. c #DBA27D",
"L. c #E3A673",
"P. c #E6A976",
"I. c #E4AA7B",
"U. c #E6AC7C",
"Y. c #A1C774",
"T. c #3F3E80",
"R. c #403F82",
"E. c #5C3687",
"W. c #613885",
"Q. c #62398D",
"!. c #663B93",
"~. c #683C96",
"^. c #693D98",
"/. c #57468A",
"(. c #65479C",
"). c #6C59AD",
"_. c #725AB4",
"`. c #7762BE",
"'. c #7D67CA",
"]. c #7E69CD",
"[. c #856AC9",
"{. c #876DD6",
"}. c #8B72DE",
"|. c #8D74E2",
" X c #9176E6",
".X c #78AD82",
"XX c #8AB588",
"oX c #B2B289",
"OX c #CA9E81",
"+X c #D09E80",
"@X c #CBA683",
"#X c #D3A587",
"$X c #DCA582",
"%X c #DEA885",
"&X c #DEAA8A",
"*X c #D7B28F",
"=X c #DBBD8E",
"-X c #E5AD84",
";X c #E8AF81",
":X c #E2AE8C",
">X c #E7B086",
",X c #E8B083",
"<X c #E5B18B",
"1X c #E9B48D",
"2X c #E5B392",
"3X c #E8B795",
"4X c #E9B896",
"5X c #EABA99",
"6X c #AAD181",
"7X c #BAC490",
"8X c #D4CE9C",
"9X c #D2D198",
"0X c #EDCA93",
"qX c #E9C895",
"wX c #ECD7A2",
"eX c #F4DBA5",
"rX c #FEDBA5",
"tX c #FFDEA8",
"yX c #FFE0A9",
/* pixels */
"4X3X3X3X3X3X2Xj.3X3X3X3X3X3X3X3X3X3X5XC.D.5X3X3X3X3X3X3X3X3X3X2X&.3X3X3X3X5X5X3X3X3X3X5XB.$X3X3X3X3X",
">X>X2X3X3X3X:Xz.4X4X3X5X2X>X<X3X3X3X2XS.J.5X3X5X5X>X;X3X3X5X2X:Xz.3X5X3X5X2X>X>X5X3X3X2XB.$X5X3X5X3X",
"h.h.z.x.x.j.z.%.v.x.x.x.k.h.k.x.x.x.k.g.j.v.x.x.x.g.h.z.x.x.k.k.o.z.x.z.x.&.k.%.x.z.k.k.&.&.x.k.x.x.",
"%X%X:XD.&.$X$X-X$X$X$X$X%X$X%XS.X.a.V.V.C.V.J.$X%X%X%X&X$X&.%X-X$X-X$X-X:X$X-X:X:Xk.Z.-X$X-X$X-X$X$X",
";X1X5X-Xk.;X;XP.U.,XU.,X,X,X@XU 0 w a a w k s.,X;X;X1X3X%Xj.;X;XP.U.;X;X;X;X;X4X5Xz.A.>XU.P.;X;X;X>X",
"B.B.B.%.%.B.B.l.c.B.B.B.N.@.I 6 < < < , > 4 h ..B.B.B.B.h.o.B.B.k.c.B.B.B.B.B.B.l.%.k.C.c.k.B.B.B.B.",
"b.b.A.$X$XD.D.D.b.b.b.$.b.l % A K D K J H G > q | i.k.A.D.$XD.$XD.b.m.c.$.m.n.b.$X$XD.D.$Xn.b.m.%.l.",
"U.U.;X;X;X;X;XU.U.P.K.h.I.U # H >.>.L H H H > X 2 w ' K.;X;X;X;XU.U.U.L.j.U.U.U.;X;X;X;X;X;XU.U.l.M.",
"Z.S.S.Z.Z.Z.Z.Z.Z.Z.B.o.B.I > C K K K K 3.-.u u y y p ] N.C.S.C.Z.Z.Z.B.%.Z.Z.Z.Z.Z.Z.S.S.Z.Z.Z.&.x.",
"S.k.%.Z.S.S.n.Z.S.S.n.C.B.k # F 9.9.9.q.q.q.7.=.*.S < 7 a.Z.S.C.S.S.S.n.B.S.Z.%.B.S.S.Z.n.S.S.Z.c.Z.",
";Xn.D.4X3X>X1X5X3X3X1X4X&XT 6 f.9X9X9X9X9X9Xs $ $ $ . & s.*X$X%X3X3X3X1X3X1XU.j.3X1X3X;X5X4X5X2X2X5X",
"D.x.x.M.b.Z.$XD.b.m.m.D.C.U 3 @XyXtXrXrXeX=Xp * h o . . a d a U a.b.b.C.D.D.S.%.Z.m.n.D.+XM.n.n.Z.$X",
"C.B.B.Z.B.B.x.%.x...[ { [ w 3 H.tXrXrXrXyX=Xp 0 l 8 * = 0 = % 7 j #.x.C.C.C.C.C.B.C.C.C.&.k.C.C.C.C.",
"4X3X&X#X#X#X#XX.OXI & & & o p @XtXtXrXrXtX=Xi X 7 g u.p.u.^ ^ g 9 R :X5X5X5X5X5X5X5X5X5XC.$X5X5X5X5X",
"M.k.U r a w w 0 a i d d d q ~ 1XrXrXrXrXtX0X` d f ^ p.F.p.( ( ^ & h +X:X$XD.M.A.$X:X-XA.x.B.:X$X-X-X",
"X.U q * * = * 7 8 g / /  ./ i.0XtXrXrXrXtX0Xp.( ^ g ( F.i.g d q o t &.x.x.x.x.x.x.&.k.x.x.x.x.x.x.x.",
"{ = f ^ ^ ^ ^ ^ ^ ^ ( ( / ^ u.qXrXrXrXrXyX0Xu.' g % z F.F.k o . o T K.,X,X-X,X3X5Xx.K.,X;X;X;X-X-X-X",
"_ & f ( / / / ( ( ( ^ ( ^ R 6.H.0XrXrXrXwXG.0.Y Z # k F.F.u.i o j z.$X-X-X%X:X&X-Xh.S.-XP.M.-X:X-X-X",
"j O f  ./ ( / / ( ( ! f z 7.;.q.Y.6XY.6XY.d.7.:.J 6 p } F.G.z * ) h.&.&.o.h.g.h.z.z.z.z.z.j.%.h.%.%.",
"| 0 d ! ! ! ! ! ! ! 8 % =.t.e.e.t.t.t.t.t.t.t.5.<.H 6 a p.G.z = ..L.P.M.g.L.L.L.-X,X-X-X;XP.P.L.k.m.",
"J.u.r + & + % + * %   . =.y.e.e.y.y.r.e.e.e.e.r.7.L R u.G.G.z * @.:X<X-X&.1X>X>X-X-X-X:X-X-X;X<Xl.A.",
"z.X.) h h h h f h j 8 $ =.y.e.e.e.y.y.y.e.e.y.y.7.3.0.F.G.G._ * ) &.&.&.&.&.&.%.j.z.z.j.j.j.z.j.$.&.",
"-XB.x.:X*X:XK.&X2X=X_ % *.y.y.y.e.e.e.y.y.y.r.r.;.Z P u.u.' k k N.2X2X-X>X1X:X%.-X3X2X-X<X2X3X:X;X:X",
">Xn.S.-X,XU.3X2X-X,X} # -.r.r.r.r.r.7.y.r.r.r.5.D , X % % * k s.:X-X-X-X3X1X;X&.:X-X-X-X3X<X-XU.<X5X",
"z.j.%.j.g.j.z.%.%.%.~ # D ;.4.4.1.:.1.1.1.1.1.,.S $ 9 U U j ` &.&.&.&.&.k.x.&.&.&.&.&.&.&.%.&.&.&.k.",
"2X:X2X:X:X2X:Xj.:X:X] > A ,.2.8.w..X.X2.,.,.,.,.S $ U &X:X:X:X:X&.:X1X2X2X<X2X2X2X:X3X3XC.S.2X:X:X2X",
"-X-X3X4X5X1X<Xj.4X3XO.# A ,.3.7XwX8X8X.X2.2.,.,.S $ U :X5X5X2X:X&.5X4X4X4X1X>X>X5X4X5X1XZ.D.5X5X5X5X",
"k.h.z.x.x.k.j.%.x.j.U # A ,.9.9XyXyXeX8X9XXX.X,.S $ h &.x.x.k.k.%.x.x.x.x.&.&.l.x.l.k.l.&.&.x.z.x.x.",
"$X:X:XD.&.-X$X-X$X$X] # S ,.2..XXX7XeXyXyXwXoX.X0.1 U #X$X&.-X-X:X$X$X$X$X$X$X:X:Xz.S.-X-X$X$X-X$X-X",
";X<X3X-Xk.;X-XL.I.-X} # C K K K K 8.oX*XqXrXeXeXoX0 _ 2X$X&.;X-XP.U.;X;X;X;X;X4X4Xl.A.;XP.P.;X-X-X-X",
"N.B.B.k.%.B.B.k.l.B.) X c c G c c G E E +.qXwXeXoX9 j x.&.$.B.B.l.l.B.B.C.B.B.B.&.$.z.C.x.l.n.C.N.B.",
"b.b.A.D.$XD.D.D.b.b.U . - c b b c b b c n +.+.+.Q ; j B.$X$XD.$XA.b.b.c.$.b.b.n.$X$X$X$X$Xm.b.b.$.l.",
"U.U.U.;X;X;X;X;XL.z.U v m T.T.T.R.T.T.R.R.R.m m n : M a.I.;X;X-X-XU.U.L.j.U.U.;X;X;X;X;X;XU.U.U.l.M.",
"Z.S.Z.S.Z.S.S.S.a.h M ).].].].].].].].].'.`.(.E.!.E.5 i a.Z.Z.Z.Z.Z.Z.B.%.Z.Z.Z.Z.Z.Z.S.S.Z.S.S.&.x.",
"S.k.%.D.S.S.n.Z.s.r n {.|.|.|.|.|.|. X X{._.^.!.~.!.x 2 a.S.S.n.Z.S.S.n.n.Z.Z.$.B.S.S.Z.n.D.S.Z.c.Z.",
";Xc.D.4X3X>X1X5X#Xa n [.|.|.|.|._./././.E.!.~.!.~.Q.x 9 V.3X1X1X4X3X4X2X4X1XI.j.2X3X1X,X4X4X1X3X3X5X",
"$Xx.x.Z.b.Z.$XD.i.w n '.|.|.}.`.V 4 ; X x Q.~.~.~.Q.x 2 X.b.Z.D.D.b.n.n.$XD.S.%.S.b.n.D.$XM.b.m.S.+X",
"B.B.C.B.B.B.x.%.a.w n [.|.|._.m I { _ * : W.~.~.!.Q.x 9 #.C.C.C.%.C.C.C.C.B.C.C.B.C.C.B.&.j.B.B.C.C.",
"4X4X5X5X5X5X3XX.] E /.{.}. X_.4 ] 2X:X[ M M V ^.~.Q.x 0 OX5X5X2Xj.3X5X3X3X5X5X4X5X5X5X5XB.$X5X5X3X3X",
"M.M.I.%X:XA.D.) 2 /.}.}.}. X).4 U +XD.o.) ; B ~.~.Q.n e O.+XK.A.&.%X:X%X&XD.M.A.$X:X:XA.x.N.:X:X-X:X",
"x.x.x.k.%.x.x.[ ; /.|.}.}.|.).4 h &.x.z.) ; B ~.~.Q.E.N 9 ) x.x.x.x.x.x.x.x.x.x.x.%.k.B.x.x.x.x.x.x.",
";X1X5X:Xk.;X;X@.2 /.|.|.}. X).4 k Z.;X-X] ; B ~.~.!.~.B ; l -X-X-X-X>X-X-X-X-X5X5XN.A.>X-X-X-X>X-X;X",
":X:X:XA.&.:X-X` 1 /.|.}.}.|._.4 h B.-XK._ ; B ~.!.!.~.B ; U -X$XL.L.-X-X>X:X>X<X-X&.D.-XP.M.-X:X-X:X",
"h.%.k.j.j.x.x.) ; /.|.|.}.{.).5 j j.z.z.~ ; N Q.!.!.~.B ; j z.z.&.&.h.%.$.%.&.&.&.k.k.x.k.k.%.%.$.%.",
"L.L.U.-X-X-X-X..2 /.}.|.}.).M T N.-X-X-Xv.) e N Q.^.~.B ; [ -X-X-XL.L.M.k.P.L.L.-X-X>X>X>XP.L.L.l.b.",
"-X>X-X:X:X>X>X@.1 /. X X}.V 2 s.-X:X-X:X-Xx.e x Q.^.^.B ; ] %X:X>X>X-X-X&.>X-X>X-X:X-X<X>X>X-X>Xl.D.",
"k.&.%.k.&.z.k.) ; E [.[.[.V 1 ` j.k.j.&.z...@ x V W.W.N O h X.&.k.&.&.&.%.&.&.%.&.k.&.k.k.&.&.z.$.&.",
"<XB.n.3X3X<X;X@.& M W W W 5 + a.2X3X;X:X3XV.9 ; e e 5 5 O 2 ] A.3X3X3X-X-X<X:X&.-X5X3X-X<X2X3X2XU.2X",
"<Xn.S.>X-X-X3X@.+ 7 t t t @ + s.;X-X<X3X<Xx.0   @ @ + @ +   w #X3X;X;X-X3X3X;X&.<X;X-X>X3X>X-X-X1X3X",
"&.%.%.%.$.%.j.) O 9 t t t @ + ` $.%.&.&.%.| *   @ @ @ @ +   9 ..%.%.%.$.&.&.&.%.%.$.%.&.&.%.$.$.&.&."
};
