/* XPM */
static char *result[] = {
/* columns rows colors chars-per-pixel */
"50 50 225 2 ",
"   c #140D0A",
".  c #1D140E",
"X  c #0F131A",
"o  c #1B1918",
"O  c #291A0F",
"+  c #261916",
"@  c #2C1D13",
"#  c #341E19",
"$  c #13211F",
"%  c #2B2318",
"&  c #2E2319",
"*  c #352619",
"=  c #3C2A1B",
"-  c #281A29",
";  c #2C1C35",
":  c #18272B",
">  c #0B3228",
",  c #2A2423",
"<  c #332523",
"1  c #352927",
"2  c #3A2D21",
"3  c #2F312D",
"4  c #47311D",
"5  c #49311C",
"6  c #463426",
"7  c #4D3423",
"8  c #493629",
"9  c #583B27",
"0  c #4A2E31",
"q  c #6A3D33",
"w  c #195529",
"e  c #31462E",
"r  c #2B6B36",
"t  c #5A432C",
"y  c #4C4534",
"u  c #5C4433",
"i  c #584637",
"p  c #674628",
"a  c #734D2C",
"s  c #7A522F",
"d  c #654633",
"f  c #684B3A",
"g  c #734D38",
"h  c #6F5937",
"j  c #7A5438",
"k  c #7B663F",
"l  c #361F4E",
"z  c #1D2752",
"x  c #1F3D5E",
"c  c #2F2643",
"v  c #392449",
"b  c #212759",
"n  c #22295D",
"m  c #3C2356",
"M  c #313269",
"N  c #472F54",
"B  c #4D3870",
"V  c #4A3D77",
"C  c #57327D",
"Z  c #145548",
"A  c #244C5B",
"S  c #146F54",
"D  c #3B7358",
"F  c #2F5466",
"G  c #1F6B69",
"H  c #187665",
"J  c #187967",
"K  c #276864",
"L  c #29736B",
"P  c #564746",
"I  c #634640",
"U  c #6C5647",
"Y  c #745342",
"T  c #7B5A46",
"R  c #77664C",
"E  c #7C614C",
"W  c #75734D",
"Q  c #4D4273",
"!  c #714B64",
"~  c #80542F",
"^  c #815731",
"/  c #8C5E35",
"(  c #8C613A",
")  c #956439",
"_  c #9C693B",
"`  c #A36D3E",
"'  c #A86E3E",
"]  c #A6703F",
"[  c #895D47",
"{  c #925E44",
"}  c #8B6448",
"|  c #9A654B",
" . c #8B6A54",
".. c #956C53",
"X. c #947452",
"o. c #A56D47",
"O. c #A97140",
"+. c #A87646",
"@. c #A26F54",
"#. c #A87758",
"$. c #B67858",
"%. c #BD7A5B",
"&. c #A77D62",
"*. c #B47F63",
"=. c #C27C57",
"-. c #C27D5C",
";. c #2F843E",
":. c #318859",
">. c #31AC5C",
",. c #35B25E",
"<. c #168767",
"1. c #148968",
"2. c #1B9366",
"3. c #2B8965",
"4. c #2E9367",
"5. c #27A062",
"6. c #6F9D50",
"7. c #54AC55",
"8. c #49BA57",
"9. c #4B906F",
"0. c #58A974",
"q. c #66A57D",
"w. c #3FC159",
"e. c #46C657",
"r. c #42C159",
"t. c #4BC759",
"y. c #5BC659",
"u. c #69C567",
"i. c #908950",
"p. c #A48853",
"a. c #B68457",
"s. c #B08C55",
"d. c #988463",
"f. c #AB8B6C",
"g. c #B78767",
"h. c #BB8A6B",
"j. c #BC8F73",
"k. c #B69777",
"l. c #8FA869",
"z. c #B2A96F",
"x. c #C6825E",
"c. c #C9845E",
"v. c #CE895F",
"b. c #C0985B",
"n. c #C68464",
"m. c #C98664",
"M. c #CC8A64",
"N. c #C78868",
"B. c #CA8B6B",
"V. c #D28F63",
"C. c #CD936B",
"Z. c #D69466",
"A. c #D3946B",
"S. c #D7976A",
"D. c #DB9C6E",
"F. c #CF9171",
"G. c #CB9978",
"H. c #D19473",
"J. c #D49976",
"K. c #DA9D74",
"L. c #D49A7A",
"P. c #D99F7C",
"I. c #CBA966",
"U. c #D5AA6B",
"Y. c #CCAF77",
"T. c #D6A179",
"R. c #DBA27D",
"E. c #E4A673",
"W. c #E6AA78",
"Q. c #E4AB7C",
"!. c #A1C874",
"~. c #3E3D80",
"^. c #403F81",
"/. c #5B3685",
"(. c #613885",
"). c #663B93",
"_. c #683C96",
"`. c #693D99",
"'. c #57478B",
"]. c #5D4C95",
"[. c #694E9D",
"{. c #7A6A88",
"}. c #745BB7",
"|. c #7761BE",
" X c #7C66C9",
".X c #8B71D3",
"XX c #8B72DD",
"oX c #8C73E3",
"OX c #8D74E2",
"+X c #6EAA81",
"@X c #989A86",
"#X c #B5B18B",
"$X c #CC9E81",
"%X c #CEA382",
"&X c #D4A483",
"*X c #DDA582",
"=X c #DFA885",
"-X c #DEAA8A",
";X c #D9BB8B",
":X c #DCB795",
">X c #E5AE84",
",X c #E8AF81",
"<X c #E2AD8C",
"1X c #E7B086",
"2X c #E8B083",
"3X c #E6B18B",
"4X c #E8B48D",
"5X c #E7BE8A",
"6X c #E5B493",
"7X c #E8B795",
"8X c #E9B896",
"9X c #EABA99",
"0X c #D6B6B9",
"qX c #AAD181",
"wX c #D4CE98",
"eX c #EBCB98",
"rX c #EED29E",
"tX c #F4D19C",
"yX c #EAD3A6",
"uX c #F6D6A4",
"iX c #FFDCA5",
"pX c #FFDFA8",
"aX c #FFE1A9",
"sX c #A489CF",
"dX c #CBACC1",
/* pixels */
"8X7X7X7X7X7X6Xm.7X7X7X7X9X7X9X7X7X7X9XG.L.9X7X7X7X9X9X6X7X7X7X6Xn.7X7X7X7X9X9X9X6X6X7X9XF.&X7X7X7X7X",
"1X1X6X8X8X6X<Xm.7X9X9X9X6X1X3X9X9X7X4XF.&X7X9X7X9X>X1X6X9X7X6X<XN.7X7X9X9X3X1X1X9X9X7X6XH.&X9X7X7X9X",
"c.c.N.N.m.m.m.-.M.N.B.B.m.x.x.B.N.N.m.-.n.B.B.B.B.c.c.m.B.m.m.m.%.N.B.m.B.m.c.m.B.N.m.m.-.-.N.m.B.B.",
"=X=X<X&X-.*X*X<X=X*X=XR.G.G.G.G.$.N.G.&X>X*X*X=X=X*X>X-X&X-.>X<X>X=X=X=X=X=X*X=X<Xm.L.>X>X*X<X<X*X*X",
",X3X7X>Xm.>X>XW.Q.2X2XJ.T y i P 8 8 f g.R.Q.>X1X,X,X4X7X<Xm.,X,XW.W.2X>X2XQ.2X7X6XB.P.,XQ.W.,X,X,X>X",
"F.F.F.c.-.H.F.v.M.F.g.Y e > > > > : : P o.B.F.F.F.F.F.F.-.-.F.F.M.V.F.F.H.F.F.F.M.=.N.F.M.v.A.H.F.F.",
"Z.Z.J.*X*XP.*XL.Z.Z.} , Z H J H K F A : 9 +.a.o.$.$.$.g.h.h.h.h.g.$.a.$.o.$.a.C.*X*XL.P.*XK.Z.Z.-.v.",
"Q.Q.,X>XW.>XQ.W.W.R.} o Z J 1.J F G F : o 2 8 2 4 6 8 6 8 6 6 6 6 6 6 6 = 6 t #.Q.Q.>XQ.,XQ.W.Q.M.D.",
"J.J.J.L.N.[ U Y Y Y 6 X Z J J J L 4.:.r w w w > 4 4 5 5 5 5 5 5 5 5 5 5 5 5 7 d Y g Y @.F.J.L.L.-.B.",
"L.m.-.J.&.2 . @ @ # O % K +X4.9.0.u.y.y.7.7.:.W ) _ _ ) ) _ ) _ _ ) _ ) _ _ ) 7 & @ * d #.G.L.S.Z.J.",
",XA.P.9Xj.2 4 j ^ ^ s } z.wXwXwXwXwXwXb.i._ X.} O.] ] ] ] ] ] ] ` O.` O.O.` ` / ^ ^ ^ t i k.4X7X4X9X",
"*Xm.B.D.+.* 9 O.' ] ' a.5XpXiXiXaXaXtXb.] ] O.O.O.o.] ` ` ` ] ] ` ` ` ` ` ` ` O.] O.' ^ 9 f @.A.J.*X",
"H.H.H.H.*.q 9 a s a a ( ;XpXiXiXaXaXtXp.a a a a a a a ^ _ ` ` ` ` ` ` ` ` ` ` _ ` ` ` ` / 7 d #.B.H.",
"8X7X9X7X:X$XY @ % * . 2 k.aXiXiXiXaXeXk @ & & & & % % 7 / ` ` ` _ ` ` ` ` ` ` ` ` ` ` ` ` / 7 i &X9X",
"D.D.>X<X-XL.*.Y  . .i 2 z.pXiXiXtXaXtXf.[  . . . .} } g 9 ~ ` ` ` ` ` ` ` ` ` ` ` ` ` ` ` _ 5 6 j.*X",
"B.B.N.m.%.N.B.B.M.N.T = k.aXiXiXaXaXtXR.B.B.B.B.B.B.B.#.t 9 s _ ` ` ` ` ` ` ` ` ` ` ` ` O._ a 5 [ &.",
">X4X9X<Xn.>X1X1XQ.U.E * f.iXpXiXiXtXtX;XR.R.>X>X,X>X4X6Xj.7 4 ) ` ` ` ` ` ` ` ` ` ` ` _ ` ` _ a 4 ..",
">X<X<XK.n.>X>XD.C.E % % p.eXuXpXiXtXY.l.D q.k.<X>X>X<X<XN.7 = ) ' ` ` ` ` ` ` ` ` ` ` ] ` ] ] a #  .",
"x.x.m.N.n.N.N.#.g e w r 6.!.qXqXqX!.l.8.4.K i ) %.c.c.m.$.7 = ) ' ` ` ` _ ` ` ` ` ` ` ` ` ` ] a + g ",
"E.E.Q.>X>X>XG. .e ;.8.e.e.e.t.t.t.t.t.t.,.2.e t #.D.E.Q.G.t = ) ` ` ` ` ` ` ` ` ` ` ` ` ` ` ] a + ^ ",
">X>X>X>X<XG.T e S >.e.e.e.e.e.e.t.e.e.e.e.8.l.h u h.&XR.G.8 6 ) ` ` ` ` ` ` ` ` _ ] ` ` ` ` ] a # [ ",
"N.-.-.B.&.U e Z <.,.e.e.e.e.e.e.e.t.e.e.e.y.z.p.h u t 9 9 9 a _ ` ` ` ` ` ` ` ` ` ` ` ` ` ` ] a @ g ",
">XC.F.$XW e w <.2.>.t.e.t.e.t.t.e.t.t.e.w.8.z.I.s.i .   * s ` ` ` ` ` ` ` ` ` ` ` ` ` ` ` ] / p 9 &.",
"4XF.L. .3 Z 1.<.2.>.e.e.r.w.w.,.w.w.w.w.,.4.l.U.I.s.t = s _ ' ` ` ` _ ` ` ` ` ` ` ` ` ` ` / 9 t f.-X",
"N.-.%.f $ S 1.1.1.1.5.5.5.5.5.5.5.5.5.5.5.4.l.I.I.Y.s.) +.` ` ` ` ` ` ` ` ` ` ` ` ` ` ` ( 8 9 { *.N.",
"<X6X-XE , 9.q.q.+X4.1.1.1.1.1.1.1.1.1.1.1.4.i.s.b.I.I.I.s.+._ ` ` ` ` ` ` ] ' ' O._ s p t q &.-X6X6X",
"4X>XG.E i #XrXrXwX+X1.1.1.1.1.1.<.<.1.1.1.3.X.] s.b.I.I.b.s.] ] ` ` ] ] ) / / / / ^ 7 & 8 #.6X9X7X9X",
"c.$.d U Y.tXaXaXyX+X1.1.1.1.1.1.1.1.1.1.1.3.W _ ` +.b.I.I.I.s.] ` _ ` ) p * @ * # 4 Y [ | %.B.-.N.B.",
"&Xj.8 R rXaXpXiXuX#X0.2.1.1.1.1.1.1.1.1.<.K y 9 p p.I.I.I.U.p.p 7 9 9 9 u f I f f f *.>X>X<X*X>X*X>X",
"1X$X8 R rXaXiXiXiXuX@X3.H H J H H H H H G A : . 5 X.p.p.p.p.( e = = = 6 X.T.R.-X-Xg.K.>XQ.W.Q.,X>X>X",
"F.#.8 R rXiXiXiXiXiX#XF x x x x x x x x x b X 9 } y * 2 * = t X.o.@.#.@.g.F.H.F.B.=.N.F.M.v.A.H.F.F.",
"#.g R Y.uXiXiXiXiXiX6X@XM z b b b b b b n z X 9 +.( g T U T X.U.P.Z.Z.Z.=.Z.Z.S.P.*XP.P.P.K.Z.Z.=.m.",
"} 8 k.aXiXiXiXiXiXiXiX9X{.~.~.~.~.~.~.M M M ; 0 @.L.Q.R.>XW.>X>XQ.Q.Q.E.-.Q.Q.,X,X,X,X,X,X,XW.,XM.K.",
"T 2 z.aXiXiXiXiXiXiXiXyXsX X X X X X X[./.)./.l 0 *.L.J.J.J.H.L.L.H.L.H.-.L.J.L.J.J.J.J.J.J.H.L.-.B.",
"E 2 k.pXpXiXiXiXiXiXiXyXsX XoXoXoX.X}.`.`._.).l < &.N.c.J.J.J.A.J.J.L.A.A.J.L.=.A.L.L.J.A.J.L.J.V.L.",
"} 3 k.aXpXpXiXyX0X0X0XdXsX|.].'.'.)._.).).`.).l 1 h.V.L.8X7X4X4X9X7X7X4X7X6XW.m.6X8X4X1X8X8X8X7X4X7X",
"E * d.wX;X;XeX0XsX.XOX.X X'.; < o c /.).).).).l < *.m.F.A.A.K.P.P.Z.A.A.*XL.L.-.J.Z.Z.*X*XP.S.S.L.*X",
"T + 2 y y 8 {.sXOXXXOX X^.P |  .1 - C ).).).).l , #.H.H.F.H.F.F.-.H.H.H.H.H.H.H.H.H.H.H.-.-.H.H.H.H.",
"k.T U U i + V XXOXOXOX|.c U -X:XU - /.).).).(.l 1 k.9X9X8X7X7X6XN.7X8X9X9X7X7X8X8X9X8X9XH.P.9X8X9X9X",
"S.C.G.%X&.1 V oXOXOXOX Xc d B.$XI - C `.)._.).l 1 #.D.Q.<X<XP.P.-.<X<X*X<XP.D.D.*X<X*XR.B.F.<X<X=X=X",
"B.B.B.N.| & Q XXOXXXXX}.c d h.n.q ; C ).).).).l # @.B.B.B.-.B.B.B.B.B.F.B.B.B.B.B.-.-.F.F.B.B.B.F.B.",
",X4X9X<X| 3 V XXOXXX}.B U g.6X6X..I v C ).).).l 1 h.4X9X<Xm.,X,X1X,X,X,X1X1X,X8X9XF.R.2X,X,X1X1X>X,X",
">X<X<Xh.Y N ].XXOX.X].1 X.=X-X>X-...- B ).`.).l 1 g.3X6XK.-.<X<XD.W.>X<X>X<X1X6X=XB.*X<XW.E.=X>X>X>X",
"x.x.-.[ 3 [..XXXOXOX'.& } x.n.N.n.[ + m ).).).l # | -.N.B.-.-.B.-.-.-.-.=.-.-.-.-.-.-.B.-.-.-.-.-.-.",
"E.E.R.E ; }.OXXXOXOX'.- #.E.W.>X<X&.- m _._.(.l < $.E.>X1X1X>X,X1XE.E.D.-.W.W.W.1X>X1X1X4XW.E.E.-.D.",
"<X>XR.T 1 }.OXOXOXOX'., #.1X<X>X<X&.# m _._.).l < h.>X<X>X<X>X<X1X3X1X*X-.4X1X3X>X>X>X<X1X3X<X2XM.P.",
"N.-.x.f - [..X X.X|.Q 6 | n.-.n.-.| + l (.(.C l + [ $.-.-.B.B.-.B.-.-.-.-.-.-.-.-.-.-.B.-.-.-.B.-.-.",
">XA.C.E * N ! ! ! N N &.%X>Xx.>X6X&.# - v 0 N 1 @ 8 } F.6X7X3X>X7X7X8X1X>X7X3X-.3X9X7X>X7X7X7X4X>X6X",
"1XH.H.T + 7 q q q . 9 $X<X>X-.7X>X&.+ . # # # # + . g F.<X>X1X8X7X,X,X1X7X7X>X-.4X>X>X1X9X1X,X,X4X9X",
"n.%.%.d + 7 q q 9 + 0 $.-.-.%.-.=.{ . . # # # # + . q %.=.=.-.-.-.-.=.-.-.-.-.-.-.-.-.-.-.-.-.-.-.-."
};
