/* XPM */
static char *result[] = {
/* columns rows colors chars-per-pixel */
"50 50 217 2 ",
"   c #040707",
".  c #140D0A",
"X  c #1B130D",
"o  c #0A1818",
"O  c #161717",
"+  c #2B1B13",
"@  c #271918",
"#  c #341E19",
"$  c #122F1B",
"%  c #17281D",
"&  c #2C231A",
"*  c #342415",
"=  c #36281D",
"-  c #111B2B",
";  c #281A29",
":  c #2C1C35",
">  c #0C2B23",
",  c #162629",
"<  c #0A3629",
"1  c #103836",
"2  c #2C2023",
"3  c #332523",
"4  c #362C23",
"5  c #382B27",
"6  c #3A3527",
"7  c #292139",
"8  c #313832",
"9  c #46321E",
"0  c #49321E",
"q  c #473528",
"w  c #573B2A",
"e  c #492B31",
"r  c #573C32",
"t  c #6A3D33",
"y  c #144C35",
"u  c #2B502E",
"i  c #28703E",
"p  c #4D4128",
"a  c #554133",
"s  c #5B4433",
"d  c #5B4A32",
"f  c #574539",
"g  c #654428",
"h  c #644532",
"j  c #6B4936",
"k  c #644C3A",
"l  c #715235",
"z  c #7B553B",
"x  c #76623D",
"c  c #361F4E",
"v  c #1B3249",
"b  c #1F3D5E",
"n  c #2C2442",
"m  c #392548",
"M  c #202759",
"N  c #22295D",
"B  c #3A2555",
"V  c #323269",
"C  c #472F54",
"Z  c #4D386F",
"A  c #4B3D77",
"S  c #57327D",
"D  c #0D5742",
"F  c #155248",
"G  c #234B5B",
"H  c #16684F",
"J  c #13755A",
"K  c #14785B",
"L  c #367052",
"P  c #285466",
"I  c #2C5B70",
"U  c #1E6A67",
"Y  c #187665",
"T  c #1A7A68",
"R  c #256366",
"E  c #2E716B",
"W  c #544F49",
"Q  c #644B41",
"!  c #6B5546",
"~  c #7A5945",
"^  c #527152",
"/  c #78644A",
"(  c #7B6952",
")  c #54447B",
"_  c #714B64",
"`  c #4D6968",
"'  c #835732",
"]  c #8C5D35",
"[  c #8E6138",
"{  c #98663A",
"}  c #A56D3D",
"|  c #A6703F",
" . c #A8703F",
".. c #885D44",
"X. c #866B46",
"o. c #8D634B",
"O. c #9A694A",
"+. c #92744E",
"@. c #8D6B54",
"#. c #946952",
"$. c #9A7758",
"%. c #AA744F",
"&. c #A57757",
"*. c #B87859",
"=. c #BE7A5A",
"-. c #997963",
";. c #A77C62",
":. c #B77E62",
">. c #C27C57",
",. c #C27D5C",
"<. c #319141",
"1. c #38845D",
"2. c #36B35D",
"3. c #168466",
"4. c #178B63",
"5. c #158A68",
"6. c #2D8D68",
"7. c #229865",
"8. c #27A062",
"9. c #2EA860",
"0. c #33AB61",
"q. c #49AF58",
"w. c #499670",
"e. c #6BA867",
"r. c #46C657",
"t. c #48C957",
"y. c #43C259",
"u. c #4DC65A",
"i. c #69C367",
"p. c #AA8B55",
"a. c #B58458",
"s. c #B99A5D",
"d. c #97926A",
"f. c #B88969",
"g. c #AD906B",
"h. c #B49C76",
"j. c #B99378",
"k. c #9CB26B",
"l. c #C6825E",
"z. c #C9845E",
"x. c #CD895F",
"c. c #C68464",
"v. c #C98664",
"b. c #CD8A64",
"n. c #C88768",
"m. c #C5896B",
"M. c #CB8B6B",
"N. c #D28F63",
"B. c #CD926B",
"V. c #D69567",
"C. c #D4946A",
"Z. c #D8976A",
"A. c #DB9C6E",
"S. c #CF9171",
"D. c #C99877",
"F. c #D19473",
"G. c #D49976",
"H. c #DB9E75",
"J. c #D49A79",
"K. c #D89F7D",
"L. c #CBAA67",
"P. c #D2B16B",
"I. c #D0AB77",
"U. c #D7A27C",
"Y. c #DBA27D",
"T. c #E3A673",
"R. c #E5AA79",
"E. c #E6AC7C",
"W. c #A1C774",
"Q. c #3F3E80",
"!. c #403E81",
"~. c #5B3685",
"^. c #613885",
"/. c #663B93",
"(. c #683C96",
"). c #693D99",
"_. c #57478B",
"`. c #5D4C95",
"'. c #694E9D",
"]. c #6C57AC",
"[. c #745AB5",
"{. c #7661BD",
"}. c #7B64C4",
"|. c #7D69CD",
" X c #876CCF",
".X c #8B72DD",
"XX c #8D74E2",
"oX c #9176E6",
"OX c #D29F81",
"+X c #CBAB84",
"@X c #D2A587",
"#X c #DCA582",
"$X c #DEA885",
"%X c #DDAA8A",
"&X c #D5B488",
"*X c #E5AD84",
"=X c #E8AF81",
"-X c #E2AE8C",
";X c #E7B086",
":X c #E8B083",
">X c #E6B18C",
",X c #E9B48D",
"<X c #E5B393",
"1X c #E8B795",
"2X c #E9B896",
"3X c #EABA99",
"4X c #AAD181",
"5X c #B6C091",
"6X c #D2CE96",
"7X c #E6C897",
"8X c #F1CF96",
"9X c #EFD4A0",
"0X c #F4D7A2",
"qX c #FEDCA5",
"wX c #FFDEA8",
"eX c #FFE2AA",
"rX c #FFE9AF",
/* pixels */
"2X1X1X1X1X1X<Xc.1X1X1X1X1X1X1X1X1X1X3XS.K.1X1X1X3X1X1X1X1X1X1X<Xn.3X1X1X1X1X1X3X1X1X1X3XF.#X3X1X1X1X",
";X;X<X1X3X<X-Xn.2X2X2X3X<X;X,X3X3X1X1XF.K.1X1X1X1X>X=X1X1X3X<X-X,.1X3X3X1X<X=X>X1X3X1X,XF.OX3X1X1X3X",
"z.z.n.M.n.c.n.,.M.M.M.M.v.z.v.M.M.M.v.,.c.M.M.M.M.z.l.M.M.n.n.n.,.n.M.n.M.,.v.,.n.n.n.n.=.,.n.n.M.M.",
"$X$X-XK.c.*X#X$XY.$X$XY.D.D.D.D.*.f.D.#X*X#X#X#X$X$X$X%XK.c.#X*X#X#X-X*X-X#X*X-X-Xn.G.*X-X#X*X*X#X#X",
"=X,X3X*Xv.=X=XT.R.:X:XD.~ r a W q w k p.R.=X=X=X=XE.,X3X*Xv.=X=XR.R.=X=X=X=X=X1X1XM.H.=XE.R.=X=X=X*X",
"S.S.S.z.,.S.S.b.b.S.f.~ 8 < < < > , 7 f O.m.S.F.F.S.S.F.l.=.S.S.x.M.S.S.S.S.S.S.M.,.M.S.N.x.S.S.S.S.",
"V.V.H.OX#XK.K.K.V.V.o.2 D T T Y R P G , w %.a.*.x.V.V.H.K.OXK.#XH.V.V.N.,.Z.Z.V.Y.#XK.K.#XA.C.V.,.x.",
"E.E.=X=X=X=X=XE.E.R.o.O F 3.5.E I I P > O 6 q ' B.E.E.=X=X=X=X=X=XE.=XR.,.R.=XR.=X=X=X=X=XR.R.=Xb.H.",
"G.J.G.G.G.G.G.G.G.D...O D T 3.T 6.1.<.i u u y u ~ m.G.J.F.G.J.G.G.G.G.S.=.J.J.J.F.G.G.G.G.J.J.J.,.M.",
"J.c.z.G.J.J.C.G.G.J..., L w.6.w.q.i.i.q.<.<.H < 4 ;.n.z.J.J.J.C.H.J.J.C.C.J.J.,.C.J.J.G.C.J.J.C.C.G.",
"=XC.S.%X%X@X$X%X%X%X@.4 d.6X6X6X6X9X6X^ $ $ % o 6 f.C.J.2X2X,X,X3X2X2X,X1X>XR.,.1X1X1X:X3X2X2X1X,X1X",
"OX:.~ h h h k k h h 4 & h.eXeXqXwXeX7Xd * l z ~ #.D.n.M.Z.V.G.K.K.V.V.F.OX#XJ.,.H.V.C.K.Y.G.C.C.J.#X",
"f.o.w * * * * * * * + 0 I.eXqXqXqXeX7Xf = ..#.@.#.m.S.S.F.F.F.S.=.F.F.F.F.F.F.F.S.F.F.F.,.n.S.G.S.F.",
"-.q g ] ] ] ] ] ] ] ' } &XeXqXqXqXeX7X! X * = = f j.&X@X@X@X@X@X,.1X3X3X3X3X1X3X3X3X3X3XF.#X3X3X3X3X",
"..+ l  . . . . . .| | a.7XwXqXqXqXqX8Xp.g g g g g w w a r a r k O.-X#X-X-XK.A.H.#X-X$XK.M.F.%X%X-X*X",
"z + l  . . .} } | } } %.E.eXwXqXqXqX9Xs.} }  .| ] w 9 p p 9 * 9 j &.n.S.n.n.M.M.M.,.n.M.M.M.M.M.M.M.",
"+.q g ] ] ] ' ] +.{ +.%.E.qXqXqXqXqX8Xf.+.{ [ { { { p.s.p.| { ] 9 ~ U.;X=X*X*X2X3XM.Y.:X=X=X*X*X=X=X",
"D.$.w * * & & u L 1.1.1.k.7X0XqXqX9XI.e.E W 6 g }  .x.s.p. .| ] * j U.$X*X%X*X-X*Xc.G.*XR.A.$X*X-X*X",
"z.*.z s q . o y 4.8.9.0.e.W.4X4X4XW.k.q.7.U v 6 0 g +.L.p.l p 0 X w >.,.=.l.z.l.n.n.n.M.n.l.l.l.>.,.",
"T.T.U.D.X.8 y 3.7.2.t.t.u.u.u.u.u.u.u.r.2.7.E 1 O . x L.s.g X * = ..A.A.l.T.T.T.=X*X*X=X=XR.T.T.x.C.",
"*X-X*X@.8 D 4.7.2.y.r.r.r.y.r.r.r.r.y.r.y.2.E P v O x L.s.p p p.f.OX-X-X,.>X-X,X*X-X*X*X-X*X*X>Xn.K.",
"n.,.,.j > H 8.2.r.r.r.r.r.r.r.r.r.r.r.r.t.q.E I P F ( P.s.p q %.M.,.,.,.,.M.,.,.c.c.c.n.c.n.c.n.>.,.",
";XM.&.W y J 9.r.t.t.r.r.r.r.r.t.r.r.r.r.r.0.E I R ` d.P.s.p s G.>X<X<X*X>X,X*X,.*X1X<X*X*X<X<X>X*X,X",
";X=.r y K 4.9.y.y.r.q.y.y.y.y.y.y.y.y.y.2.7.R P ` d.L.P.s.p a @X,X*X*X;X1X,X>X,.-X=X*X*X1X>X*X*X>X1X",
"M.%.= < 3.5.4.8.7.8.8.8.8.8.7.7.8.8.8.8.7.K 1 - 8 s.P.P.s.p q a.,.,.n.,.n.n.,.,.n.,.,.n.,.,.,.,.,.n.",
"-Xj.q y 3.5.5.3.D J 5.5.5.5.5.5.5.5.5.5.5.J > & s / / X.x l @.@X,.<X<X<X>X>X>X,X>X>X<X<XF.K.<X<X<X,X",
",Xm.q y 6.6.4.D > D 5.5.5.5.5.5.5.5.5.5.5.K > k g.s = = q -.$X%Xn.1X1X3X3X2X>X,X1X3X1X,XJ.#X3X1X1X3X",
"z.%.6 W 5X5X^ o o D 5.5.5.5.5.5.5.5.5.5.5.J > s *.O...o.#.*.v.n.=.n.M.n.M.,.,.b.M.n.M.n.,.,.n.n.n.M.",
"f.( / h.wX0X/     D 5.5.5.5.5.5.5.5.5.5.5.U > k J.$X$X%X#Xc.#X#X*X#X*X#X-X#X#X*X-Xn.J.*X*X#X#X*X#X*X",
"@.q h.0XeX0X/     F T T Y Y Y Y Y Y Y Y U G - j U.=X,X3X$Xv.E.:XT.E.*X=X=X=X=X2X1XM.H.*XE.T.*X=X*X*X",
"~ 5 h.wXeX7X/ .   - b b b b b b b b G b N M O h m.S.S.S.v.=.S.S.x.b.S.S.M.S.S.S.M.>.n.S.n.x.S.S.S.S.",
"' 4 h.eX6X$.~ a O - M M M M M M M M M M M M O w a.V.V.H.Y.U.#XU.J.C.Z.N.>.Z.Z.V.K.#XK.#X#XA.V.Z.>.x.",
"o.6 h.eX+Xu h / C V I !.!.Q.Q.Q.Q.Q.Q.V V V n e &.H.R.=X*X=X=X*X=XR.=XH.,.=X=XE.=X=X*X=X=XE.E.E.M.H.",
"~ 5 h.eX+X6 . m ].}.}. X X X|.|.|.|.{.'.~./.~.c e ;.G.G.G.G.G.G.G.G.J.S.,.J.J.J.J.J.G.J.G.G.J.J.,.M.",
"..4 h.eX+X4   n {.oXoX.XXX.XXXXXoX.X[.).).)./.c 3 ;.,.v.H.J.G.C.H.J.J.C.C.J.J.,.C.J.J.G.C.K.J.F.N.J.",
"X.6 h.rX+X=   n {.oX.XoX.X{.`.~.~././././.)./.c 5 f.C.K.2X1X,X,X1X2X2X,X1X,XR.,.,X1X1X=X2X2X2X,X,X1X",
"@.q g.6Xg.2   B }.XX.X.X}.) 5 2 O n ~././././.c 3 ;.n.S.Z.C.H.K.K.V.C.C.#XOXK.,.J.V.V.OX#XA.C.C.J.#X",
"f.#.f a 6 O B ]..X.X.X|.Z C #.@.5 ; S /./././.c 3 &.S.S.F.S.F.S.,.S.F.S.S.S.S.S.F.S.F.F.,.n.S.S.S.F.",
"1X%X@.! a ; A .X.X.XXX{.n ! %X%X! ; ~.(./.(.~.c 5 j.3X1X3X1X3X<Xn.3X3X3X3X1X1X1X3X3X3X3XF.OX3X3X3X3X",
"H.Z.K.OX;.3 A .XXX.XXX}.n h B.@XQ ; S (./././.c 3 *.H.#X-X$XK.K.,.$X%X$X*X#XA.H.#X*X*XY.M.S.*X-X#X-X",
"M.M.M.m.O.2 ) .XXX.X.X{.n h c.f.t : S /./././.c # &.M.M.n.,.M.M.M.M.M.M.S.M.n.S.M.,.,.F.S.M.M.M.M.M.",
"*X,X3X-XO.4 A .XXX.X[.Z ! g.<X<X#.t m S /.(./.c 3 f.,X3X-X,.;X*X;X=X;X=X=X=X;X2X3XS.Y.;X=X=X;X;X=X=X",
"-X-X-Xm.~ C `..XXX.X_.5 $.$X-X*X,.&.: B /.(./.c 3 f.>X<XH.,.-X*XH.T.-X;X*X$X;X<X$XM.#X-XR.T.$X*X*X-X",
"l.z.,.~ 5 `. X.XXX.X_.2 ..v.,.n.,.o.; B (.(./.c ; O.n.,.S.,.S.,.n.,.,.,.,.,.,.,.,.,.,.M.,.,.,.,.>.,.",
"T.T.Y./ 7 ].oX.XXX.X_.& %.T.T.*X-X;.; B /.(.^.c # f.T.R.;X;X;X*X=XT.T.A.,.R.T.R.=X;X;X;X,XR.T.T.x.V.",
"*X*X*X~ 7 [.oXXXXXXX_.; ;.-X-X*X-X;.2 C (.(./.c 3 f.*X*X;X>X*X*X;X;X=X#X,.,X;X;X*X;X-X1X;X-X;X;XM.J.",
"n.,.=.j : '. X}. X}.) q #.c.,.v.,.o.@ c ^.^.S c ; ..=.,.,.n.n.,.n.,.,.,.,.,.M.,.,.,.,.,.,.,.,.M.,.,.",
">XC.M./ @ Q _ _ _ C C -.#X*X,.=X1X;.# @ C e C 3 + q ..S.<X1X<X=X1X1X3X;X*X<X*X,.-X3X1X;X1X1X1X,X=X1X",
",XS.G.~ @ 0 t t t X r OX>X*X,.1X;X;.@ X # # # # + X j F.-X*X;X2X1X=X=X=X1X2X*X,.1X=X=X,X1X>X=X=X,X1X",
",.>.*.j @ e t t w + 0 *.,.,.=.,.>...@ X # # # # + . t ,.>.>.,.,.,.,.,.,.,.,.,.=.,.,.,.,.,.,.,.,.,.,."
};
