/* XPM */
static char *result[] = {
/* columns rows colors chars-per-pixel */
"50 50 50 1 ",
"  c #BC7556",
". c #BF7957",
"X c #BF795A",
"o c #C27C57",
"O c #C27D5B",
"+ c #C37F60",
"@ c #C6825E",
"# c #C9855E",
"$ c #CE895F",
"% c #C68464",
"& c #C98664",
"* c #CD8A63",
"= c #C78668",
"- c #C88768",
"; c #CB8B6B",
": c #D28F63",
"> c #CE906F",
", c #D69567",
"< c #D89667",
"1 c #D4946B",
"2 c #D89769",
"3 c #D7986D",
"4 c #DC9C6E",
"5 c #CF9171",
"6 c #D19473",
"7 c #D49976",
"8 c #DB9D74",
"9 c #D59A79",
"0 c #D99F7C",
"q c #DFA06E",
"w c #DBA17D",
"e c #E3A673",
"r c #E6A976",
"t c #E0A579",
"y c #E6AC7C",
"u c #E8AE7D",
"i c #DCA583",
"p c #DFA886",
"a c #DFA989",
"s c #E5AD84",
"d c #E8AF81",
"f c #E2AD8B",
"g c #E7B086",
"h c #E8B184",
"j c #E6B18C",
"k c #E9B48D",
"l c #E5B392",
"z c #E8B795",
"x c #EAB896",
"c c #EABA99",
/* pixels */
"xxzzxxl=zzzzzxzxzzc60xzzzzxzxxzl=lczzzccllcc60czcz",
"fglxxlf=zzzxzggcxzz60xxxxjgzxxll=zczclhjcczk7wczzc",
"##&;;&&X;;;;=##;;;&+%;;;;@@&;&=%X;;-;&##;--&O@;;=;",
"ppf0%ipppiipipaa=7ppppiipppai%piswppipiaf-7ppppiai",
"djxs&ddrydddddxx&qdyrdddddkcp&hyryusshucx;qjyrusss",
"555%o5;&*555565;X;5;*;5>555>#X55$;6>>>6>;o-6;$>>>5",
",,8ii0i0,<:o,,30i00i3<<@*,,7iiwww,,1O,,3wwwwwq12O$",
"yyydddduyyt&yyyddddduuu*4uydyddduyyq#yyyuuhhuuyy*q",
"77977976995O97779779777%;9977979777>X99999776999+;",
"9=@79919991197X19961996,79&#79919991196.>997699316",
"h19xzgkczzkzkt%lzzgzxxzkxh>9xzgkcxxlzly%kxzhxxxzkc",
"w;;3,7i0<130i9O8,2ww7,29wi&;3,7iw,,1000O7,10i3,17w",
"666566;O66565666556%=55666665655X566666666>6+=6666",
"xxccccl=cxccccxcccc7icccccxccccl=zcczcczcccc7wcccc",
"44wpaw0%paaaw48appw;6aaap44wapww+aaaawqqaapw;6aaaa",
";;;;o;;;;;;;;;;;O=;;;;;;;;;;-O;;;;;;>;;;;O&;;;;;>;",
"hjcf&uggygguhgxc>qgguhhggykcf%gguhuhhuhzc;qguhhhss",
"sffq#ppqqsppaafs@9gwqpasspajq%ppqwfppfplp#wjwqpsfa",
"@@&-%;%%&@@.#@&-%=-=#@@X@@@&%%--&@@@o###&&%=-@@@oO",
"rqwgggggeeq#eeqgghggree$,eeyggghhrqq@qqysfsshree$,",
"fgssfgssgjw=ggsfssgaggg-wfgsgssfsfsw#fffsfsfsffh;7",
"-++%%%%%%%@@-%X%=%%%%%=X+=+O%%%%--&@O%%O@&%&@&=%O@",
"j>1zzjpjllwhja@allsglljyjj>,lzjpllzusjp@fzzsjlljyj",
"g>9gyhzkgggzjy%jssjzjgsjzg>wjygklupscjy%gupjzjusjz",
"-++@@%%+@@+%%%.@@+=%@@@@%-++@@%%+@@@===X%@@=%+@@%-",
"lkllfla%fllflllllll59lflflljflla%ffllfljffll>9ljfl",
"ggzxxkl%zxxxkgjxzlk6wcxxzjgzxxjj=cccclhjcczk60cccz",
"@@&;;&-.;;;;%#&;;;%++;;-;##=;;-=.;-;;%##;-;&++;;;;",
"ppaw+ppppwppppaa%9ppppppppaai@pppwpppippa&7pppiipi",
"hkca&hyryhuhyhxz;qhyruyggukcp&gyryhuuhhcc;wuyruhus",
">55#.>>*;>5>555>.->>$>>>>>5>@X>>$-6>>6>>;o-6-$;66>",
",,7wiwww,<:o<,3wwwww3<<@$<,7iiwww,,:o,,3wwwwwq<2O$",
"yyyuyuhyyyw#uyyuuuhsuyu*qyyuuhusuyyw@uuuusuuhyyu*q",
"9999969999>O79997677779+;99976979776X77997797799@;",
"9%@7w91999117w.19w66997179=@w9916w911w9 19976996:9",
"u1wxxjkxlxkxkw%kxxhcczkkxh19xxjkxxxjxkw%lzzgxxzzlc",
"w-;7,7ww,33wwwX71,ww3119ww=;717ww,11w09+711wwq119w",
"666566>X5656>666666+&6666665666>o>5666556666@-6>66",
"xzccxxl-ccccxxxxccc7wcccczzzcccj-cccccczxxcc7wcccc",
"qqwapww+ipppw7qpaiw;6apppqqippww+pppawqqapiw;6appp",
";;;=.;;;;;;;;-;;+=;;;>;>;;;;-X;;;;;>;;;;;+%;;;;;>;",
"gkca-hhhggggggxx>qshssuhgskcf&shhshushhzc>whhhhhhu",
"pflq@spqwssspslp#7swqypfpfffq%psqwfpspfjp@wswqpppf",
"@@%=%-%%@@+.@@@-&---@@@XO@@=%%--$@@@X@#&-%%-*@@@.@",
"qryggsggrqq@rqrgfshsuqq$qqrughfhuqrq@qrqhshshwer$,",
"jgsssgfsggw%gsgfsssfggj;qpfjsfssfsgw#ffhsfsffhgu;7",
"-++%%%%%%%+O-%X%--%&--%X@&+O%%%%%--@o-=O@=&%%%&&O+",
"j>1lllyllcygjp@sllsjlljyjf61lzjslllssjp@pzlsfzzjyj",
"g6wgyslzhyfljs%jysjcfuhjzg6wfyhkzusszjy%jusfzjusjc",
"%.XOo+%+ooo%%+.+oo+%ooo+%%.XOoO%@OoX%%+ +Oo%%oooO%"
};
