/* XPM */
static char *result[] = {
/* columns rows colors chars-per-pixel */
"50 50 76 1 ",
"  c #010101",
". c #0C0C0C",
"X c gray8",
"o c #1B1B1B",
"O c #232323",
"+ c #2B2B2B",
"@ c #353535",
"# c #3B3B3B",
"$ c #434343",
"% c #4B4B4B",
"& c #545454",
"* c #5C5C5C",
"= c #636363",
"- c #6C6C6C",
"; c #737373",
": c #7C7C7C",
"> c #BC7556",
", c #BF795B",
"< c #C37D57",
"1 c #C37D5A",
"2 c #C37F60",
"3 c #C6825E",
"4 c #C9845D",
"5 c #CE895F",
"6 c #C58364",
"7 c #C98764",
"8 c #CC8A64",
"9 c #C88768",
"0 c #CB8B6B",
"q c #CE906F",
"w c #D69466",
"e c #D89667",
"r c #D3936B",
"t c #D7986D",
"y c #DA9B6E",
"u c #CF9171",
"i c #D19373",
"p c #D49977",
"a c #DA9D74",
"s c #D59A7A",
"d c #D99F7C",
"f c #DBA17F",
"g c #E4A672",
"h c #E6A976",
"j c #E7AD7D",
"k c #E8AE7D",
"l c #848484",
"z c #8B8B8B",
"x c #939393",
"c c #9B9B9B",
"v c #A4A4A4",
"b c #ACACAC",
"n c #B3B3B3",
"m c #BBBBBB",
"M c #DCA582",
"N c #DFA886",
"B c #DFA989",
"V c #E5AE83",
"C c #E8AF81",
"Z c #E1AD8C",
"A c #E7B087",
"S c #E9B182",
"D c #E6B18C",
"F c #E8B48E",
"G c #E5B292",
"H c #E8B796",
"J c #E9B897",
"K c #EABA99",
"L c #C4C4C4",
"P c #CBCBCB",
"I c #D4D4D4",
"U c #DDDDDD",
"Y c #E4E4E4",
"T c #EBEBEB",
"R c #F2F2F2",
"E c #F9F9F9",
/* pixels */
"JJHHHHG9HHHHHHHHHHKp:%@+O+++@%-G9GJJHJJHHHHKuMHHHH",
"VAGKKGZ9HHHKGVDHn=#$=xnLPIIPbO .+*xKKFADKHHFuMKHHK",
"4490099<000094x$$lLTEEEEEEEY=+c*O--$-9440907120009",
"NNZd6MMNMVMZc$&bPmnbvvvvvcz%*PRTz+lPl$=ZZ6pVNVMNMB",
"CDKV4VChkSS&%bTL;vmb#.&-;:lbTRRRRn#*UU:@:0aAkhkCVV",
"uuu6<uu80x#zYRTbUET:o-TRRERRRRRRRRI*@nRL%#0i05quuu",
"wwaMMddd;&PRRRRTRT-$mTRRRRRRRRRRRRRTl+zRT;Olfyee18",
"jjjCCCk;:YRRTYYTT:+-RRRRRRRRRRRRRRRRRn+:RR:OCkjk8t",
"ppppppi:URRUx:-=;:n*TRRRRRRRRRRRRRRRRRcOIEboppss60",
"s93pssrvbRRYUYxbURT=nERRRRRRRRRRRRRRRRU@lEPOzssiwp",
"SrsJHc*@-RRRTcnRRRRP=zPYRRRRRRRRRRRRRRRz+IRn@vJHFK",
"f00tr=xvLRRRIcTRRRRRP%:ITRRRRRRTRRRRRRRY@:REz%wwad",
"iiuuilRERRRRIUERRRRRRLmRRRRRRRRRRRRTRRRRcOIRI@uuii",
"JJKKKxRRRRRPmUnnRRRTRTPcLTRRRRTmcnxxTRRRY$;RR*lKKK",
"yyhBxPRRRUx;;:;lURRRTn;;lURRRIx;-z;;vTRRRc+URv$NBB",
"0009lURRRIz;lIl;vRRRYvl:vRRRRmb;;Um;;LERRnOPEn#000",
"CFKBlURRRRP-lUx-vRRRRRc;vRRRRRI;;mL;;PRRRnOIEn@jSV",
"ZZZalYRRRY:;;z;-nRRRRRc;cRRRRI:--xcnURRREnOPRn#ZZV",
"3399lYRRRYx;:Pv;xPYRTm::zIRRRIz=;vIRRRRRRmOPEb#3,1",
"ggjVlYRRRv::;mI:;cTTzl:-:LRRU;lcllURRRRRELOLEb@g5e",
"CVZVlYRRT:vInTRIvURI-nYnIRRRYznRUYRRRRTRRLOLEb@D9s",
"9216lURRRIURRRRRRRRRITRRRRRRRTRRRRRRRRRRELOmEv#9<6",
"AqrH:xPTRRRRTRRRRRRRRRRRRRRRRRRRRRRRRRRRRPOmEv#ZjD",
"AudVCl=IRRRRRRRRRRRRRRRRRRRRRRRRRRRRRRRRRPOmEc#CDH",
"9123:UYRRRRRRTRRRRRRRRRRRRRRRRRRRTRRRRRRRIOnEz$369",
"GGGDzRRRRRRRRRRRRRRRRRRRRRRRRRRRRRRRRRRRRnOLY#zDZD",
"DVHJzRRRRRRRRRRRRRRRRRRRRRRRRRRRRRRRRRRRT$=RnOKJKH",
"4490lTRRRRRRRRRRRRRRRTRRRRRTTRRRRRRRRRRRY#=TU=;000",
"MNBdlTRRRRTRRRRRRTRRRRRRRRRRRRRRRRRRRRRREmObEm+MMN",
"SDKZlTRRRRRRRTRRRRRRTRRRRRRTRRRRRRRRRRRRRY+xRm@CSC",
"uur7lTRRRRRRRRRRRRRRRRRRRRRRRRRRTRRRRRRRRY@xEm+iuu",
"eesdlYRRRRRRRRRRRRRRRRRRRRRRRRRRRRRRRRTRRY@xEm+e<8",
"jjjClYRRRRRRRRRRRTRRRRRRTRRRRRRRRRRRRRRRRY@xEn+k9y",
"pppplURRRRRRTRRRRRRRRRRRRRRRRRRTRRRRRRTRRT@zEn+s20",
"s93szURRRRRRRRRRRRRRRRRRRRRRRRRRRRRRRRRRRT@zEn+swp",
"SwsJzIRRRRRRRRRRRRRRRRRRRRRRRRRRRRRRRRRRRY@zEn+FFK",
"f90tzIERRRRRRRRRRRRRRRRRRRRRRRRRRRRRRRRRRT@zEb+esM",
"uupuxIRRTRRRRRRTRRRRRRRRRRRRRRRRTRRRRRRRRY@zEb+iuu",
"KKKKxLRRRRRRRRRRTRRRRRRRRRRRRRRRRRRRRRTRRT#zEbOKKK",
"yyfVcLRRRRRRRRRRRRRRRRTRTRRRRRTRRRRRRRRRRY@zEv+ZNB",
"0000cLRRRRRRRRRRRRTRRRRRRRRRRRRRRRRRRRRRRT@zEbo000",
"SDKZvmRRRRTRRRRRRRRRRRRRRRRRRRRRRRRRRRRRRT#zEv.CCC",
"VlPabnERRRRRRRRTTRRRRRRRRRRRRRRYIRRRTRRRRY#lEv lZc",
"6;olznRTRRRRRRRIcRRRRRRRRRRRRRT;lRRRRRRRRT#lEv o;%",
"ggo XvTzUTRRRREm#URRRRLYRRRRRRv.=RLTRRRRRY@lEv   X",
"Vl%  vbo&mERRREx.bERRT=mRRRRELO #cOxTRREY=.lY*   .",
"0zX  :$  xUUUUU- *YYYLozTTTTI#  .. X$&-:$  =%   .l",
"D=+  X   XOOO++. .++@O o@#@@+$*#.    .     .    -D",
"Avo    o*;@    .  $;X  Xlv-@:VVHL-@&bDn:@X%D@  XFH",
"6<n$+#;P11<&. $nc:66v#$n6911<<2231<1666>1LT66&o=36"
};
