/* XPM */
static char *result[] = {
/* columns rows colors chars-per-pixel */
"50 50 255 2 ",
"   c #0A0602",
".  c #0D0A04",
"X  c #060402",
"o  c #120B04",
"O  c #170D07",
"+  c #1A1106",
"@  c #1D130B",
"#  c #161006",
"$  c #1C1A12",
"%  c #24150B",
"&  c #261A0D",
"*  c #2B1B0C",
"=  c #28170A",
"-  c #311C0E",
";  c #291C12",
":  c #331E14",
">  c #210F0A",
",  c #2D2419",
"<  c #332314",
"1  c #3B2B1C",
"2  c #372618",
"3  c #392A15",
"4  c #3C3327",
"5  c #3E2F23",
"6  c #412C1C",
"7  c #432717",
"8  c #43321E",
"9  c #4A341F",
"0  c #54321E",
"q  c #512E1C",
"w  c #442D21",
"e  c #443323",
"r  c #4C3723",
"t  c #4D3B25",
"y  c #4C3C2C",
"u  c #473828",
"i  c #533E26",
"p  c #533D2C",
"a  c #573927",
"s  c #593D31",
"d  c #4C382E",
"f  c #633E30",
"g  c #53422B",
"h  c #5A442D",
"j  c #5A4327",
"k  c #544434",
"l  c #5B4531",
"z  c #5B4938",
"x  c #4E433C",
"c  c #65452D",
"v  c #634534",
"b  c #6A4435",
"n  c #634B34",
"m  c #6A4C34",
"M  c #644C39",
"N  c #69483C",
"B  c #774B39",
"V  c #65523A",
"C  c #6C533C",
"Z  c #655036",
"A  c #73533C",
"S  c #79553C",
"D  c #5F4F42",
"F  c #6F4D43",
"G  c #6A5846",
"H  c #745B42",
"J  c #7C5B45",
"K  c #7C5C4C",
"L  c #775546",
"P  c #785D52",
"I  c #784E47",
"U  c #7D644B",
"Y  c #796249",
"T  c #7A6554",
"R  c #6F625A",
"E  c #71726F",
"W  c #845C4B",
"Q  c #8A5C4B",
"!  c #845747",
"~  c #975B54",
"^  c #8A5450",
"/  c #A05D5E",
"(  c #84634C",
")  c #8A634D",
"_  c #88664B",
"`  c #93674E",
"'  c #836354",
"]  c #8D6554",
"[  c #8D6B53",
"{  c #886A59",
"}  c #936353",
"|  c #946C54",
" . c #96645A",
".. c #9D6D5C",
"X. c #986B58",
"o. c #897256",
"O. c #94735B",
"+. c #9B745D",
"@. c #977557",
"#. c #A5695B",
"$. c #A3725D",
"%. c #A5785B",
"&. c #BF7A5B",
"*. c #BA7858",
"=. c #996C63",
"-. c #8D7265",
";. c #9D7462",
":. c #9B7C64",
">. c #9E7C69",
",. c #957968",
"<. c #897166",
"1. c #A76A65",
"2. c #A37463",
"3. c #AB7363",
"4. c #A47A64",
"5. c #AA7C65",
"6. c #AB746A",
"7. c #A47C6B",
"8. c #AB7B6A",
"9. c #A4756B",
"0. c #B27C6B",
"q. c #B67769",
"w. c #AE7D71",
"e. c #BC7E73",
"r. c #B67B75",
"t. c #B16C6B",
"y. c #C37D57",
"u. c #C27D5B",
"i. c #C17A6C",
"p. c #C17F72",
"a. c #968273",
"s. c #AB836B",
"d. c #A68268",
"f. c #B3826C",
"g. c #BB836D",
"h. c #B98867",
"j. c #A88775",
"k. c #B48473",
"l. c #BB8473",
"z. c #B48A74",
"x. c #BB8C74",
"c. c #BD8D79",
"v. c #B9877A",
"b. c #BC947A",
"n. c #B8906E",
"m. c #B5875D",
"M. c #C6825E",
"N. c #C9855E",
"B. c #CE895F",
"V. c #C68464",
"C. c #C98664",
"Z. c #CC8A64",
"A. c #C58668",
"S. c #C58A6B",
"D. c #CA8B6B",
"F. c #C88868",
"G. c #C9916B",
"H. c #D69566",
"J. c #D3946B",
"K. c #DB9C6E",
"L. c #D8976A",
"P. c #C38475",
"I. c #CD8376",
"U. c #C28B76",
"Y. c #C1877A",
"T. c #C48B7B",
"R. c #CC8B7C",
"E. c #CB8A73",
"W. c #D3897C",
"Q. c #D5877A",
"!. c #CE9172",
"~. c #C3927B",
"^. c #CC9A7D",
"/. c #C79579",
"(. c #D19474",
"). c #D59976",
"_. c #D49A7A",
"`. c #D89E7C",
"'. c #D89978",
"]. c #D28F63",
"[. c #CEA17E",
"{. c #DBA17E",
"}. c #D1A07E",
"|. c #DFA06E",
" X c #E4A673",
".X c #E6AC7C",
"XX c #E5A977",
"oX c #BB8782",
"OX c #B89483",
"+X c #A69E96",
"@X c #CA8C84",
"#X c #D88C81",
"$X c #CC9583",
"%X c #CC9B84",
"&X c #C89787",
"*X c #D39382",
"=X c #DB9383",
"-X c #D49C84",
";X c #DB9D86",
":X c #D59D8A",
">X c #DC9D8A",
",X c #D89289",
"<X c #D69990",
"1X c #E29B8B",
"2X c #E99C8C",
"3X c #E49687",
"4X c #E4988D",
"5X c #CCA287",
"6X c #DCA582",
"7X c #DFA885",
"8X c #D4A38B",
"9X c #DDA48B",
"0X c #DEAA8B",
"qX c #D5A484",
"wX c #D9AA93",
"eX c #DDB199",
"rX c #E5AD84",
"tX c #E8AF81",
"yX c #E3AC8C",
"uX c #E5A48E",
"iX c #E7B086",
"pX c #E8B083",
"aX c #E5B18B",
"sX c #E8B48E",
"dX c #E3AC92",
"fX c #EAAC94",
"gX c #E4AE9A",
"hX c #E9A896",
"jX c #F2AD9A",
"kX c #E6B493",
"lX c #E9B696",
"zX c #E9B896",
"xX c #ECB49B",
"cX c #EABA99",
"vX c #E6B59A",
"bX c #F1B99E",
"nX c #F3B59C",
"mX c #EBB6A2",
"MX c #F4B6A5",
"NX c #F3BCA2",
"BX c #F7BDAA",
"VX c #EEC2A7",
"CX c #F5C1A5",
"ZX c #F4C5AA",
"AX c #F9C4AA",
"SX c #F4CAAB",
"DX c #FACAAE",
"FX c #FAC6A7",
"GX c #FACCB4",
"HX c #F6CEB2",
"JX c #FAD2B4",
"KX c #FBD5BA",
"LX c #FBD9BC",
"PX c #F2D1B2",
"IX c #CECFCC",
/* pixels */
"zXzXlXlXzXlXkXV.zXzXzXzXzXzXzXzXzXkXvX(.`.cXlXlXlXzXzXzXzXzXvXkXA.lXlXlXlXvXzXzXvXzXzXzX(.`.zXzXzXzX",
"iXiXkXzXzXkXyXA.zXzXzXzXaXrXaXvXzXzXsX(.`.zXzXzXzXaXiXkXzXzXsXyXF.lXlXzXzXsXiXiXzXzXzXsX)._.zXzXzXvX",
"N.M.F.D.F.C.F.&.F.D.F.F.F.M.M.S.A.A.V.m.q.F.S.S.D.C.N.F.F.C.C.C.&.F.D.F.D.C.N.M.F.F.F.F.u.i.D.D.F.F.",
"7X7XyX`.V.rX6X7X6X7X7X^.s.T k y e u d y D P ' { d.~.7X0XqXV.7X7X7X6X7X7X7X7X6XyXyXA.).rXrX7X7X7X7X7X",
"tXaXzXrXC.tXtXXX.XtXn.G , $ . X   . . > P  .3...] -.j.wXyXC.iXpXXX.XpXtXtXpXtXzXzXZ.{..X.XXXtXtXpXpX",
"!.!.!.N.y.!.D.Z.D.%.u , $ . X X X . O : w.i.Q.=XuXdX&XOXx.&.!.!.Z.Z.(.J.(.D.(.(.D.y.F.(.].B.D.(.!.!.",
"H.H.'.6X6X`.6X_.@.y , = # .   X   . . > ^ >X'.6X9XnXjX<X&X&XqX`.'.L.L.].y.H.H.L.{.{.{.{.6XK.H.L.M.B.",
".X.X.XtXtXtXrXo.u 2 & # o .   X . . . % : 8.@X0.T.gXuX_.;X:X8X0XtX.X.X XM..X.X.XpXpXpX.XtX.X.X.XZ.L.",
")._.).).).(.:.g , * # # # # . # @ + + , % w F Q } +.q.S.7X;Xv.>.!._._.!.u.).).).(.).).).!._._._.V.D.",
"_.F.M.).).x.z 5 , + . # @ + + * < = % 2 5 % 2 v m m c B | %.$.F [ n._.J.J._.).*.J._._.).)._._.L.H.(.",
"pXJ.'.cXkX{ u 2 & o o @ - & 3 8 8 < - 9 N p ; a L ( ! S m S S S V U d.d.b.aXXXV.kXzXlXpXlXzXzXlXsXzX",
"`.F.!.K.h.z 5 % ; . + * 3 7 Z G V 9 p H O.{ d 1 ] +.;.+.+.;.4.@._ ( H H V @./.u.).H.L._.qXK.H.H.'.{.",
"(.(.^.^.( g & O @ . @ < 9 A O.-.( Y [ d.z.s.{ , N 8.f.8.f.f.k.s.8.4.O.' H Z C Y %.G.(.!.V.A.!.(.!.(.",
"zXzXVXb.Z < + o # o = 6 n d.z.d.+.d.z.x.U.l.k.L 6 | 0.0.h.g.z.x.z.z.5.:.o.Y n g g O.wXcX(.6XcXcXcXcX",
"K.K._.Y g , + . O @ : j @.b.OXb.x.x.c.~.T.U.v.>.a f 5.f.A.l.U.c.~.~.x.s.@.[ S l 8 g Y n.D.!.0X7X0X7X",
"D.D.+.g 3 1 @ o @ % 7 S h.[.qX[.^./.U.x.Y.Y.k.v.=.w ) f.R.^.E.U.x.~.~.x.z.+._ Y l 8 8 l o.S.S.G.D.G.",
"pX5XG 8 2 d % O = - 0 ` 5X0X7X;X-X-X^.P.g.l.0.k.I F ~ g.*X;X=X^.U.b.~.b.z.s.4.+.Y l 8 1 h d..XpXiXrX",
"aXj.g 3 - y ; + - 7 c d.dXvXuXrXaXuXuX-X$XP.v.9.^ 9.'.3X1X;XuX>X-X/.U./.b.g.z.z.@.S i 9 5 k d.rXrXrX",
"A.U e < < k 2 @ 3 i A x.vXmXlXkXjXlXaXfX>Xc.Y.6.^ #.E.uXhX2XhXuX;X^.U.~.^./.x.5.| A n i 8 1 m m.&.u.",
"[.G t 5 < y d ; 8 l ( /.VXSXVXNXbXnXnXnX9Xl.R.3.W ~ q.3XjXjXMXjXuX-XU.U././.x.5.[ S n i r 3 e m.N.L.",
"b.V g g 1 e z < t H ..%XZXPXVXSXCXbXNXNXhXl.Y.6.I ~ i.3X2XjXBXMXuX$XP.x.%...%.5.@._ m j 9 8 1 S C.).",
"m.n t g y 1 k 5 y J 4.8XHXHXSXSXFXFXCXCXxXl.c.6.N =.p.p.Q.jXMXMX>XT.f.5.| 5.~.&Xn.%.( m j 9 8 t %.M.",
"b.Z g 3 k 1 y y i J d.eXLXLXJXGXSXCXAXAXmXf.k.w.F =.r.p.3X2XMXjXW.A.l.4.| 5.&X8X5X/.s.) A c t 3 S aX",
"[.n g < 1 e u k p J s.mXLXLXLXJXJXCXFXDXAXk.1.2.^ =.r.Q.3X2XMX4XP.T.l.$.Q S 6.@X-X$X~.s.@.( z 9 g ^.",
"d.h g 1 * 1 u y n S x.ZXJXLXLXLXJXFXAXDXGX~.} ~ I  .i.Q.2X2XhXQ.Q.@Xe.+.! W 9.6.c.@Xc.x.x.8.A p 1 @.",
"b.l g g 3 ; 1 5 n ! 5XSXKXKXLXLXJXGXAXGXGX%X} Q B ~ i.Q.2X3X2XQ.@XQ.0.X.W ] v.w.t.l.e.l.T.l.) h 8 o.",
"[.z g l w 1 1 2 a Q 8XSXPXJXKXLXKXDXZXGXHX:X2.Q ^ 3.i.Q.3X3XQ.i.i.q.3.+.[ ] r.@Xt.6.r.r.T.U...v i _ ",
"m.Z g V p y y e a ` 0XCXGXJXJXJXGXGXHXZXBXwXc.} ! 3.3.p.W.4XQ.Q.i.#.$.+.O.X.7.<Xr.t.t.6.l.c.;.A j U ",
"b.Y l j Z t k r q X.yXCXDXDXGXJXGXZXZXZXBXmX8Xk.I ! f t.3X=XI.I.p.#.3.+.,.>.9.<X@Xt.1.1.0.l.6.Q Z T ",
"rXa.V g z g e e q $.rXNXAXSXSXSXHXBXBXHXZXmXgX&Xf f 1.@XW.Q.p.Q.p.#.#.+.>.OX7.&XoXt.1.1...3.2._ n o.",
"!.d.G g g p < 2 q $.0XbXCXSXSXZXVXVXVXHXZXmXgX8XK oXhX4X3X3X3X#XW.1.Q ;.j.OXw.OXp.t.=.=.|  .%.o.A o.",
"L.G.T p e k - - a 4.0XbXCXFXCXZXZXNXBXBXMXmXwX&XN 9.,X3X3X2X2X2X>Xl.Q ,.j.OXr.oXt./ 1.=...3.8.@.C U ",
".X.Xa.k 1 e 3 * h x.kXxXNXCXCXNXNXNXMXBXNXjX&X] 7 d B q.I.R.W.4XmXT.] ] >.-.=.1.~ ~ =.;.6.3.$.J M @.",
"[.).z.G 4 < < - n x.kXxXxXbXbXbXnXnXNXBXBX8X8.N N ^ ~ q.e.e.e.P.@X$.W W I f I ^ ~ / 2.;.8.$.Q C n +.",
"_.C.M.d.x , , - n x.yXkXxXnXxXxXkXxXnXMXxXk.W v P ;.8.U.l.P.q.q.1.` Q C 0 f !  ./ 2.7.4.4.! c p H n.",
"pXJ._.cXj.4 & = q d.8XyXaXkXvXaXfXfXkXjXwXX.' F P 7.5.R.R.W.P.q.5.+.) A L 1.w.k.r.7.] ! A c g U [.zX",
"{.F.D.L.H.o.4 @ - c x.8X9X9XdX9X9XdXfXxX$XQ ] z P ;.3.R.;X=XR.3.5.%._ J X.z.v.v.4.( n g c A @.]._.6X",
"(.!.(.(.!.~.-.x < * m v.%X-X>X9X>X9XwXdXl.Q ' N <.=.3.R.=X4X*Xe.2.5.4.} | 2.;.[ C j g Z | h.!.!.(.(.",
"cXcXcXcXcXzXkXg.j.D 2 s ;.c.$X:X:X:X8X:X5.} ! f K  .e.R.#X4X,XI.0.7.z.j.d.4.[ N p j o.[.).{.cXcXzXcX",
"K.K.{.0X0X{.{.V.yX5X,.z p W ;.5.f.c.$X@X+.X.I b I 6.P.R.@X,X@XY.6.+.7.5.;.' C l H s.}.{.D.(.0X0X7X0X",
"D.D.D.F.u.D.D.F.D.!.!.b.>.T T T ' { { { U L k z Y =.8.k.l.@XY.8.O.O.d.O.Y Z g Y A.q.C.D.D.D.D.D.D.D.",
"iXsXcX0XF.pXpXpXpXiXiXiXsXaXeX5Xg.b.x.:.R x 4 +X+Xa.<.{ O.,.=.' P U G l u c +.kXzXJ.`.iXpXpXpXpXrXtX",
"rXyXyXK.V.rXrXK.{.rXrXrX0X0XaX0XN._.yX7X}.a.E IXIXIX+XR { -.:.@._ o.U m @.[.rXuXrXN.'.rXXX|.rX7XrX7X",
"M.M.C.F.V.A.F.A.M.N.u.*.N.M.N.C.A.A.F.D.F.S.j.a.j.,.,.f.F.A.S.F.C.M.N.M.*.N.N.V.A.A.A.F.A.M.M.M.u.u.",
" X XtXrXrXrXrX.X X X|.M. X X XpXrXrXrXiXXX X.XZ.)..X.X.XrXrXiXrX.X X XK.u. X XXXrXaXrXrXrX.X X XB.L.",
"rXrXyXrXrXrXyXaXaXpX{.V.pXaX0XpXrXrXrXrXaXyXiXD._.aXaX0XyXrXrXrXiXrXiX6XA.rXrXtXrXrXrXrXrXrXrXrXF.).",
"V.i.M.A.V.A.V.A.V.V.M.&.C.C.&.N.A.V.A.V.A.A.A.y.V.A.M.M.A.V.V.V.V.V.A.M.u.F.F.u.A.A.V.A.V.A.F.A.&.V.",
"iXJ.J.kXzXaX.XsXkXkXrXaXaX{.M.aXkXkXtXiXkXkXyX.XaXiXG.J.kXzXyX.XkXzXkXtXrXyXrXu.rXkXkXrXrXkXzXaX.XaX",
"iXJ._.iXpXrXkXkXrXrXtXkXiXrXV.iXtXrXyXzXrXrX.XsXzXrX!._.iXtXtXzXkXrX.XrXlXaXrXV.aX.XtXiXzXiXtXrXiXvX",
"V.&.&.u.y.M.V.M.y.y.u.V.V.V.*.&.y.y.V.V.u.u.y.M.V.V.&.&.u.y.u.V.u.y.u.u.V.V.i.*.y.y.u.V.V.u.y.y.M.V."
};
