/* XPM */
static char *result[] = {
/* columns rows colors chars-per-pixel */
"50 50 250 2 ",
"   c #0A0602",
".  c #0D0A04",
"X  c #060402",
"o  c #120B04",
"O  c #170D07",
"+  c #1A1106",
"@  c #1D130B",
"#  c #161006",
"$  c #1C1A12",
"%  c #24150B",
"&  c #261A0D",
"*  c #2B1B0C",
"=  c #28170A",
"-  c #311C0E",
";  c #291C12",
":  c #331E14",
">  c #210F0A",
",  c #2D2419",
"<  c #332314",
"1  c #3B2B1C",
"2  c #372618",
"3  c #392A15",
"4  c #3C3327",
"5  c #3E2F23",
"6  c #412C1C",
"7  c #432717",
"8  c #43321E",
"9  c #4A341F",
"0  c #54321E",
"q  c #512E1C",
"w  c #442D21",
"e  c #443324",
"r  c #4C3723",
"t  c #4D3B25",
"y  c #4C3C2C",
"u  c #463728",
"i  c #533E26",
"p  c #533D2C",
"a  c #573927",
"s  c #593D31",
"d  c #4E362C",
"f  c #633E30",
"g  c #54422B",
"h  c #5B442D",
"j  c #584025",
"k  c #4E443D",
"l  c #544433",
"z  c #5B4532",
"x  c #5B4938",
"c  c #65452D",
"v  c #634534",
"b  c #6A4435",
"n  c #634B34",
"m  c #6A4C34",
"M  c #68493B",
"N  c #774B39",
"B  c #65523A",
"V  c #6C533D",
"C  c #655036",
"Z  c #73533C",
"A  c #77553B",
"S  c #6F4D43",
"D  c #6A5746",
"F  c #745B43",
"G  c #7D5B45",
"H  c #7C5C4C",
"J  c #775647",
"K  c #78554D",
"L  c #7A634A",
"P  c #7A6554",
"I  c #6F625A",
"U  c #71726F",
"Y  c #845C4B",
"T  c #8A5C4B",
"R  c #845747",
"E  c #975B54",
"W  c #8A5450",
"Q  c #A05D5E",
"!  c #83634C",
"~  c #8A634C",
"^  c #866548",
"/  c #91654E",
"(  c #836253",
")  c #8D6554",
"_  c #8C6A54",
"`  c #886A58",
"'  c #936353",
"]  c #946B54",
"[  c #96645A",
"{  c #9D6D5C",
"}  c #986B58",
"|  c #887259",
" . c #95745B",
".. c #9B745D",
"X. c #9B795E",
"o. c #957457",
"O. c #A5695B",
"+. c #A3725D",
"@. c #A7795C",
"#. c #BF795A",
"$. c #BC7556",
"%. c #996C63",
"&. c #8D7365",
"*. c #9D7462",
"=. c #997A66",
"-. c #876B61",
";. c #A76A65",
":. c #A37463",
">. c #AB7363",
",. c #A47A64",
"<. c #AA7C65",
"1. c #AB746A",
"2. c #A47C6B",
"3. c #AB7B6B",
"4. c #A4756B",
"5. c #B27C6B",
"6. c #B67769",
"7. c #AE7D71",
"8. c #BC7E73",
"9. c #B67B75",
"0. c #B16C6B",
"q. c #C37C57",
"w. c #C27D5B",
"e. c #C17A6C",
"r. c #C17F72",
"t. c #B2825F",
"y. c #8C8076",
"u. c #9A8679",
"i. c #AC826B",
"p. c #A58468",
"a. c #B4826B",
"s. c #BB826D",
"d. c #B78769",
"f. c #AC8572",
"g. c #B48473",
"h. c #BB8473",
"j. c #B48B74",
"k. c #BB8C74",
"l. c #BD8D79",
"z. c #BA857A",
"x. c #BA9378",
"c. c #A8917C",
"v. c #C6825E",
"b. c #C9845D",
"n. c #CE895F",
"m. c #C68364",
"M. c #C98664",
"N. c #CC8A64",
"B. c #CB8B6B",
"V. c #C58969",
"C. c #D28F63",
"Z. c #CE916D",
"A. c #D69566",
"S. c #D4946B",
"D. c #DB9C6E",
"F. c #D7976B",
"G. c #C38475",
"H. c #CD8376",
"J. c #C28B76",
"K. c #C1877A",
"L. c #C48B7B",
"P. c #CC8B7C",
"I. c #CB8677",
"U. c #D3897C",
"Y. c #D5877A",
"T. c #CE9272",
"R. c #C3927B",
"E. c #CC997D",
"W. c #C89679",
"Q. c #D19473",
"!. c #D49976",
"~. c #DA9D74",
"^. c #D59A7A",
"/. c #D99F7C",
"(. c #D3947D",
"). c #DAA17E",
"_. c #DFA06E",
"`. c #E3A673",
"'. c #E6AC7C",
"]. c #E5A978",
"[. c #BB8782",
"{. c #B19482",
"}. c #A69E96",
"|. c #CA8C84",
" X c #D88C81",
".X c #CC9583",
"XX c #CC9B84",
"oX c #C79886",
"OX c #D39382",
"+X c #DB9383",
"@X c #D49C84",
"#X c #DB9D86",
"$X c #D59D8A",
"%X c #DC9D8A",
"&X c #D89289",
"*X c #D69990",
"=X c #E39384",
"-X c #E29B8B",
";X c #E99C8C",
":X c #E59889",
">X c #E4988D",
",X c #CFA084",
"<X c #DDA583",
"1X c #DFA885",
"2X c #D3A48B",
"3X c #DDA48B",
"4X c #DEAA8B",
"5X c #D5A889",
"6X c #DBA993",
"7X c #DEB396",
"8X c #DBB08F",
"9X c #E5AE84",
"0X c #E8AF81",
"qX c #E3AC8C",
"wX c #E5A48E",
"eX c #E7B086",
"rX c #E8B183",
"tX c #E6B18B",
"yX c #E8B48E",
"uX c #E3AC92",
"iX c #EAAC94",
"pX c #E4AE9A",
"aX c #E9A896",
"sX c #F2AD9A",
"dX c #E6B493",
"fX c #E9B696",
"gX c #E9B896",
"hX c #ECB49B",
"jX c #EABA99",
"kX c #E6B59A",
"lX c #F1B99E",
"zX c #F3B59C",
"xX c #EBB6A2",
"cX c #F4B6A5",
"vX c #F3BCA2",
"bX c #F7BDAA",
"nX c #EEC2A7",
"mX c #F5C1A5",
"MX c #F4C5AA",
"NX c #F9C4AA",
"BX c #F4CAAB",
"VX c #FACAAE",
"CX c #FAC6A7",
"ZX c #FACCB4",
"AX c #F6CEB2",
"SX c #FAD2B4",
"DX c #FBD5BA",
"FX c #FBD9BC",
"GX c #F2D1B2",
"HX c #CECFCC",
/* pixels */
"gXgXfXfXgXkXdXm.dXgXgXgXgXgXkXgXgXdXkX!.).kXgXgXdXkXgXgXgXgXgXdXM.dXfXfXfXkXjXkXgXgXdXjXT.).kXgXgXgX",
"eXeXdXkXgXyXtXm.gXgXgXgXyXeXeXgXgXgXyXT.).gXgXgXgXeXeXdXgXkXyXtXV.fXjXfXgXdXeXeXgXgXgXyXT.).jXgXgXgX",
"b.v.M.V.B.m.M.w.V.B.B.B.V.b.b.B.B.B.M.v.m.B.B.B.B.b.b.M.B.B.V.M.q.B.B.B.B.M.n.b.B.B.B.M.v.m.B.B.B.B.",
"1X1XqX<Xm.1X1X1X1X1X<X<X<X<X4XqXM.!.1X1X1X<X<X<X<X1X1X4X/.M.<X<X1X<X<X<X<X<X1X4X4XM.!.<X).wX<X<X<X<X",
"0XtXjX9XM.0X0X].'.rXrXrXrXrXgXgXB.~.rX'.].'.rXrXrXeXyXgX1XM.rX'.].].rXrX0X0XrXgXgXB.~.rX'.`.0X0XrXrX",
"T.T.T.b.q.T.B.N.N.Z.Z.T.T.Z.Z.Z.q.B.T.N.N.T.Z.!.E.Q.Q.E.N.#.T.T.N.N.S.T.T.T.T.T.B.q.B.Q.C.n.T.S.T.T.",
"A.A.~.#X<X/.<X/.F.F.C.#.A.A.A.).).).).).D.S.j.u.u.c.c.{.2X<X).).).A.F.N.q.A.A.F.).).).).<X!.A.A.v.b.",
"'.'.'.0X0X0X0X'.'.'._.v.D.@.A L | ] o.X.p.| I }.HXHXHXU y.5XeXeXrX'.'.].v.'.'.9X'.rXrXrX0X'.'.'.N.D.",
"!.^.^.!.!.!.!.!.!.!.Z.^ g t l F P H ( %.=. .( -.u.}.&.k k I =.3.k.j.x.R.d.<X^.!.!.!.!.!.!.!.!.^.m.B.",
"^.m.v.!.^.^.S.!.^.R.^ p n H &.=.X.} 7.K.|.G.s.3.} F M v I H ` ` ` ( P ( ` p.oXm.Q.^.!.!.T.^.^.F.A.Q.",
"rXS./.gXgXeXyX7Xj.L g S ! =.2.2.*.2.K.|.&X|.P.k.:.G b N } *.|..Xl.g.<.*.H p x ) 8XjXdXeXgXgXgXgXyXgX",
"/.B.B.F.A.~.x.^ g p V _ ,.i.f.j.,.5.K.&X&X XP.8.[ H b R ' ,.$X$X$XXX@X.Xl.*.s 2 x X.W.^.).~.A.A.!.).",
"Q.Q.Z.T.k.X.B j h V ` *.:.] / ,.<.+.h. X-X+XP.>.%.&.M ( ~ h.6XwX3X$X$X3X@XXXk.M * : k &.d.N.!.T.T.!.",
"gXgX8Xp.F c a n ! ,.g.z.g.] G ~ :.<.>.P.&X&XU.>.4.K x ) T E.hXpXuXwXwXqX4X1X,Xk.M * @ 4 P E.jXgXjXkX",
"D.V.L g h Z R _ 2.g.7.7.:.K J ~ { 3.5.G.U.P.P.>.2.K D Y } 6XhXhXiXqXqXhXhXqXwX5Xp.9 = & 4 p.4X4X1X4X",
"d.F j c ^ @.,.,.:.O.E W f 0 N ^ / >.6.6.G.h.L.7.*.I v Y h.xXzXzXhXfXhXkXzXhXfXqXk.n * < , k ,.Z.Z.B.",
"p.n m Y +.3.:.%.Q W W S f J R T +.P.G.6.r.8.0.T Y S b 4.*XbXNXvXzXvXlXvXjXlXhXuXk.M - < < 4 D W.0X0X",
" .M H :.>.3.*.{ E Q ;.%.&.=.` ) L.xX>X XY.r.6.R a : ) *XpXvXbXvXxXvXvXvXmXvXzXfXk.h - < e 1 x y.1X9X",
"| B ] >.>.+.{ ;.;.0.[.7.{.j.*.T z.>XwX>X>X:X>X.X;.S oX6XhXvXNXbXvXnXMXMXmXmXlXqX@.a - : l 4 g I 5.w.",
"| Z ] :.[ ' [ ;.0.[.oX2.x.p.*.T ;. X X=X=X=X%XpX[.K 2XpXxXmXVXNXvXMXBXBXVXmXvX5X+.q 2 < g g g D p.A.",
"| C ^ +.:.:.;.;.0.9.|.7.{.p.*.O.O.r.r.Y.Y.=XI.;.M f oXpXxXnXVXMXnXMXAXBXBXMXmX3X+.q e e p n j B | ^.",
"P n ^ <.h.9.:.;.0.|.|.4.=.=.*.:.O.r.r.Y.=X=X0.N S J f.2XxXNXMXMXVXZXZXZXVXVXmXuX} q r g t C h h L a.",
"! h N *.[.9.4.0.0.[.*Xu.}  ...+.O.e.Y.Y.=X XH.>.0.R ] l.6XbXMXMXZXZXSXSXSXVXMX4X/ 0 9 p y p B h B x.",
"^ i v ..[.[.9.9.0.0.|.9.] ) +.>.e.0.e.Y.=X=X+Xe.>.R W *.$XbXZXZXZXSXFXDXSXSXBX2XT a 3 1 1 w z h C ,X",
"^ 8 h ~ h.J.8.h.z.1.9.z.' H } 5.P. XY.>X=X;X X0.E N T ' .XZXZXVXVXSXFXFXFXSXBX,XG M 5 1 & 3 g g x p.",
"d.8 g V p.J.h.h.L.K.1.1.Y R ..g.|.|. XsX;X;XY.0.E R ' E R.ZXZXCXCXSXFXFXFXSXnXk.A n y 4 1 & 1 g n x.",
"W.i 8 C ! o.i.R..XXX.X3.J T +.k.I.G.>XcX;X:XY.e.;.K ;.:.g.NXVXCXMXSXSXFXFXFXxXf.R g k u 4 1 < g n XX",
"b.C 1 j c Z _ i..X2X$XXX>.] ,.d.8. XsXcX;X=Xr.r.%.S 7.g.g.xXNXNXmXBXAXDXFXFX7Xi.R r g g 1 l 3 g B <.",
").j.t 1 r j m ^ @.x.W.J.@.] <.a.J.%XcXbX;X=Xr.r.%.b 3.z.h.pXmXmXmXCXBXBXGXAX2X,.G p 5 l 1 g g g C x.",
"'.'.L 1 8 9 j m ^ o.p.@.O.@.k.h.OXwXcXbXsX].=Xe.E J 1.P.h.aXvXlXvXCXCXBXBXMXXXo.F u , l e 1 g t B W.",
"Q.Q.@.5 3 9 i h A _ <.k.W.W.R.J..XwXsXcXsXsX:Xe.E R >.L.s.wXlXzXzXlXvXnXBXnXW.Y v 5 ; y g < 3 4 D k.",
"A.A.!.V 1 8 j n Z ] i.k.W.E.W.L..X%XaXaXwX;XwXH.[ ' :.L.J.#XiXsXyXgXdXgXjX7Xk.A r 1 % 2 g < 3 g L N.",
"'.'.'.j.g 1 1 j A X.i.x.d.J.R.R.W.^.#X-X%X-X:XU.3.W 4.z.k..X#X3XqXtXwXtXdX7X<.c 7 < O ; p < 2 y X.).",
"!.!._.W.p.l 1 8 h L X.p.i.j.R.x.J.R.(.#X@XOXh.' M S g.7.8.h.h.(.(.@X#X3X8X,X/ 0 - % o % d < 8 D a.B.",
"!.b.v.!.E.o.h 5 1 h L ^ *.g.x.R.R.k.J.J.R.P.a.Y w -.z.g.L.G.G.J.W.E.XX@X).j.A 7 * @ o > 5 1 g X.A.!.",
"rXZ.).gXgXeXW.L g 8 h F _ *.i.k.W.l.R.J.G.V.s.<.f p 2.l.J.L.R.x.k.x.x.W.x.o.j - @ O o + 3 t L 4XyXjX",
").V.Z.F.A.!.<XW.^ g t C F _ X.p.a.j.x.j.s.a.a.5.[ 7 K g.h.J.k.j.,.=.p.c.p.C 6 % o o o O 3 C i.A.!.).",
"Q.Q.Q.Q.Q.T.Z.#.B.@.L V B F ! ..,.<.i.g.g.a.<.5.3.S : ` f.i.p._ F !  .o.m 9 3 @ . $ O & t L E.!.Q.T.",
"gXgXjXjXgXgXyXV.gXjXjX8XX.V F L ~ _ X.@.*...+.+.*.` 1 d _ o.J i i B D C 7 6 * # o ; & w x x.jXjXjXjX",
"D.D.).4X4X).).v.1X1X1X4X_.t...X.L B A A A m A R Y J p ; p B 9 * - 9 8 3 * * @ o o & < u L Q.4X4X4X4X",
"B.B.B.B.#.B.B.B.B.B.B.B.B.B.B.B.@.! Z { @.] m b b m v 1 % 5 1 % = < = @ + @ # o + , 1 x a.B.B.B.B.B.",
"rXyXjX4XM.rXrXrXeXeX0X0XeXeXgXjXB.!.f.l.$X3XV.5.+.) T S w = , O + + o . o # o # ; 2 y p.eXeXeXeX0XrX",
"1XqXqX~.m.1X<X_.).9X1X9X9X1XtX1XM.^.6X,X$X3X(.wXpXW.5.R.3.: %   . .     . . O & 2 u ` 1X)._.9X1X9X1X",
"v.v.M.M.M.V.B.M.b.b.v.#.v.v.m.B.m.V.V.B.R.|.$XsXzX3X#X+X%XT > o .   X   . o & , y ] V.V.M.v.v.v.#.v.",
"`.`.'.eX9X9XeX0X`.`.D.v.`.`.`.rX9X9XeXeX].oX{.oXwXwX#XH.e.f.: o . X X X . $ ; u d.eXtX9XrX].`.`.n.A.",
"eXeX9X9X9XqX9XqXeXeX).m.9XqX9XeXqX9X9XqXeXtX2X3.-.) %.>.[ K % o . .   . $ , D j.9XqX9X9XeXtX9XeXB.!.",
"M.m.6.N.M.M.m.M.M.M.m.#.M.M.#.M.V.m.M.M.M.V.m.m.<.{ ( K K l e e u e u y V } d.#.m.V.M.m.m.m.M.M.w.v.",
"tXZ.S.yXdXqX9XdXdXdX9X9XtX<Xm.9XdXdX9XqXdXdXqX'.yXyXB.S.tX8XqX).8X8X8X1X9XqX9Xv.9XdXdX9XtXkXdXtX<XtX",
"eXZ./.9X9X9XdXdX0X9X9XdXtX9XM.tX'.9XtXgXeX9X'.yXdXeXZ.).eX9X9XdXdX0X0X9XdXtX9Xm.eX'.9XeXdXeX0X9XeXgX",
"m.#.q.w.w.w.M.v.q.w.q.m.v.e.$.v.q.#.v.m.w.q.#.v.m.m.#.#.w.q.v.m.m.w.q.q.m.m.e.$.v.q.w.m.m.w.q.w.v.m."
};
