/* XPM */
static char *result[] = {
/* columns rows colors chars-per-pixel */
"50 50 255 2 ",
"   c #060402",
".  c #0A0602",
"X  c #0D0A04",
"o  c #120B04",
"O  c #170D07",
"+  c #161006",
"@  c #1A1106",
"#  c #1D130B",
"$  c #1C1A12",
"%  c #210F0A",
"&  c #24150B",
"*  c #28170A",
"=  c #261A0D",
"-  c #2B1B0C",
";  c #311C0E",
":  c #291C12",
">  c #331E14",
",  c #2D2419",
"<  c #332314",
"1  c #392A15",
"2  c #372618",
"3  c #3B2B1C",
"4  c #3E2F23",
"5  c #3C3327",
"6  c #432717",
"7  c #412C1C",
"8  c #512E1C",
"9  c #43321E",
"0  c #4A341F",
"q  c #54321E",
"w  c #442D21",
"e  c #443323",
"r  c #483727",
"t  c #4C3B25",
"y  c #4E362C",
"u  c #4C3C2C",
"i  c #573927",
"p  c #533E26",
"a  c #533D2C",
"s  c #593D31",
"d  c #633E30",
"f  c #584025",
"g  c #53422B",
"h  c #5A442C",
"j  c #4F453D",
"k  c #544434",
"l  c #5B4531",
"z  c #5E4B35",
"x  c #5A493B",
"c  c #65452D",
"v  c #634534",
"b  c #6A4435",
"n  c #634B34",
"m  c #6A4C34",
"M  c #68493B",
"N  c #774B39",
"B  c #65523B",
"V  c #6A513B",
"C  c #73533C",
"Z  c #79553C",
"A  c #6F4D43",
"S  c #6B5847",
"D  c #775546",
"F  c #745B43",
"G  c #7C5C45",
"H  c #78554D",
"J  c #7C5C4C",
"K  c #7A624A",
"L  c #6E6159",
"P  c #7B6655",
"I  c #71726F",
"U  c #845747",
"Y  c #845C4B",
"T  c #8A5C4B",
"R  c #8A5450",
"E  c #975B54",
"W  c #A05D5E",
"Q  c #86664A",
"!  c #84634C",
"~  c #8A634D",
"^  c #946A4C",
"/  c #836353",
"(  c #8D6554",
")  c #876857",
"_  c #8C6B54",
"`  c #8A6C5D",
"'  c #936353",
"]  c #936B54",
"[  c #96645A",
"{  c #986B58",
"}  c #9C6D5C",
"|  c #887157",
" . c #927255",
".. c #95735B",
"X. c #9B745D",
"o. c #99785B",
"O. c #A5695B",
"+. c #A3725D",
"@. c #A97A5B",
"#. c #B97757",
"$. c #BF7A5B",
"%. c #876B61",
"&. c #996C63",
"*. c #8D7263",
"=. c #87756B",
"-. c #9D7462",
";. c #9A7A66",
":. c #A76A65",
">. c #B16C6B",
",. c #A37463",
"<. c #AB7363",
"1. c #A47A64",
"2. c #A97C65",
"3. c #A4756B",
"4. c #AB746A",
"5. c #A37C6B",
"6. c #AB7B6A",
"7. c #B67769",
"8. c #B27C6B",
"9. c #AE7D71",
"0. c #B67B75",
"q. c #BC7E73",
"w. c #C37D57",
"e. c #C27D5B",
"r. c #C27F60",
"t. c #C17A6C",
"y. c #C17F72",
"u. c #B0805C",
"i. c #9F8067",
"p. c #908379",
"a. c #A38267",
"s. c #AC836B",
"d. c #B3836C",
"f. c #BB826D",
"g. c #B6896B",
"h. c #BA906B",
"j. c #AB8874",
"k. c #B48473",
"l. c #BB8473",
"z. c #B48A73",
"x. c #BB8C74",
"c. c #B9877A",
"v. c #BD8D79",
"b. c #B8947A",
"n. c #C6825E",
"m. c #C9855E",
"M. c #CE895F",
"N. c #C68464",
"B. c #C98664",
"V. c #CC8963",
"C. c #C58668",
"Z. c #C88768",
"A. c #C4886A",
"S. c #CB8B6B",
"D. c #CE916D",
"F. c #D69466",
"G. c #D4946B",
"H. c #D89769",
"J. c #DB9C6E",
"K. c #C38475",
"L. c #CD8376",
"P. c #CB8677",
"I. c #C38C75",
"U. c #C1877A",
"Y. c #C48B7B",
"T. c #CC8B7C",
"R. c #D5877A",
"E. c #D3897C",
"W. c #CF9171",
"Q. c #C3927B",
"!. c #CB927C",
"~. c #C8987B",
"^. c #D19473",
"/. c #D49976",
"(. c #DB9E75",
"). c #D3947D",
"_. c #D49A7A",
"`. c #D89F7C",
"'. c #DFA06E",
"]. c #DAA17E",
"[. c #D9A57C",
"{. c #E4A672",
"}. c #E5A979",
"|. c #E6AC7D",
" X c #BB8782",
".X c #AB9989",
"XX c #B09182",
"oX c #A69E96",
"OX c #CA8C84",
"+X c #D88C81",
"@X c #CC9583",
"#X c #C39C82",
"$X c #CC9B84",
"%X c #C89688",
"&X c #D39382",
"*X c #DB9383",
"=X c #D49C84",
"-X c #DB9D86",
";X c #D89289",
":X c #D59D8A",
">X c #DC9D8A",
",X c #D69990",
"<X c #E39384",
"1X c #E29B8B",
"2X c #E59889",
"3X c #E4988D",
"4X c #E99C8C",
"5X c #CCA388",
"6X c #DCA582",
"7X c #DEA886",
"8X c #D4A38B",
"9X c #D4A78A",
"0X c #DDA48B",
"qX c #DDA98A",
"wX c #DCA893",
"eX c #DDB199",
"rX c #E5AD84",
"tX c #E8AF81",
"yX c #E5A48E",
"uX c #E3AC8C",
"iX c #E7B086",
"pX c #E8B083",
"aX c #E6B18B",
"sX c #E8B48D",
"dX c #E3AC92",
"fX c #E9A896",
"gX c #EAAC94",
"hX c #E4AE9A",
"jX c #F2AD9A",
"kX c #E5B493",
"lX c #E9B696",
"zX c #E9B896",
"xX c #E5B799",
"cX c #ECB49B",
"vX c #EABA99",
"bX c #F3B59C",
"nX c #F1B99E",
"mX c #EBB6A2",
"MX c #F4B6A5",
"NX c #F3BCA2",
"BX c #F7BDAA",
"VX c #EEC2A7",
"CX c #F5C1A5",
"ZX c #FAC6A7",
"AX c #F4C5AA",
"SX c #F9C4AA",
"DX c #F4CAAB",
"FX c #FACAAE",
"GX c #F6CEB2",
"HX c #FACCB4",
"JX c #F2D1B2",
"KX c #FAD2B4",
"LX c #FBD5BA",
"PX c #FBD9BC",
"IX c #CECFCC",
/* pixels */
"zXzXlXlXzXlXkXN.lXzXlXlXzXxXzXxXzXvXxXb.z.5X~.#XXX5X~.5X9XaXzXaXC.lXlXzXxXzXzXzXzXzXlXzX^.-XzXxXzXzX",
"rXiXkXzXzXkXuXZ.lXlXzXzXsXiXsXzX9Xj.| S B B B z z z z B L p.b.5XC.xXzXzXzXsXiXiXzXxXzXsX^.`.zXzXzXzX",
"B.n.Z.Z.B.B.B.$.S.S.S.S.S.V.n...x g 5 g t g g g h h g g g B S L *.g.S.S.A.V.m.N.S.S.S.B.e.N.S.S.S.S.",
"6XrXqX6XN.7X7X7XrX[.7X7X9Xz.K g 4 1 1 3 t g 9 < 3 g z B h g g g j S j.rX7X7X6X7XqXN./.7X6X7X6X7X7X6X",
"pXsXzXrXB.pX|.}.|.|.pXQ.| z t 3 1 < , 2 7 u k 3 = 2 w a B z g 9 3 5 j i.iX|.pXzXzXV.(.tX|.{.tXtXtXtX",
"D.W.W.N.e.W.G.V.S.x.P z t 1 < 4 5 g u u e 1 3 5 3 = 3 t g g g g r < < 5 | I.W.W.S.w.S.^.V.V.G.^.W.W.",
"F.F.(.6X].].-X/.o.x y 4 = @ @ % & - 2 u k k u u r 3 2 k k 9 , < < < - = 5 =.F.H.].].].].6XJ.F.F.e.M.",
"|.|.|.|.pXpXrX| u 3 , & @ o o o o @ = : 2 5 u k u 4 1 9 t 9 1 - - < ; * # j 5XtXpXpXpXtXtX|.|.|.B.J.",
"/._._./._./...r 2 , = : # X + # & ; 1 4 t t t g M M i q q 8 q q s m v q * < -.6X_.^././._._././.N.S.",
"_.B.n./._.2.u 2 : # o X X o # = < 6 p c D G U U D D ~ ' { +.+.@.x.z.x.a.c ; B 7.G._._./.G._._./.F.^.",
"pXG._.zXb.u < = + o o + & * < 6 q c C Y X.,.a.j.x.$X9XqXqXqX7XdXlXgXuX0Xx.b 2 ) xXzXzXiXzXzXzXsXsXzX",
"].B.D.D.x , = + o + # - < 7 f Z ^ 2.x.~.#X8XeXmXVXDXDXZXCXCXNXnXmXzXgXuX9Xz.s l #XH.F.`.]./.F.H./.6X",
"W.W.W.+., $ o X + # - 7 0 m  .h.5XdXxXNXVXJXPXPXLXKXKXGXFXZXCXCXNXvXcXaX0X$X-.a a.~.^.^.N.N.W.!.^.^.",
"vXvXvXP $ X X . o @ * 7 C i.b.5XqXlXvXDXDXJXPXPXPXLXKXKXFXDXDXCXZXcXbXkXqX=Xv.Y *.xXvXvX^.6XvXvXvXvX",
"J.J.[.j X   X   X @ 1 z  .b.~.5X6XuXxXVXDXDXLXPXPXLXLXKXGXDXDXZXCXnXcXxXdX0X@X,.P 5XuX'.S.^.7XqX7XqX",
"S.S.Z.r X     X + - 3 F o.i.b.~.=XuXlXNXZXDXGXKXPXPXLXLXKXDXAXZXCXcXcXgX0X:X=X2.P s.C.W.S.S.S.S.S.S.",
"rXaXxXu .     X @ < 0 B ! o.v.~.=XgXlXbXZXSXDXFXKXKXHXHXHXDXVXVXBXbXbXaXyX-X=Xk.P d.'.aXpXpXpXpXtXtX",
"rXuXqXr X o X X + * < t G a.v.Q.=XuXbXbXNXCXCXAXFXGXHXHXHXBXmXNXNXbXbXuXdX0X:Xx.) d.`.rX[.J.|.7XqXrX",
"N.n.N.e o O o X + * - p _ z.v.I.!.0XgXbXnXCXSXSXZXZXSXFXAXAXDXAXnXnXbXcXfXwX-X%X) ,.S.Z.B.n.n.n.$.e.",
"{.{.].u % > % & , 1 0 F a.v.Y.I.K.-XaXbXNXBXSXFXFXHXHXSXAXAXHXSXBXBXMXcXcXwX:XOX` ;.aXrXiX}.{.{.M.F.",
"rXuX7Xx J 9.R 2 = 7 V  .g.v.Y.K.f.!.-X0XfXcXmXSXHXHXDXBXBXAXAXNXBXBXmXwX$Xf.4.,.J P 9XaXaXiXiXaXS./.",
"N.N.$.D [ r.>X5.7 * a ` j.l.I.U.l.I.U.l.l.k.d.k. X%X:XwXmXmXmXmXhX:Xk.] T ~ ' { H j =.v.C.N.N.N.w.N.",
"iXD.D.) 3.L.).%XA 2 = r %.k.l.l.8.c.U.Y.Y.U.q.,.] ' +.v.8XhXhXwX%X9.Y / _ / U N x u I .XaXxXkXaX|.aX",
"iX^._.` } <X>X8.R v a 3 > D 5.c.k.3.4.<.4.4.9.,.' T T [ j.%X8X%X( b v A x v d N M p.IX.XxXsXiX|.aXlX",
"S.r.N.{ ) yXqXQ.^ m F ( M 7 s %.A Y E T H M A H U N U U N d R A 6 M H L H =.J D S .XIX.XZ.N.m.n.N.Z.",
"uXkXkX#X` yXbXhXO.m ! X.6.[ d 7 A 1.O.E R W &.:.E E <.4.N d  X-.i Y 3.3.3.&.' <.{ p.IX.X!._.uXkXkXuX",
"iXiXlXxXc.:XjXyX7.c Y ,.8.8.2.~ E OXL.t.0.0.0.y.7.7.t.<.b :.hX,XN ' 6.<.>.<.q.v.6.%.oX.X_.].vXzXlXlX",
"n.m.B.S.v.XX:X&XZ.m C X.s.8.f.8.l.2X4X<X+X+XL.R.R.R.<XL.<.OX3X,X7.8.I.T.T.P.T.T.8.P L s.$.N.S.S.S.S.",
"6X7XuX=XA.#X%X>X0X{ m X.d.d.C.!.&X2XfXjX3X<X<X4X4X4X<X<X<XR.<X4XP.q.K.Y.;X<X+X+XU.` ` qXrX6X6X6X6X7X",
"pXsXzXrXB.pX$X:X:X@.N @.k.f.l.!.=X-X4XfXjXfX3X4X4X<X<X<X).R.<X4XR.7.y.+X;X3X,X;XOX-.;.iX|.}.|.pXpXtX",
"D.W.S.V.$.G.!.%Xv.X.Z 1.d.x.I.Y.*XyXgXMXBXBXMXjX4X4X<X<Xy.y.<X3X&Xq.7.K.T.*X;XOXU..._ ^.S.M.D.^.W.W.",
"F.F./.6X6X].].5X;.C Z ..s.x.Q.I.).2XyXjXMXMXjX3X+X+Xt.y.<Xy.+X4X1XK.7.7.<.q.P.c.9./  .].].J.F.F.e.M.",
"|.|.|.pXtXtXtXtX[._ B _ a.z.Q.x.!._.0XyX0X,X&XK.E.E.>.t.y.y.R.3XmXOX<.6.2.+.8.3. .J  .|.|.|.|.|.V.J.",
"/._././././._././.I.K Q 1.g.Q.Q.h.Q.!.=X&XP.f.P.&XOX7.O.O.O.+.K.OX} ~ X.+.1.6.-.o.P ) _._././.[.N.S.",
"_.N.m./._./.G._././.^ K ..a.x.Q.Q.Q.I.I.x.d.f.x.q.8.<.+.<.X.R Y ~ Y Q ~ ^ 1.z.5.;.F G ^.G./._.^.F./.",
"pXG.`.zXzXaXsXzXzXzXa.Z / -.s.v.Q.Q.Q.Q.x.1.1.X.X.{ +.+.-.X.-.;.( Y N C G ( j.5.*.k C iXvXzXlXlXkXzX",
"].B.S.J.F./.].`.G.H.u.B F _ X.z.z.x.~.~.@.] ] T U Y ( ..;.;.a.j.;.H 8 J { ' a.-.K t ^ ].[./.F.F._.6X",
"^.^.^.W.W.^.D.$.W.W.W. .V K _ X.s.x.!.~.+.<.<.D Y ( [ ` s.XXb.XX*.d d :.z.,.1.( n g C.^.N.N.W.^.^.^.",
"zXzXvXzXvXzXkXZ.zXvXvXqXF n C Q 2.z.x.x.@.I.%X9.4.c.0.9.5.3.9.XX&.A R 8.c.-._ V g i.zXvXW.6XvXvXzXzX",
"J.J.].uXqX].].n.7X7XqX7XQ t l K o.s.s.a.2.~.8X@X<.9.OX%X%X%X X X:.R E k.c.( V k Q 6X7X].S.W.rXqX7XqX",
"S.S.S.Z.$.S.S.S.S.S.S.S.@.t e l K o.] ^ o.h.8X$Xc.>.>. XOX X0.0.W E } k.5.V g V h.e.N.S.S.S.S.S.S.S.",
"iXsXzXaXN.pXpXpXiXiXrXtX7X .t 9 h Z C Z Q o.~.!.Y. X>.>.>.>.>.W E E 3.a.! h h h.xXW.(.rXiXpXiXiXrXrX",
"rXqXaX/.N.rX7X'.[.rX7XrX7X[.K 9 9 p c z m Q s.Q.U.q.0.>.:.W :.O.:.&.-._ v p | 9XrXn._.rX}.J.rXrXrXrX",
"n.n.N.Z.N.Z.Z.N.m.m.m.#.n.n.@.l 3 9 g f p m ~ s.x.q.9.9.>.:.[ ,.-.:.2.U f B u.m.Z.N.Z.S.Z.n.n.n.e.e.",
"{.{.tXrXrXrXrXtX{.{.J.n.{.{.[.o.h 3 9 0 0 f C { x.I.Y.l.8.} ' +.4.6.,.C l u.{.[.iXrXrXiXrX}.{.{.M.F.",
"iXrXuXrXrXrXuXiXrXiX[.N.iXrXiX7Xi.k 3 1 9 t c Q 6.v.I.c.l.3.{ <.4.+.Y c V [.rXrXrXrXrXiXrXuXrXiXS./.",
"N.N.n.N.N.Z.N.N.Z.N.n.$.C.N.$.n.C.o.B 4 3 9 t v D ~ { ,.1.,.+.a.+.~ c f ] C.N.$.N.N.N.N.N.C.N.N.e.N.",
"iXD.D.lXxXaX|.kXlXlX|.iXaX7Xn.iXzXsX[.g.F t 3 e p h v N Q Q ^  .G m g K [.aX7Xn.rXxXlXrXuXlXlXaX[.aX",
"iXG._.iXrXtXlXlXtX|.rXlXaXrXN.aXtXrXuXlX7Xh.Z g 9 9 f f c n C V M n K ~.lXaXrXN.iXrXrXiXlXiX|.rXsXzX",
"N.$.$.e.e.n.N.e.w.$.e.N.r.N.#.e.w.w.N.N.n.w.#.@.^ Q Z G P | | | _  .#.e.n.N.N.#.e.w.e.N.N.e.w.$.n.n."
};
