/* XPM */
static char *result[] = {
/* columns rows colors chars-per-pixel */
"50 50 254 2 ",
"   c #0A0602",
".  c #0D0A04",
"X  c #060402",
"o  c #120B04",
"O  c #170D07",
"+  c #1A1106",
"@  c #1D130B",
"#  c #161006",
"$  c #1C1A12",
"%  c #24150B",
"&  c #261A0D",
"*  c #2B1B0C",
"=  c #28170A",
"-  c #311C0E",
";  c #291C12",
":  c #331E14",
">  c #210F0A",
",  c #2D2419",
"<  c #332314",
"1  c #3B2B1C",
"2  c #372618",
"3  c #392A15",
"4  c #3C3327",
"5  c #3E2F23",
"6  c #412C1C",
"7  c #432717",
"8  c #43321E",
"9  c #4A341F",
"0  c #54321E",
"q  c #512E1C",
"w  c #442D21",
"e  c #443323",
"r  c #4D3723",
"t  c #4C3B25",
"y  c #4C3C2C",
"u  c #463729",
"i  c #533E26",
"p  c #533D2C",
"a  c #573927",
"s  c #593D31",
"d  c #4E362C",
"f  c #633E30",
"g  c #53422B",
"h  c #5A442C",
"j  c #584025",
"k  c #544434",
"l  c #5B4531",
"z  c #5B4A39",
"x  c #4F453D",
"c  c #65452D",
"v  c #634534",
"b  c #6A4435",
"n  c #634B34",
"m  c #6A4C34",
"M  c #68493B",
"N  c #774B39",
"B  c #65523B",
"V  c #6A513B",
"C  c #73533C",
"Z  c #79553C",
"A  c #6F4D43",
"S  c #6B5847",
"D  c #745B43",
"F  c #7C5C45",
"G  c #7C5C4C",
"H  c #775546",
"J  c #78554D",
"K  c #7A624A",
"L  c #7B6655",
"P  c #6E6159",
"I  c #71726F",
"U  c #845C4B",
"Y  c #8A5C4B",
"T  c #845747",
"R  c #975B54",
"E  c #8A5450",
"W  c #A05D5E",
"Q  c #84634C",
"!  c #8A634D",
"~  c #86664A",
"^  c #946A4C",
"/  c #836353",
"(  c #8D6554",
")  c #8C6B54",
"_  c #886A59",
"`  c #936353",
"'  c #936B54",
"]  c #96645A",
"[  c #9C6D5C",
"{  c #986B58",
"}  c #887157",
"|  c #95735B",
" . c #9B745D",
".. c #957558",
"X. c #A5695B",
"o. c #A3725D",
"O. c #A57A5D",
"+. c #AD7A5A",
"@. c #BF7A5B",
"#. c #B97757",
"$. c #996C63",
"%. c #8D7263",
"&. c #87756B",
"*. c #9D7462",
"=. c #9A7A66",
"-. c #876B61",
";. c #A76A65",
":. c #A37463",
">. c #AB7363",
",. c #A47A64",
"<. c #A97C65",
"1. c #AB746A",
"2. c #A37C6B",
"3. c #AB7B6A",
"4. c #A4756B",
"5. c #B27C6B",
"6. c #B67769",
"7. c #AE7D71",
"8. c #BC7E73",
"9. c #B67B75",
"0. c #B16C6B",
"q. c #C37D57",
"w. c #C27D5B",
"e. c #C17A6C",
"r. c #C27F60",
"t. c #C17F72",
"y. c #B0805C",
"u. c #9F8067",
"i. c #908379",
"p. c #AC836B",
"a. c #A38267",
"s. c #B3836C",
"d. c #BB826D",
"f. c #B6896B",
"g. c #AB8874",
"h. c #B48473",
"j. c #BB8473",
"k. c #B48A73",
"l. c #BB8C74",
"z. c #BD8D79",
"x. c #B9877A",
"c. c #B8947A",
"v. c #BA906B",
"b. c #C6825E",
"n. c #C9855E",
"m. c #CE895F",
"M. c #C68464",
"N. c #C98664",
"B. c #CC8963",
"V. c #C58668",
"C. c #C88768",
"Z. c #CB8B6B",
"A. c #C4886A",
"S. c #CE916D",
"D. c #D69466",
"F. c #D4946B",
"G. c #DB9C6E",
"H. c #D89769",
"J. c #C38475",
"K. c #CD8376",
"L. c #C38C75",
"P. c #C1877A",
"I. c #C48B7B",
"U. c #CC8B7C",
"Y. c #CB8677",
"T. c #D3897C",
"R. c #D5877A",
"E. c #CF9171",
"W. c #C3927B",
"Q. c #CC997F",
"!. c #C9947A",
"~. c #D19473",
"^. c #D49976",
"/. c #DB9E75",
"(. c #D49A7A",
"). c #D89F7C",
"_. c #D3947D",
"`. c #DAA17E",
"'. c #D9A57C",
"]. c #DFA06E",
"[. c #E4A672",
"{. c #E6AC7D",
"}. c #E5A979",
"|. c #BB8782",
" X c #AB9989",
".X c #B09182",
"XX c #A69E96",
"oX c #CA8C84",
"OX c #D88C81",
"+X c #CC9583",
"@X c #C39C82",
"#X c #CC9B84",
"$X c #C89688",
"%X c #D39382",
"&X c #DB9383",
"*X c #D49C84",
"=X c #DB9D86",
"-X c #D59D8A",
";X c #DC9D8A",
":X c #D89289",
">X c #D69990",
",X c #E39384",
"<X c #E29B8B",
"1X c #E99C8C",
"2X c #E59889",
"3X c #E4988D",
"4X c #CCA388",
"5X c #DCA582",
"6X c #DEA886",
"7X c #D4A38B",
"8X c #DDA48B",
"9X c #DDA98A",
"0X c #D4A78A",
"qX c #DCA893",
"wX c #DDB199",
"eX c #E5AD84",
"rX c #E8AF81",
"tX c #E3AC8C",
"yX c #E5A48E",
"uX c #E7B086",
"iX c #E8B083",
"pX c #E6B18B",
"aX c #E8B48D",
"sX c #E3AC92",
"dX c #EAAC94",
"fX c #E4AE9A",
"gX c #E9A896",
"hX c #F2AD9A",
"jX c #E5B493",
"kX c #E9B696",
"lX c #E9B896",
"zX c #ECB49B",
"xX c #EABA99",
"cX c #E5B799",
"vX c #F1B99E",
"bX c #F3B59C",
"nX c #EBB6A2",
"mX c #F4B6A5",
"MX c #F3BCA2",
"NX c #F7BDAA",
"BX c #EEC2A7",
"VX c #F5C1A5",
"CX c #F4C5AA",
"ZX c #F9C4AA",
"AX c #F4CAAB",
"SX c #FACAAE",
"DX c #FAC6A7",
"FX c #FACCB4",
"GX c #F6CEB2",
"HX c #FAD2B4",
"JX c #FBD5BA",
"KX c #FBD9BC",
"LX c #F2D1B2",
"PX c #CECFCC",
/* pixels */
"kXlXlXlX*X~.lXlXkXkXkXkXkXkXjXlXkXV.pXkXjX4X4X@XQ.@XQ.Q.@Xc.v.cXcXxXxXlXcXkXkXlXkXcXN.pXlXlXkXlXlXlX",
"lXlXlXlX`.~.jXlXlXlXpXuXjXxXlXlXlXA.4Xc.i.K B z z z n B B B S L g.0XkXpXuXaXxXlXlXcXA.pXaXlXlXjXuXpX",
"Z.Z.Z.Z.M.w.B.C.Z.Z.n.n.B.Z.Z.Z.f.} P S B h g h g g g g t g g 4 y S ..b.B.S.Z.Z.Z.C.@.V.C.C.Z.C.n.b.",
"5X5X5X6X6X5XeX^.C.9X6X6X5X6X5Xg.S x k g i h B l g 3 3 5 g g 1 3 2 8 g K k.0X6X6X6X5X6X6X5XM.`.9X5XeX",
"eXeXeXeX}.{.iX/.B.lXlXiXuXuXa.x 4 1 e g n n p w 2 & 1 k g 1 3 , < 2 6 t B ) W.eX{.{.}.iX{.B.eXlXaXeX",
"E.F.~.F.m.Z.~.C.@.S.S.~.L.} 4 , , u g p g t p 1 & 1 4 1 3 1 g g y u 5 < 3 t l L f.S.B.S.E.@.M.S.~.E.",
"m.q.H.D.G.`.`.`.6X'.F.F.%.4 & * < < < < e k y 1 1 4 u g k k u , ; % @ + # & 5 u z ..(.'.`.`.5X/.D.D.",
"G.B.{.{.{.rXrXrX{.iX{.'.x $ = - < * - < e r e 2 e y k g 4 , ; $ O O o o . O & < 1 g | 6XiXiXeX{.{.{.",
"Z.M.^.~.^.^.^.(.^.(.*X=.< = 0 v m f r 0 q 0 a a M M s r p r 5 2 - * % O O @ ; & < 2 u  .^.Q.^.^.^.^.",
"^.D.^.(.(.F.~.(.(.F.d.z * b a.l.l.l.O.o.X.^ ^ ! F C F F F H h i 7 < = + o . o o + & 2 y <.(.^.b.N.(.",
"lXaXjXlXlXlXuXkXjXcX) 2 m l.5XsXsXjXtX8X9XtX9X0X#Xl.p.a.,...~ N c 0 7 - % % O o . + & , y c.lX'.F.iX",
"5X/.D.D.^.5X).F.H.#Xk s k.0XtXdXzXvXMXMXVXMXDXAXAXCXBXwX0X#XW.l.a.^ Z j 1 < * @ + . O % , z S.S.N.`.",
"~.E.~.~.C.M.^.E.(.u.p *.#X9XdXkXzXMXVXVXAXDXSXHXHXKXJXKXGXCXBXcXqX4Xf...m 9 1 * @ # . o $ , =.E.E.~.",
"lXlXxXlX=X~.lXlXcX%.U z.-X9XjXvXvXVXDXAXAXSXHXHXKXJXKXKXLXAXAXxXzXqX*Xc.u.C 7 = + # . . o $ _ kXlXlX",
"9X9XtX9XE.Z.'.eX4XL :.+X8XqXjXzXxXVXDXAXAXFXHXJXKXKXKXJXAXAXBXjXtX5XQ.4Xv...B 3 + .     X . x )./.G.",
"Z.Z.Z.Z.Z.Z.Z.C.p.L <.*X-XyXsXkXMXMXVXCXGXHXHXKXKXJXHXAXAXAXMXlXtX'.4Xc.a.%.V 8 * o   X X X e C.Z.Z.",
"eXeXeXeX{.eXiX`.f.L h.*X;X8XdXjXvXMXMXCXGXGXFXJXFXHXFXAXVXDXvXkXtX=X_.l. .~ B 9 < + . X X . u cXaXeX",
"eXeXeXeX].'.eX).s._ z.-X8XtXdXbXvXmXMXBXBXCXFXFXFXAXCXVXDXMXbXhXtX%XW.z.a.K i - = # . . . . u tXeXeX",
"w.@.n.n.n.C.A.Z.o._ +X-XqXdXdXbXmXMXVXCXNXCXSXZXZXZXZXZXDXvXbXdX8X!.L.z.k.) i * % + . o O o e M.b.b.",
"H.n.[.[.}.eXuXpX=._ oX-XqXzXzXmXNXNXZXSXFXCXCXFXFXSXSXZXVXMXbXdX*XL.z.I.l.a.D 9 1 , @ % : % y '.[.[.",
"(.Z.eXeXeXeXpX0XL K :.4.j.#XqXnXMXMXMXBXCXCXZXAXFXFXZXnXdXgXyX*X+Xj.J.I.L.p.' V 5 = 2 E 7.J z 6XeXeX",
"r.q.N.C.M.M.L.&.x J ' ] Y U ' l.;XfXzXzXnXnXqX$X$XW.h.s.j.l.j.L.J.j.L.L.l.k.) d % 6 3.;Xe.{ J r.M.C.",
"pX{.tXkXcXjX XI y z N T / ] / E 3.$XfXfXfX7X|.o.] ` :.9.P.P.I.I.x.7.h.z.h._ u ; 2 A oX_.K.:._ S.S.pX",
"kXaXeXeXjXcX XPXi.v N b z z A f M ( $X7X$Xh.{ Y Y ` :.7.1.1.>.1.4.7.x.2.H < 1 p v U s.;X,X[ _ (.~.eX",
"C.M.b.b.b.V.g.PX XJ H F %.J S L M 7 M J f H T T N T J A A J E ( E A -.s 7 A ) H m ` W.yXyX_ { M.w.C.",
"jXtXjXjX(._.XXPXi.| >.] $.2.2.,.E a 4.|.f N >.>.R R 0.$.] R R ] 4.A w f ] 1.*.Q m [ fXbX8X| @XjXsXjX",
"cXlXlXxX*X).i.XX-.3.J.9.1.>.+.3.E A +XfX0.N >.e.6.6.e.K.t.e.e.K.T.( Y ,.5.s.o.T c 6.yXhX$X.XcXjXuXuX",
"C.C.Z.Z.M.M.k.P / s.U.U.U.U.U.I.6.8.;X3XU.0.K.OXR.R.t.t.K._.2X1X2XV.s.d.5.3. .C m Z._.;X.XP.Z.C.n.n.",
"6X5X5XeX6XeX5X_ %.J.oXOX&X&XoXt.8.t.1X,XR.,XOX&X2X2X3X3X_.1XhX1X<X%XU.d.s.s. .m ^ 8X<X$X@XA.5X8X6X6X",
"rXrXeX{.[.{.uX=.$.oX:X3X3X:XOXt.8.K.1X,X,X,X2X,X2X1X1X3XgXhXhX1X=X*X!.L.d.h.O.N +.;X*X#XeXN.eXcXaXeX",
"~.S.~.S.B.Z.E.| | P.%X:X:XU.t.6.e.OX3X,XR.t.R.R.1XgXmXmXNXNXbXhXyX&XU.l.l.s.:.Z  .z.$X!.E.w.n.~.F.Z.",
"m.w.D.D.G.`.'.) ( 7.x.J.8.>.6.9.t.3X3X,Xt.R.R.e.R.OX3XhXmXmXhXyX8X_.L.L.c.p...C H ,.4X`.).`.5X/.D.F.",
"G.B.{.{.{.iXiX} G ) 2.5.o.<.3.>.oXnX;XT.Y.t.e.6.R.T.t.%X;XyXyX8X(.L.L.W.c.<.) B ..'.eXrXrXrXrX{.{.{.",
"Z.M.(.^.^.(.^.) L  .*.4.<.:. .! o.I.8.;.X.X.X.6.OXoXU.8.J._.+X+X!.l.c.W.k.,.Q D v.^.^.(.^.^.~.(.(.(.",
"^.D.~.(.(.F.F.K D u.p.k.,.^ ! ~ Y ( Y Y [ >.o.>.5.h.j.j.s.L.L.!.W.W.!.z.p...K ^ (./.^.F.(.(.(.n.M.(.",
"lXaXkXlXlXlXiXC k } 2.g.( Z C N U _ :.*.[  . . .{  . .O.,.v.W.L.W.c.z.p...~ D a.jXkXlXaXpXlXlX/.D.iX",
"`./.D.F.G.5X`.^ t G =.3.' { G q J =.g.3.=.=.%.( U T Y { ' O.W.Q.l.k.f.*.) K V y.H.F./.5X/.D.H.Z.C.`.",
"~.~.~.~.M.r.F.d.g n / ,.o.k.4.f s %..X.X.X2.] -.( U Z 3.,.X.!.!.l.p. .( K B ) E.~.E.@.Z.~.~.~.~.~.~.",
"lXlXlXxX=X^.xXlXa.g V ) *.x.1.E A $.7.7.p.4.4.9.x.1.1.$XL.+.l.l.l.a.! D l K 0XxXlXlXM.cXlXkXxXlXlXlX",
"5X9XtX9XE.Z.`.6X0X~ k V ( x.h.R E 4.|.$X$X$X>XoX7.1.+X-XQ.a.<.p.p. .K l 9 ~ 6X6X9X9XM./.`.tX9X5XG./.",
"Z.Z.Z.Z.Z.Z.Z.M.b.d.V g V 2.h.] R W 0.t.|.oX|.;.1.P.*X4Xv...^ ....K l e p O.Z.Z.Z.Z.Z.Z.Z.w.C.Z.C.Z.",
"uXeXeXeXiXuXuX/.S.lXc.l h Q 2.>.R W ;.0.0.0.0.0.x.P.+XQ.=.~ Z C Z l 8 t ) 5XeXeXeXeXeXeXrXN.tXlXpXeX",
"eXeXeXeX].}.tX^.n.eX0X~ i v ( ,.:.$.X.;.W ;.9.9.8.P.W.p.~ m c l i 8 8 K '.6XeXeXeX[./.eXeXM./.tXtXeX",
"w.@.b.n.M.M.Z.A.M.C.n.y.B h T ,.:.$.[ [ ;.;.1.9.8.l.p.~ m j j g 8 1 l +.b.b.q.b.n.b.N.C.C.M.A.M.b.n.",
"F.B.[.[.}.eXuXeXeXuX[.[.O.h Z ,.3.3.$.` [ 5.j.I.L.L...C j 9 9 8 8 h ..].[.[.b.].[.[.rXeXeXpXeX{.[.[.",
"/.C.pXeXeXeXeXeXeXeXuXuX'.V c ~ X.>.>.{ >.j.x.l.j.<.Q n t 8 3 1 k u.6XpXeXtXM.`.eXeXeXeXeXeXeXeXeXtX",
"r.q.M.N.M.M.M.M.V.M.@.V.A.^ j c Y o.<.:.:.4.:. .! H n r 8 1 8 B  .M.N.y.M.C.w.w.C.C.M.M.N.M.C.r.r.C.",
"pXeXeXcXcXpXeXjXjXeXb.6XpX'.K p V F ' ( ! ! N c s i e 1 e D v.'.jXkXeXn.eXpXeXeXjXcXjXeXtXcXjXF.E.eX",
"zXaX{.eXeXcXuXeXeXpXM.{.pXkX^.K n n C C n n h g 9 8 t Z v.}.aXiX{.eXpXN.eXpXkXeX{.eXjXjXrXeXaX(.F.uX",
"M.b.q.q.w.M.M.q.q.w.#.M.r.M.w.+...) L } } L K C ~ ^ +.b.y.b.b.n.q.q.b.#.r.r.M.w.w.q.b.M.w.q.w.q.w.M."
};
