/* XPM */
static char *result[] = {
/* columns rows colors chars-per-pixel */
"50 50 116 2 ",
"   c #1E3B77",
".  c #1F3C78",
"X  c #223E79",
"o  c #26427B",
"O  c #29457D",
"+  c #2D487F",
"@  c #BC7556",
"#  c #BF7957",
"$  c #BF795A",
"%  c #C37C57",
"&  c #C27D5B",
"*  c #C37F60",
"=  c #C6825E",
"-  c #C9855E",
";  c #CE895F",
":  c #C68464",
">  c #C98664",
",  c #CC8A63",
"<  c #C78668",
"1  c #C88768",
"2  c #C78869",
"3  c #CB8B6B",
"4  c #D28F63",
"5  c #CE906F",
"6  c #D69466",
"7  c #D89667",
"8  c #D4946B",
"9  c #D89769",
"0  c #D7986D",
"q  c #DC9C6E",
"w  c #CD8F71",
"e  c #CF9171",
"r  c #CF9678",
"t  c #CF987E",
"y  c #D19473",
"u  c #D49976",
"i  c #DB9D74",
"p  c #D59A79",
"a  c #D89F7D",
"s  c #DFA06E",
"d  c #DBA17D",
"f  c #E4A672",
"g  c #E5A975",
"h  c #E0A579",
"j  c #E6AC7C",
"k  c #E8AE7D",
"l  c #2D4880",
"z  c #334D83",
"x  c #365185",
"c  c #3B5487",
"v  c #375288",
"b  c #3C5689",
"n  c #3F588B",
"m  c #435B8C",
"M  c #476092",
"N  c #4D6492",
"B  c #516794",
"V  c #546A96",
"C  c #506798",
"Z  c #546C9C",
"A  c #596E99",
"S  c #5C719C",
"D  c #63769E",
"F  c #65789F",
"G  c #677AA0",
"H  c #6A7DA3",
"J  c #6F85A8",
"K  c #7183A7",
"L  c #768AAC",
"P  c #7D8DAE",
"I  c #7A8FB0",
"U  c #7E92B2",
"Y  c #8190AF",
"T  c #8393B2",
"R  c #8897B4",
"E  c #879AB7",
"W  c #899AB6",
"Q  c #899BB8",
"!  c #94A1BC",
"~  c #99A6BE",
"^  c #DCA583",
"/  c #DFA885",
"(  c #DBA789",
")  c #DFA989",
"_  c #DAAB91",
"`  c #E5AD84",
"'  c #E8AF81",
"]  c #E3AE8B",
"[  c #E7B086",
"{  c #E8B184",
"}  c #E6B18B",
"|  c #E9B48D",
" . c #E6B493",
".. c #E8B795",
"X. c #EAB996",
"o. c #E5BA9B",
"O. c #EABA99",
"+. c #EECDB6",
"@. c #A1ACC3",
"#. c #ACB6CA",
"$. c #B1BACD",
"%. c #BBC4D4",
"&. c #C5CDDA",
"*. c #C9CFDB",
"=. c #CCD2DE",
"-. c #D0D6E1",
";. c #DADFE7",
":. c #DFE3EA",
">. c #E4E7ED",
",. c #E7EAEF",
"<. c #EBEEF2",
"1. c #EFF1F4",
"2. c #F2F4F6",
"3. c #F6F7F8",
"4. c #F7F8F9",
"5. c #FEFEFE",
/* pixels */
"X.X......... .: ........O.o.X...X...O.y p O.......O.X.......O. .: ........O...........O.e ^ o.......",
"[ ]  ...O. .] < ......O. .` }  .X... .r ^ O...O...] `  .X... .] > ........ .' ] O.......w ^ ....O...",
"- - > 3 2 > > $ 2 3 2 2 > & > 1 < < , & * 3 3 1 3 * & > < < > > @ 3 3 2 3 : : : 3 2 3 : * * 3 1 3 < ",
"/ / ] a : ` ^ ) ^ ` ^ ` ` ^ ] ] 1 y ` ` ^ ^ ` ` ` ^ ] ] ^ * ` ` / / / / ^ ` ` / ] : u ` ^ ` ^ ` ` ^ ",
"' | ..` : ' ' g j ' ' ' ' ' X...3 i ' j g ' ' ' ' ' } X.] * ' ` g j ' ' ` ' ' ....3 i ' j g ' ' ` ` ",
"y w w : & w w , 3 e e e e e e 3 % 3 e 1 , 5 e e e e e e * & e e H m G y y e e y 4 % 2 e 4 , 5 e e w ",
"6 6 i ^ ^ a d a 7 6 4 % 6 6 9 ^ ^ ^ p ^ 0 7 7 & , 6 6 i a ^ a Y + N X G % 6 6 7 ^ a ^ a ^ 0 6 7 & , ",
"j j j ' ' ' ' k j j f : j k j ' ' ' ' ' j j j 4 i k j ' ' ' ' A m ;.G X - j k j ` ' ' ' ' ` j j 4 q ",
"u p u u u u u r u u y * u p p u u u u u r u p * 3 p p u u u u B N 2.*.+ K u r p u u u u u p r u * 3 ",
"p > = u p p 8 u p p 4 8 u y $ 5 p u u y p u u 6 u i 1 & p _ p m S 4.2.V m p u % 8 p p u y p p 0 4 u ",
"{ 8 p X...[ | X.X.X. .X.} j :  ...X.' ..O.X...| ..` 4 p X.X.| O T 5.5.L z | h :  .....{ X.X.X... .X.",
"d 3 3 0 6 u ^ a 6 8 9 a ^ p * i 6 6 a ^ 0 6 6 p ^ ^ 2 w 0 7 L X %.5.5.R z a p * u 6 8 a ^ 0 7 8 u ^ ",
"y y y y y y w & y y w y y y y y y y y * < w y y y y y y y W X S 2.5.5.P z y y e y y y y : : y y y y ",
"X...X.O.O... .> ..X.O.O.O.......O.O.O.r ^ O.O.O.O.X.....R X m =.5.5.5.S m X.X.X.O.O.O.O.r a O.O.O.X.",
"q q d ) ) a a : / / / / a i i ` ( ` h 3 w ) / / ` 0 q h o N =.5.5.5.;.x D a i i ( / ` i 3 r ) ) ] ] ",
"3 3 3 3 & 3 3 3 3 w 3 w 3 3 3 3 & : w 3 3 3 w 3 w 3 3 N x =.5.5.5.5.! X 3 3 3 3 3 & 1 3 3 3 3 3 3 3 ",
"[ | o.) > { { { { { k { { { X.o.w i [ ` ' ' ` ` ` ' [ X R 5.5.5.5.>.m n ` j [ ..O.3 d { [ ' ' ' { ` ",
"/ ) } s = / ^ s s / ] / / / } ` * i ] h s ` ` ` ] ` z m :.5.5.5.5.Y X ` ` ` / } ` - p ` f q ` / ` ` ",
"- = : < : 2 < : - = = # - = > 2 : 1 2 1 - & & % & z l $.5.5.5.5.;.x B & @ : - - > > : 2 2 : = - $ & ",
"f f j [ { [ { { f f s = f f s [ ` [ ' ` g g g > m O #.5.5.5.5.5.*.o L s & O.O.| o. .[ [ ` g f f ; 8 ",
"[ [ ] / / { ] [ } [ d > ] ] ] [ ] ` ` ` ] ' ] D X ~ 5.5.5.5.5.5.>.m O V : ` ] ` [ ` ] [ ` ] ] [ 3 u ",
"< * = > < < = : n b b b n n c m 1 : : * 1 1 1 X H 2.5.5.5.5.5.5.5.%.V O   X X X . O : : > : : : % : ",
"{ 5 5  .o.] j O + v b b n v z l l  .` ]  . .z m ;.5.5.5.5.5.5.5.5.5.2.&.@.W P P Y B o ` ` o. .] j } ",
"[ 5 d [ j {  .O J U E T U U U J X X X X     X #.5.5.5.5.5.5.5.5.5.5.5.5.5.5.5.5.5.&.O [ ..[ ` ' } ..",
"> * * = = > F x U Q Q E E E E I O N R R R Y ~ 2.5.5.5.5.5.5.5.5.5.5.5.5.5.5.5.5.5.<.n : : & = : : 2 ",
"}  . .} } _ D x U E Q Q E E E L O Y 5.5.5.5.5.5.5.5.5.5.5.5.5.5.5.5.5.5.5.5.5.5.5.<.m  .w u  .] ] } ",
"} [  .O.O.| F l U Q Q Q Q E Q L O Y 5.5.5.5.5.5.5.5.5.5.5.5.5.5.5.5.5.5.5.5.5.5.5.<.n | u a O.O.O...",
"= = , 3 2 1 G l L U U I I I U L O Y 5.5.5.5.5.5.5.5.5.5.5.5.5.5.5.5.5.5.5.5.5.5.5.*.l > $ : 3 3 3 3 ",
"/ / ) d > ^ F + Z S Z S Z Z S Z O Y 5.5.5.5.5.5.5.5.5.5.5.5.5.5.5.5.5.5.5.5.5.5.,.S o ` ` / d ^ / ^ ",
"{ | O./ > { F + Z Z Z Z Z Z Z C O Y 5.5.5.5.5.5.5.5.5.5.5.5.5.5.5.5.5.5.5.5.5.5.=.o V ` k g k ' ' ` ",
"e e 5 - $ e F + Z Z Z Z Z Z Z Z O Y 5.5.5.5.5.5.5.5.5.5.5.5.5.5.5.5.5.5.5.5.5.5.:.z 3 e 4 3 3 y e e ",
"6 6 u ^ ^ d F l Z Z Z S Z Z Z C l T 5.5.5.5.5.5.5.5.5.5.5.5.5.5.5.5.5.5.5.5.5.5.<.n ^ a d 0 7 7 & , ",
"j j j { { ' F l C Z Z Z Z Z Z Z O Y 5.5.5.5.5.5.5.5.5.5.5.5.5.5.5.5.5.5.5.5.5.5.;.z ' ' ' j j k > 0 ",
"u u p u u u F + Z Z S Z Z Z Z Z O T 5.5.5.5.5.5.5.5.5.5.5.5.5.5.5.5.5.5.5.5.5.1.L o r p p u u p : 3 ",
"p > = u p u F l C Z Z Z Z Z Z Z O T 5.5.5.5.5.5.5.5.5.5.5.5.5.5.5.5.5.5.5.5.5.R X N p u y i p y 6 u ",
"{ 8 p X...| F l Z Z Z Z Z Z Z Z O T 5.5.5.5.5.5.5.5.5.5.5.5.5.5.5.5.5.5.5.5.5.T X ..X.[ X.X.....| X.",
"d > 5 0 6 u F l Z Z Z Z Z Z Z Z O T 5.5.5.5.5.5.5.5.5.5.5.5.5.5.5.5.5.5.5.5.5.R O 8 8 ( d u 6 6 u ^ ",
"e r y y y y F l Z Z Z Z Z Z Z Z O R 5.5.5.5.5.5.5.5.5.5.5.5.5.5.5.5.5.5.5.5.3.D x u y p : : y y e r ",
"X.X.O.O.X.X.F l Z Z Z Z Z Z Z C O R 3.4.5.5.5.5.5.5.5.5.5.5.5.5.5.5.5.5.4.5.%.O O.O.X.O.u d O.O.X.O.",
"q q d ) / d F + Z Z Z Z Z Z Z Z + v B S W =.5.5.5.5.5.5.5.5.5.5.5.5.5.5.3.$.m + ) ) / a 3 y ) / ) ) ",
"3 3 3 2 & w H l Z Z Z Z Z Z Z Z l O z O   z G #.>.5.5.5.5.5.5.5.5.5.5.5.! O O 3 e * > 3 3 3 3 3 3 3 ",
"' | O.] : ' W X n C Z Z Z Z Z C O H { ' ' m X X m P %.,.5.5.5.5.5.5.5.-.z x { +.X.w d { { [ [ { ' { ",
"] ] ] i * ` ` m . o l v M M C M o p ` d q ` ` H z   o m K @.=.<.1.<.&.V o `  ._ ) - p ] d s ` / ` / ",
": & : 1 : 2 2 : : G m l X . l o v : 3 > - = & $ & = D x X X O n N m O . # r - : 2 : > 2 > - > - # = ",
"f f j ' ` ` ] ' f f q & f f f ' ` [ ` [ g f f ; 9 f f j ` ' A m x b Z s 5 g g g [ [ [  .| j f f ; 6 ",
"` ` ] ] ` ` ` ` ` ] h : ] ] ] ` ` ] ` ] ` ] ` 3 a [ ] ` ` ] ] } | }  .} : ` ` ] ` ` [ o.o.[ } [ 1 u ",
"2 * & : > 2 : > > 2 : & : : & : < : < : < : : & : < : & > : : : : : < : & 2 2 $ : 2 2 t : : : : $ : ",
"[ 8 8  . .] `  . . .` ` ] ` = `  . .` [ .. .] j } [ 5 8  ...] `  . . .` ` } / = `  . .` } .. .} ` } ",
"[ y p [ ` ' .. .' ` ' ..| ` : } ` ` ` ..] ' ' | ..] 8 p [ ' '  . .' ` '  .} ` : } ' ` }  .[ ` j |  .",
"* & & & & & : * % & & * * * $ & % % : : & % % & : : & $ & & & : = % % & : : * @ & % & : : & % % = : "
};
