/* XPM */
static char *result[] = {
/* columns rows colors chars-per-pixel */
"50 50 108 2 ",
"   c #7B413E",
".  c #754445",
"X  c #7F4341",
"o  c #7A4C4E",
"O  c #6D4A51",
"+  c #7F5052",
"@  c #7D575D",
"#  c #7D585D",
"$  c #5F5D73",
"%  c #655463",
"&  c #695764",
"*  c #6F5967",
"=  c #7C5F67",
"-  c #725E68",
";  c #605E73",
":  c #78616D",
">  c #676273",
",  c #686274",
"<  c #67677D",
"1  c #696678",
"2  c #6F6B7C",
"3  c #766E7B",
"4  c #7D6F7C",
"5  c #76707E",
"6  c #79717D",
"7  c #873E36",
"8  c #963E31",
"9  c #8F4239",
"0  c #944237",
"q  c #9C4133",
"w  c #90433A",
"e  c #984639",
"r  c #B4442E",
"t  c #BE462E",
"y  c #A64331",
"u  c #A84331",
"i  c #AB4935",
"p  c #A34938",
"a  c #B64630",
"s  c #BF4830",
"d  c #BA583E",
"f  c #C1472E",
"g  c #C2492F",
"h  c #C14A32",
"j  c #C25136",
"k  c #C1563B",
"l  c #C25A3F",
"z  c #814C4C",
"x  c #8E524A",
"c  c #835453",
"v  c #835E5D",
"b  c #A15747",
"n  c #B25841",
"m  c #BD5F45",
"M  c #AA614E",
"N  c #B4654E",
"B  c #B7755F",
"V  c #BA755E",
"C  c #9F6C62",
"Z  c #8D6D70",
"A  c #8F7777",
"S  c #8E7778",
"D  c #8E7878",
"F  c #957C7C",
"G  c #9B7E7B",
"H  c #A67B6F",
"J  c #BB7761",
"K  c #BA7962",
"L  c #A47E76",
"P  c #A97E72",
"I  c #C35B40",
"U  c #C26146",
"Y  c #C26549",
"T  c #C1684E",
"R  c #C1755A",
"E  c #C37A5D",
"W  c #C17B62",
"Q  c #9E817D",
"!  c #AD8175",
"~  c #B78677",
"^  c #BA8370",
"/  c #B28578",
"(  c #B48A7C",
")  c #6F7286",
"_  c #7F7382",
"`  c #7B7A8D",
"'  c #7D7F92",
"]  c #807483",
"[  c #847C86",
"{  c #847B89",
"}  c #7A8199",
"|  c #8A828D",
" . c #9D8787",
".. c #93848C",
"X. c #9B888C",
"o. c #828295",
"O. c #8B8794",
"+. c #8C8996",
"@. c #8B8B9A",
"#. c #9E8E92",
"$. c #938E9B",
"%. c #9F9297",
"&. c #9C9299",
"*. c #AB8981",
"=. c #A38E8F",
"-. c #AB908C",
";. c #A49294",
":. c #838BA1",
/* pixels */
"R R R R E ;.L R W R R R R R W R R W *.X.V R R W R R W R R W =.L R R R R R R R R R R R *.X.V R R R R ",
"s s f t I ;.# r s h t t t t s s t h *.Z y f f f f t s s t I =.= r f h f t h s f s s h ( 3 y f s s s ",
"s s f t I ;.# r f f f f f t s f f h *.Z y f h f f f f s t I =.c r h s f f s s s h h j ( _ y h f s s ",
"h f h f I =.v r f h g g h f h f h j *._ y g f g f f h f t I =.= r f h f h f f h f h h ( Z u g h f f ",
"y y y y n ;.v y u u u y y y y y y i *.S 8 u y y u u u u u n ;.c q u y u y y y y u y i ( 6 8 u u y u ",
"% % % % - +.1 % % % % % % % % % % & { ' % % % % % % % % % * O.) % % % % % % % % % & % | ` % % % % % ",
"H H H H H P P H L +.G H L H H H H H H P H =.O.H H H L H H H P P P P +. .H H P L P L P ! ! P Q +.P P ",
"j j j j j j h h Y %.c h j j j j j j j h h K { p j h j h j j j h h Y ;.c s h j s s s s j h j ^ { p s ",
"f f t t s f s t I %.c a f f s s s s s h j ~ { q f h f h t s s s s I &.+ a f s s s s s s s s K [ q f ",
"f t s s s s s t Y &.+ t h f s s s s s s h K { q h f f f s s h s s I ;.@ s f s s s s s s s s ^ { q h ",
"a a a a a a a a m &.+ r a a a t a a s a a K ] 8 a a a a a a r a a m #.+ a a a a a a a a a s ^ { 8 a ",
"O O O O O O O O v $.* O O O O O O O O O + [ ' O O O O O O O O O O v $.* O O O O O O O O O O F ' O O ",
"S { { A A A S S S  .[ A A A { [ S S S S S [ *.S S F { { S S S S S S  .F S S S ' [ F D D D D F  .A A ",
"Y -.Z n I I I I I I I I I W $.b I I I I I I I I I I -.Z n I I I I I I I I I W $.b I I I I l I l I I ",
"I -.= r f f f t f f t t g R O.w f f h s t t t t t k -.= r f g f t t s s s t R +.9 f f s t s t s f s ",
"k -.= r f f s s t t s s f W O.7 h s s s s s h s f k =.= r h f f s s s s s s V +.w h s s s s s s h f ",
"k -.: r s s s s t t t f s R O.w t s s s s s s s s d -.= a s s s s s s s s s R +.w h s s s s s s t t ",
"x =.:   X X X X X X X z X c o.. X X X X X   X X   x =.=   X X X X X X X X X z o.. X X X X X X X z z ",
"3 | { 3 5 3 5 5 ) 3 3 3 3 3 +.3 3 3 ) 4 ) _ 3 3 3 3 O.{ 3 3 3 3 5 ) 3 3 3 6 6 $.6 6 3 6 3 ) 5 3 3 3 ",
"T T T T T T T ~ ..N T T T T T T T T Y R &.C T T T T Y T T T T T ~ ..N T N T T T T T N T R %.C T Y U ",
"f t t f t f h ~ ] 8 g f f s t t f t t Y &.o s a f t t f s s t f ~ _ y f t t t t f f f t U &.z t t t ",
"s s s s h f s ~ ] y f f s s s s s f t Y &.z s s s s s s s s s h ~ ] q f f s t t f f t f Y &.z r s s ",
"f f f f h f h ~ ] y g f h f f f f f f T &.z f s f f f h h h f h ~ ] y g h f s h f h f f Y &.z t h f ",
"0 0 0 0 0 0 e / ] 7 0 0 0 0 0 0 0 0 8 M &.o 8 8 w 8 0 0 0 0 0 e / ] 7 0 0 0 0 0 0 0 0 0 M &.o 0 0 0 ",
", > > > > > > ` ' ; , ; , , > > > , ; 3 @.< > > , , ; ; , > > > ` o.; , , > > > , ; ; ; < @.3 ; > , ",
"V V V B J %.G B J J J J V V B J B V *...J J J J J J J J V J #.G J J V V B V J V V J J *...J J J B V ",
"s s s s I -.# r h s f s s f s s f h ( 4 y s f s s s s s f l ;.# a f s s s s s s f f d ( 4 y h f t s ",
"s s s s I =.v r s s s s s s s s s h ( 4 y s s f s s s s f l ;.# a s f f s s s f f h s / S y f f s s ",
"f h f f I ;.# r f f f h h f f f h j ( 4 u g g f f f h f f l ;.# r f f f f f h f f h h *.4 u f f f h ",
"u y u y n ;.@ y y u u u u y u y u i *.S 8 u u u u u u u y n ;.@ y u u y u u u u y u i ( 4 8 u u u y ",
"& % % % - @.3 O % % % % % % % % % % { ' % % % % & % % % % - +.2 % % % % & % % % % % * | ` % % % & % ",
"H P H H H P P G P O.F H P P H H P P P P H G o.H P P H H H H P P H P O.F H P H H H H H P ! H G +.H H ",
"s j s j h j h h T ;.c s j j j h h j j h j ~ { p h h j j h j h j h Y ;.c h h j h j j h j j j ^ { p h ",
"s s s s f s s s Y %.+ s s s s s s f s s h ^ { q h h f h s s s s s Y %.+ a s h s s s s s s s ^ { q f ",
"s s s s s s t f U %.+ r h s s s s s s s h ^ { q f s h s s s s s f U %.+ t a s s s s s s s s ^ { y h ",
"a a a a a a a r m %.+ a a a a a a a a a a ^ { 8 a a a a a a a a t N ;.+ a a a a a a a a a s ^ { 8 r ",
"O O O O O O O O v $.* O O O O O O O O O O F ' O O O O O O O O O O v $.* O O O O O O O O O O F ' O O ",
"D { [ A D S D D S  .F S D D } D S S S S S F  .S A A { [ A F S A S S  .F S S S ' S S S S D D F X.S A ",
"Y -.Z d l I I l I I I I I W $.b I I I I I I l I I U -.Z d l l l I I l I I I J $.b I I I I I I I l l ",
"l -.= r f t h t t t t f f V +.9 f s f t s f t s f k -.= r t t t t t t s s t R @.w f s t s f t s t t ",
"d -.= a s s s s s s t t t R +.w f f t s s s s s t k -.= a f t t s s s f f f V @.w f t t s s s s t t ",
"k -.= r s s s a s s t t t V O.w f f s s s s s s t k -.= r s s t s s s a s f V +.w f t t s s s s t t ",
"x =.:   X X 9 X X X X z X c o.. z   X X X X X X X x #.:   X z X X X z 7 X X c o.. X X z X X X X z X ",
"6 | { 3 3 3 3 ) ) 3 3 3 3 3 $.3 3 3 3 3 ) 3 3 3 3 3 | { 3 3 3 3 3 ) 3 3 3 3 4 O.6 3 3 3 3 ) 3 3 3 3 ",
"T T T T T T T ~ ..N T T T T T T T T T R %.C T T T T T T T T T T ~ ..N N T T T T T T T T R %.C N T T ",
"t f t t t s h ~ _ y f f t f t t t t f Y &.o t t t f t t s f t f ~ _ y h t s t t f t t t Y &.z f t s ",
"s s t h s s h ~ _ y f f s h f t s s t Y &.z s s s s t f s s s h ~ _ y f s h s f s s s t Y &.z s s f ",
"f f h f h h h ~ _ q h f f f f f f f f Y &.z t h f f f h f h h h ~ ] y f f h f f f f f f Y &.z s f f ",
"0 0 0 0 0 0 e / ] 7 0 0 0 0 0 0 0 0 8 M &.o 7 8 0 0 0 0 0 0 0 e / ] 7 0 0 0 0 0 0 0 0 8 M &.o 0 0 w ",
"$ ; $ $ $ $ $ ` } $ ; $ $ $ $ $ $ ; $ 1 :.) $ $ $ $ $ $ $ $ $ ; ` } $ $ $ $ $ $ $ $ $ $ < :.< $ ; ; "
};
