/* XPM */
static char *result[] = {
/* columns rows colors chars-per-pixel */
"50 50 108 2 ",
"   c #BE272E",
".  c #B7292F",
"X  c #AF2D33",
"o  c #B52A31",
"O  c #CE1E26",
"+  c #CF1F28",
"@  c #D01F27",
"#  c #C02227",
"$  c #C2252A",
"%  c #CD2028",
"&  c #C7282F",
"*  c #CE282F",
"=  c #C22C33",
"-  c #CE2A32",
";  c #D02C33",
":  c #C3363C",
">  c #D13037",
",  c #D2343C",
"<  c #B63C42",
"1  c #C73F43",
"2  c #D33D44",
"3  c #BC7556",
"4  c #BF7957",
"5  c #BF795A",
"6  c #C74246",
"7  c #C8464A",
"8  c #D4454B",
"9  c #CA4F53",
"0  c #D85157",
"q  c #C37C57",
"w  c #C27D5B",
"e  c #DA5E63",
"r  c #C37F60",
"t  c #D16F72",
"y  c #DE6F74",
"u  c #D37275",
"i  c #D47D7F",
"p  c #DD797D",
"a  c #E0777B",
"s  c #C6825E",
"d  c #C9855E",
"f  c #CE895F",
"g  c #C68464",
"h  c #C98664",
"j  c #CC8A64",
"k  c #C78668",
"l  c #C88768",
"z  c #CB8B6B",
"x  c #D28F63",
"c  c #CE906F",
"v  c #D69566",
"b  c #D89667",
"n  c #D3946B",
"m  c #D7986D",
"M  c #DB9C6E",
"N  c #CF9171",
"B  c #D19474",
"V  c #D49976",
"C  c #DA9D74",
"Z  c #D59A79",
"A  c #D99E7C",
"S  c #DFA06E",
"D  c #DBA17E",
"F  c #E3A673",
"G  c #E6A975",
"H  c #E0A579",
"J  c #E6AC7C",
"K  c #E8AE7D",
"L  c #D68285",
"P  c #D68688",
"I  c #D5888B",
"U  c #D98B8C",
"Y  c #D99193",
"T  c #DA9799",
"R  c #E18084",
"E  c #E4878A",
"W  c #E3888C",
"Q  c #E48E92",
"!  c #E59092",
"~  c #DCA582",
"^  c #DFA885",
"/  c #DFA989",
"(  c #E5AE84",
")  c #E8AF81",
"_  c #E2AD8B",
"`  c #E7B086",
"'  c #E8B083",
"]  c #E6B18B",
"[  c #E9B48D",
"{  c #E6B493",
"}  c #E8B795",
"|  c #E9B896",
" . c #EABA99",
".. c #E9A2A5",
"X. c #EAA8AB",
"o. c #EFB6B8",
"O. c #F0BEC0",
"+. c #E6CBCC",
"@. c #F0C2C4",
"#. c #F2CACC",
"$. c #F4CFD0",
"%. c #E6D3D4",
"&. c #E8DBDB",
"*. c #F4D1D1",
"=. c #E9E2E2",
"-. c #EBEBEB",
";. c #FCF4F4",
":. c #FFFFFF",
/* pixels */
"| } } } } } { g } } } }  .} | } } }  .B ~ } } } } } } } } } } { k } } } }  . . .} } }  .B ~ } } } } ",
"` ` { |  .{ _ k | | | } { _ ` } | | { B A  .} }  .] ' }  . .{ _ l | } |  .] ' ` }  .| ] N A  . . .} ",
"d d l l l l l q l l z l l d d l z z l w g l z l z s d l l k l h 4 z z z z g d h l l l l w g z l z z ",
"^ ^ / ~ g ~ ^ ^ ( ~ ^ ^ ( ~ / _ l B ~ _ ( ~ ^ ^ ~ ^ ^ / ~ g ( ~ ^ ~ ~ ~ ^ ^ ~ / _ k V ( ^ ( ^ ~ ~ ~ ",
") ] | ( h ) ) G J ) ) ) ) ) |  .j C ) J G J ) ) ) ) ]  .^ h ' J G J ' ' ' ' ' | | z S ' ) G ) ) ' ( ",
"N N N d q N z j j B N N N B c c q z B z j N * O O O O N s w N N f z N c c N N c z q l N z j c N N N ",
"v v V ~ ~ A ~ A v v x q v v n A ~ A A ~ ; O O @ % % + O O ~ D D Z b v v q v n m D D D D D m v b w j ",
"J K ) ) ) ) ) K J J H d K J J ) ) ) ; + O O O % %   $ $ O O + ) ) J J F s J J J K ' ' ' ) J K K l M ",
"V Z V V V V Z V V V N r V V Z V > % @ % @ % @ % %   $ $ $ # @ % % V V N 5 Z B Z Z V V Z V V B Z g z ",
"Z k s V Z Z n V Z Z c n Z B 2 O @ % % % % % % % % $ $ $ $ $ $ % % % % v n Z V 4 n Z Z B B Z A B v B ",
"' n Z  .} ` [  .| | [ } 8 O O % % % @ % % % @ % % $   $ $ $ $ $ # % % O % ] J g } } } ( |  .} } [ | ",
"D l z m v V ~ A v v 8 O O % @ % % % % % % @ % % %   # $ $ $ $ $ $   $ % % + % g V v v A ~ m v v V D ",
"B B B B B B N 5 B % @ % O % % @ @ % @ % @ % % % % $ $ $   $ $ $ $ $ $ $ $ % % O % B B V r k B B B B ",
"| |  . . .| { % O % % % @ % % % % % % % % % % @ % $ $ $ $ $   $   $ $ $ $ $ $ % @ % -  .B ~  . . . .",
"M M D _ / A O + O % % % % @ % @ % % @ % @ % @ % # $ $ $ $ $ # $ $ $   $ $ $ $ $ $ % O % z B / / / ^ ",
"z z z l q * O + % @ % @ % % % % % @ % % % % % % % $   $ $ $ $ $ $ $ $ $ $ $ $ $ $ $ % + : z z z z c ",
") ] | _ k O % + @ % @ % % % O O % % O O O O O O O       #   # # # # $ $ $ $ $ $ $ $ $ % $ ' ) ( ' ( ",
"( _ ] V g O % % % % % % @ % % 0 a ! ! W Q Q Q Q U L I I P I P P I u 7 $   $ $   $ $ $ % % M ( ( ^ ( ",
"g s g k g O % % % % @ % % ; ..;.:.:.:.:.:.:.:.:.:.-.-.-.-.-.-.-.-.-.%.t $ $ $ $ $ $ % % $ d s s 4 s ",
"F F J ( ) O + % @ % % % + W :.:.:.:.:.:.:.:.:.:.;.-.-.-.-.-.-.-.-.-.-.%.7 # $ $ $ $ # % % J F F f n ",
"( ( _ ( ( O + O % @ % % * @.:.:.:.:.:.:.:.;.:.:.;.-.-.-.-.-.-.-.-.-.-.-.u # $ $ $ $ % % # ' ( ( z V ",
"k r w k g O + O % % % + ; *.:.:.:.:.:.:.:.@.a *.:.-.-.-.-.-.-.-.-.-.-.-.P   $ $ $ $ $ % % l k k q g ",
"_ n n { } O % % % % % + ; $.:.:.:.:.:.:.:.o.O , L +.-.-.-.-.-.-.-.-.-.-.P # $   $ $ $ % $ } } _ J ] ",
"' c A ' ) O % @ % @ % O ; $.:.:.:.:.:.:.:.o.% % O 6 P %.-.-.-.-.-.-.-.-.P # $ $ $ $ $ @ $ ' ) ) ] | ",
"l g r s s O O O % @ % + ; $.:.:.:.:.:.:.:.o.% % %     7 T =.-.-.-.-.-.-.P   $ $ $ $ $ + $ w s s g k ",
"{ _ { ] { O + % % % % % ; $.:.:.:.:.:.:.:.o.% % O   O 1 Y =.-.-.-.-.=.-.P # $   $ $ $ + % V { { { ] ",
"_ ( } | | O % % % @ % O ; *.:.:.:.:.:.:.:.o.% % O : N +.-.-.-.-.-.-.-.-.P # $ $ $ $ $ + % ~  . .}  .",
"d d l l l O O % % % @ + ; #.:.:.:.:.:.:.:.o.% > p +.-.-.-.-.-.-.-.-.-.-.P # $ $ $ $ $ + $ r z l l z ",
"^ / / ~ g O O % % % @ % ; #.:.:.:.:.:.:.:.O.y #.;.-.-.-.-.-.-.-.-.-.-.-.P #   $ $ $ $ + % ( ~ ~ ^ ~ ",
") ] } ( h O O % % @ % % * @.:.:.:.:.:.:.:.;.;.:.:.-.-.-.-.-.-.-.-.-.-.-.i # $ $ $ $ $ + $ G ) ) ) ) ",
"N N N d q O % % % % % % O R :.:.:.:.:.:.:.:.:.:.;.-.-.-.-.-.-.-.-.-.-.&.9 # $ $ $ $ % + % j c c N N ",
"v v B ~ ~ O % % % @ % @ % ; X.;.:.:.:.:.:.:.:.:.:.-.-.-.-.-.-.-.-.-.%.u $ $ $ $   $ $ + $ m b v w j ",
"J J ) ) ) O + % O % % % % + ; e E Q Q Q Q ! Q Q W U U U U U U U U t 6 $ $ $ $ $ $ $ % % % J J J j m ",
"V V V V Z + + % % % @ % @ % O O O O O O O @ O O % $ # # # # # # # # # $ $ $   # $ $ # % $ S Z Z g z ",
"Z k s V Z % % % % % % % % % O + + % @ % O % % % % $ $ $   # $ $ $ $ $ $ $ $ $ $ $ $ % % . D Z B v V ",
"' n Z |  .` O % @ % @ % % % O % % % % % O @ % @ % $ $ $ $ $ $ $ $ $ $ $ #   $   $ % % % | | | [ [  .",
"D l z m v C A % O + % % % @ % % % + % % % % % % %   $ $ $   $   $ $ $ $ $ $ $ % % %   D D m v v Z ~ ",
"B B B B B N N 5 : % + % + % @ % % % % @ % @ % @ % $ $ $ $ $ $ $ $ $ #   $ % % % $ B N B r k B B N N ",
"| |  . . .| { l  . .= % @ % % % % @ % % @ % % % % $   $ $ $   $   $ $ % % @ % |  . . .| B D  . . . .",
"M M D / / D A s ^ / ^ / = O @ % % % @ + % % % @ %   # $ $ $ $ $ $ % % @ % X S S ^ ( ^ D z B / / / / ",
"z z l k w z z z z z z z z z = + % @ % @ % % % % % $ $ $ $ $ $ % % O % o z z z z z w l z z z z N z z ",
"' [  ._ l ' ( ) ( ' ( ) ' '  . .& % % % @ % % @ % $ $   $ & % @ % o ' ' ' ' (  . .N C ( ' ' ( ( ( ( ",
"( _ _ C g ( ( M H ( _ ( ^ ( _ ( s V & % % % % % %   $ % O % % . S D ( ^ _ ^ ( _ ( g V ( H M ( ( ( ( ",
"s s h k g k l h s s w 5 g s g k k k k l % % % % % # % % +   l l h d s s 5 s s g k g k l l g w s 4 s ",
"F F J ' ( ( ( ) F F M s F F F ( ( ( ( ' G < % O @ + + $ ' ( ' ( J F F M s F F F ' ( ' ( ' G F F f n ",
"_ ( _ ( _ ( ( _ ( ( ~ g ( ( _ ( ( ( _ ( _ ] ` j C ` ( _ ( ( _ ( ( ( ` D g _ ) ( ( _ ( ( ( _ _ ' l V ",
"k g w k g k g g l l s q k g w g k k k g k k g w g k g w k g k g k g l s 5 k k 5 g k k g g k l h 5 s ",
"( n n { } _ J { } { ( ( _ ( s ( { { ( ' { { _ ( ] ` c n { { ] ( { } } ) ( ] ( w ( } { ( _ { } ` ( ] ",
"` c Z ` ) ) { { ) ( ( { ] ( g ` ( ( _ } ' ( J ] { ' c A ` ( ( ] { ( ) ( } ` ( g ] ) ( _ } ' ( J ] } ",
"k 5 5 w w s g s w 4 q g g g 3 w q w s g w w w s g g 5 5 s w w g w q q w g g r 3 w w q g g w q w s g "
};
